<svg width="1728" height="1304" viewBox="0 0 1728 1304" fill="none" xmlns="http://www.w3.org/2000/svg">
<path d="M1946.58 6.68C1927.16 8.68 1907.7 10.27 1888.27 12.24C1852.92 16.03 1817.54 19.59 1782.1 22.54C1722.34 27.64 1662.44 31.61 1602.46 32.53C1572.3 33.08 1542.14 32.28 1511.99 31.16C1487.36 30.3 1462.7 29.77 1438.07 30.94C1420.07 31.91 1402.11 33.85 1384.35 36.96C1362.98 40.67 1341.94 46.45 1321.85 54.66C1304.63 61.79 1288.24 70.75 1272.43 80.58C1253.21 92.65 1234.82 106.06 1217.45 120.67C1201.21 134.39 1185.87 149.15 1171.25 164.58C1148.54 188.26 1128.11 213.96 1107.68 239.59C1092.17 258.97 1076.5 278.23 1060.38 297.1C1043.62 316.59 1026.39 335.7 1008.29 353.96C994.554 367.74 980.224 380.92 965.494 393.63C938.404 416.87 913.904 435.75 882.134 453.9C853.344 469.92 828.614 480.19 797.284 490.32C781.794 495.28 766.094 499.6 750.244 503.26C741.194 505.31 732.094 507.17 722.964 508.86C713.664 510.56 704.324 512.02 694.964 513.32C656.924 518.39 618.554 520.06 580.274 522.21C546.414 524.12 512.544 526.52 478.914 531.05C463.164 533.12 447.454 535.63 431.924 538.97C416.864 542.28 401.924 546.45 387.754 552.59C379.814 556.03 372.204 560.19 365.044 565.05C359.004 569.23 353.314 573.89 347.844 578.79C335.404 590.17 324.044 602.67 313.204 615.56C303.264 627.47 294.274 640.15 285.724 653.08C267.384 681.23 250.544 710.34 231.734 738.19C224.004 749.85 215.654 761.16 209.184 769.41C202.754 777.54 195.994 785.45 188.384 792.51C179.984 800 176.624 802.43 166.854 808.87C158.794 814.02 150.474 818.75 141.874 822.95C131.644 827.76 127.004 829.6 116.854 833.4C106.814 837.16 96.6442 840.55 86.3942 843.71C71.0342 848.4 55.3342 851.83 39.5642 854.82C23.7942 857.85 7.96417 860.6 -7.87582 863.27C-75.6058 874.79 -144.496 883.88 -209.076 908.34C-225.836 914.78 -242.156 922.4 -257.676 931.42C-270.966 939.34 -283.576 948.37 -295.326 958.42C-308.866 970.27 -320.926 983.74 -331.706 998.14C-338.386 1007.06 -344.596 1016.33 -350.146 1025.99C-355.126 1034.79 -359.456 1043.94 -363.336 1053.27C-371.986 1073.89 -377.386 1095.69 -381.686 1117.58C-384.276 1131.52 -386.656 1145.55 -387.566 1159.72C-388.826 1183.06 -387.446 1206.71 -382.076 1229.51C-382.506 1220.01 -382.106 1210.49 -381.566 1201C-380.776 1187.52 -379.446 1174.08 -377.846 1160.68C-376.836 1152.5 -375.926 1145.25 -373.586 1131.46C-370.486 1114.09 -366.676 1096.82 -361.576 1079.92C-353.966 1055.1 -343.356 1032.98 -326.896 1009.92C-317.196 996.2 -302.546 979.13 -286.766 965.61C-280.986 960.87 -281.776 961.35 -276.866 957.62C-268.796 951.41 -260.276 945.82 -251.556 940.56C-236.126 931.68 -222.026 925.14 -208.726 919.83C-147.216 896 -81.5658 886.28 -16.8058 875.6C1.13419 872.67 19.0442 869.61 36.9242 866.31C55.4242 862.87 73.9042 859.09 91.8642 853.42C113.084 846.75 134.204 839.34 154.004 829.12C169.964 820.57 185.464 810.7 198.524 798.08C206.324 790.58 213.184 782.18 219.804 773.64C226.884 764.57 233.594 755.21 240.054 745.68C250.994 729.45 261.434 712.89 271.734 696.25C281.284 680.88 290.684 665.41 300.884 650.45C311.444 634.79 319.704 624.37 333.074 609.45C343.374 598.03 354.164 586.94 366.294 577.44C367.704 576.43 369.074 575.38 370.504 574.4C373.284 572.51 376.134 570.72 379.024 569.01C385.424 565.34 392.224 562.15 395.574 560.87C412.394 554.13 430.094 549.86 447.864 546.48C475.364 541.41 496.084 538.99 523.814 536.36C570.844 532.05 618.124 531.14 665.154 526.78C688.524 524.59 711.784 521.33 734.794 516.69C758.644 511.94 782.174 505.64 805.234 497.96C835.194 487.92 864.394 475.33 891.664 459.31C918.364 443.61 943.064 424.75 966.704 404.79C981.084 392.57 995.084 379.9 1008.59 366.73C1019.79 355.75 1030.57 344.34 1041.16 332.77C1065.53 306.36 1088.47 278.69 1111.06 250.76C1131.52 225.43 1151.71 199.84 1174.14 176.2C1205.83 142.43 1237.63 114.96 1275.31 91.55C1291.95 81.12 1309.28 71.75 1327.47 64.33C1327.02 64.52 1326.58 64.71 1326.13 64.9C1330.35 63.37 1334.52 61.67 1338.79 60.27C1348.71 56.89 1358.81 54.08 1369.03 51.74C1403.75 44.04 1436 42.03 1474.09 42.4C1496.87 42.6 1519.62 43.79 1542.39 44.46C1561.97 45.01 1581.57 45.03 1601.15 44.7C1664.26 43.59 1727.26 39.1 1790.11 33.44C1812.84 31.4 1835.56 29.28 1858.24 26.71C1877.13 24.53 1896.04 22.55 1914.92 20.28C1933.33 18.01 1950.08 16 1969.08 13.52C1992.54 10.22 2015.9 6.17 2039.1 1.33C2041.2 0.89 2043.31 0.45 2045.41 0C2012.37 0.86 1979.38 3.11 1946.52 6.63L1946.58 6.68Z" fill="#075438"/>
<path d="M1961.25 24.8001C1941.83 26.8001 1922.37 28.3901 1902.94 30.3601C1867.59 34.1501 1832.21 37.7101 1796.77 40.6601C1737.01 45.7601 1677.11 49.7301 1617.13 50.6501C1586.97 51.2001 1556.81 50.4001 1526.66 49.2801C1502.03 48.4201 1477.37 47.8901 1452.74 49.0601C1434.74 50.0301 1416.78 51.9701 1399.02 55.0801C1377.65 58.7901 1356.61 64.5701 1336.52 72.7801C1319.3 79.9101 1302.91 88.8701 1287.1 98.7001C1267.88 110.77 1249.49 124.18 1232.12 138.79C1215.88 152.51 1200.54 167.27 1185.92 182.7C1163.21 206.38 1142.78 232.08 1122.35 257.71C1106.84 277.09 1091.17 296.35 1075.05 315.22C1058.29 334.71 1041.06 353.82 1022.96 372.08C1009.22 385.86 994.894 399.04 980.164 411.75C953.074 434.99 928.574 453.87 896.804 472.02C868.014 488.04 843.284 498.31 811.954 508.44C796.464 513.4 780.764 517.72 764.914 521.38C755.864 523.43 746.764 525.29 737.634 526.98C728.334 528.68 718.994 530.14 709.634 531.44C671.594 536.51 633.224 538.18 594.944 540.33C561.084 542.24 527.214 544.64 493.584 549.17C477.834 551.24 462.124 553.75 446.594 557.09C431.534 560.4 416.594 564.57 402.424 570.71C394.484 574.15 386.874 578.31 379.714 583.17C373.674 587.35 367.984 592.01 362.514 596.91C350.074 608.29 338.714 620.79 327.874 633.68C317.934 645.59 308.944 658.27 300.394 671.2C282.054 699.35 265.214 728.46 246.404 756.31C238.674 767.97 230.324 779.28 223.854 787.53C217.424 795.66 210.664 803.57 203.054 810.63C194.654 818.12 191.294 820.55 181.524 826.99C173.464 832.14 165.144 836.87 156.544 841.07C146.314 845.88 141.674 847.72 131.524 851.52C121.484 855.28 111.314 858.67 101.064 861.83C85.7041 866.52 70.0041 869.95 54.2341 872.94C38.4641 875.97 22.6341 878.72 6.7941 881.39C-60.9359 892.91 -129.826 902 -194.406 926.46C-211.166 932.9 -227.486 940.52 -243.006 949.54C-256.296 957.46 -268.906 966.49 -280.656 976.54C-294.196 988.39 -306.256 1001.86 -317.036 1016.26C-323.716 1025.18 -329.926 1034.45 -335.476 1044.11C-340.456 1052.91 -344.786 1062.06 -348.666 1071.39C-357.316 1092.01 -362.716 1113.81 -367.016 1135.7C-369.606 1149.64 -371.986 1163.67 -372.896 1177.84C-374.156 1201.18 -372.776 1224.83 -367.406 1247.63C-367.836 1238.13 -367.436 1228.61 -366.896 1219.12C-366.106 1205.64 -364.776 1192.2 -363.176 1178.8C-362.166 1170.62 -361.256 1163.37 -358.916 1149.58C-355.816 1132.21 -352.006 1114.94 -346.906 1098.04C-339.296 1073.22 -328.686 1051.1 -312.226 1028.04C-302.526 1014.32 -287.876 997.25 -272.096 983.73C-266.316 978.99 -267.106 979.47 -262.196 975.74C-254.126 969.53 -245.606 963.94 -236.886 958.68C-221.456 949.8 -207.356 943.26 -194.056 937.95C-132.546 914.12 -66.8959 904.4 -2.13589 893.72C15.8041 890.79 33.7141 887.73 51.5941 884.43C70.0941 880.99 88.5741 877.21 106.534 871.54C127.754 864.87 148.874 857.46 168.674 847.24C184.634 838.69 200.134 828.82 213.194 816.2C220.994 808.7 227.854 800.3 234.474 791.76C241.554 782.69 248.264 773.33 254.724 763.8C265.664 747.57 276.104 731.01 286.404 714.37C295.954 699 305.354 683.53 315.554 668.57C326.114 652.91 334.374 642.49 347.744 627.57C358.044 616.15 368.834 605.06 380.964 595.56C382.374 594.55 383.744 593.5 385.174 592.52C387.954 590.63 390.804 588.84 393.694 587.13C400.094 583.46 406.894 580.27 410.244 578.99C427.064 572.25 444.764 567.98 462.534 564.6C490.034 559.53 510.754 557.11 538.484 554.48C585.514 550.17 632.794 549.26 679.824 544.9C703.194 542.71 726.454 539.45 749.464 534.81C773.314 530.06 796.844 523.76 819.904 516.08C849.864 506.04 879.064 493.45 906.334 477.43C933.034 461.73 957.734 442.87 981.374 422.91C995.754 410.69 1009.75 398.02 1023.26 384.85C1034.46 373.87 1045.24 362.46 1055.83 350.89C1080.2 324.48 1103.14 296.81 1125.73 268.88C1146.19 243.55 1166.38 217.96 1188.81 194.32C1220.5 160.55 1252.3 133.08 1289.98 109.67C1306.62 99.2401 1323.95 89.8701 1342.14 82.4501C1341.69 82.6401 1341.25 82.8301 1340.8 83.0201C1345.02 81.4901 1349.19 79.7901 1353.46 78.3901C1363.38 75.0101 1373.48 72.2001 1383.7 69.8601C1418.42 62.1601 1450.67 60.1501 1488.76 60.5201C1511.54 60.7201 1534.29 61.9101 1557.06 62.5801C1576.64 63.1301 1596.24 63.1501 1615.82 62.8201C1678.93 61.7101 1741.93 57.2201 1804.78 51.5601C1827.51 49.5201 1850.23 47.4001 1872.91 44.8301C1891.8 42.6501 1910.71 40.6701 1929.59 38.4001C1948 36.1301 1964.75 34.1201 1983.75 31.6401C2007.21 28.3401 2030.57 24.2901 2053.77 19.4501C2055.87 19.0101 2057.98 18.5701 2060.08 18.1201C2027.04 18.9801 1994.05 21.2301 1961.19 24.7501L1961.25 24.8001Z" fill="#075438"/>
<path d="M1977.15 46.16C1957.73 48.16 1938.27 49.75 1918.84 51.72C1883.49 55.51 1848.11 59.07 1812.67 62.02C1752.91 67.12 1693.01 71.09 1633.03 72.01C1602.87 72.56 1572.71 71.76 1542.56 70.64C1517.93 69.78 1493.27 69.25 1468.64 70.42C1450.64 71.39 1432.68 73.33 1414.92 76.44C1393.55 80.15 1372.51 85.93 1352.42 94.14C1335.2 101.27 1318.81 110.23 1303 120.06C1283.78 132.13 1265.39 145.54 1248.02 160.15C1231.78 173.87 1216.44 188.63 1201.82 204.06C1179.11 227.74 1158.68 253.44 1138.25 279.07C1122.74 298.45 1107.07 317.71 1090.95 336.58C1074.19 356.07 1056.96 375.18 1038.86 393.44C1025.12 407.22 1010.79 420.4 996.064 433.11C968.974 456.35 944.474 475.23 912.704 493.38C883.914 509.4 859.184 519.67 827.854 529.8C812.364 534.76 796.664 539.08 780.814 542.74C771.764 544.79 762.664 546.65 753.534 548.34C744.234 550.04 734.894 551.5 725.534 552.8C687.494 557.87 649.124 559.54 610.844 561.69C576.984 563.6 543.114 566 509.484 570.53C493.734 572.6 478.024 575.11 462.494 578.45C447.434 581.76 432.494 585.93 418.324 592.07C410.384 595.51 402.774 599.67 395.614 604.53C389.574 608.71 383.884 613.37 378.414 618.27C365.974 629.65 354.614 642.15 343.774 655.04C333.834 666.95 324.844 679.63 316.294 692.56C297.954 720.71 281.114 749.82 262.304 777.67C254.574 789.33 246.224 800.64 239.754 808.89C233.324 817.02 226.564 824.93 218.954 831.99C210.554 839.48 207.194 841.91 197.424 848.35C189.364 853.5 181.044 858.23 172.444 862.43C162.214 867.24 157.574 869.08 147.424 872.88C137.384 876.64 127.214 880.03 116.964 883.19C101.604 887.88 85.9042 891.31 70.1342 894.3C54.3643 897.33 38.5342 900.08 22.6942 902.75C-45.0358 914.27 -113.926 923.36 -178.506 947.82C-195.266 954.26 -211.586 961.88 -227.106 970.9C-240.396 978.82 -253.006 987.85 -264.756 997.9C-278.296 1009.75 -290.356 1023.22 -301.136 1037.62C-307.816 1046.54 -314.026 1055.81 -319.576 1065.47C-324.556 1074.27 -328.886 1083.42 -332.766 1092.75C-341.416 1113.37 -346.816 1135.17 -351.116 1157.06C-353.706 1171 -356.086 1185.03 -356.996 1199.2C-358.256 1222.54 -356.876 1246.19 -351.506 1268.99C-351.936 1259.49 -351.536 1249.97 -350.996 1240.48C-350.206 1227 -348.876 1213.56 -347.276 1200.16C-346.266 1191.98 -345.356 1184.73 -343.016 1170.94C-339.916 1153.57 -336.106 1136.3 -331.006 1119.4C-323.396 1094.58 -312.786 1072.46 -296.326 1049.4C-286.626 1035.68 -271.976 1018.61 -256.196 1005.09C-250.416 1000.35 -251.206 1000.83 -246.296 997.1C-238.226 990.89 -229.706 985.3 -220.986 980.04C-205.556 971.16 -191.456 964.62 -178.156 959.31C-116.646 935.48 -50.9958 925.76 13.7643 915.08C31.7043 912.15 49.6143 909.09 67.4943 905.79C85.9943 902.35 104.474 898.57 122.434 892.9C143.654 886.23 164.774 878.82 184.574 868.6C200.534 860.05 216.034 850.18 229.094 837.56C236.894 830.06 243.754 821.66 250.374 813.12C257.454 804.05 264.164 794.69 270.624 785.16C281.564 768.93 292.004 752.37 302.304 735.73C311.854 720.36 321.254 704.89 331.454 689.93C342.014 674.27 350.274 663.85 363.644 648.93C373.944 637.51 384.734 626.42 396.864 616.92C398.274 615.91 399.644 614.86 401.074 613.88C403.854 611.99 406.704 610.2 409.594 608.49C415.994 604.82 422.794 601.63 426.144 600.35C442.964 593.61 460.664 589.34 478.434 585.96C505.934 580.89 526.654 578.47 554.384 575.84C601.414 571.53 648.694 570.62 695.724 566.26C719.094 564.07 742.354 560.81 765.364 556.17C789.214 551.42 812.744 545.12 835.804 537.44C865.764 527.4 894.964 514.81 922.234 498.79C948.934 483.09 973.634 464.23 997.274 444.27C1011.65 432.05 1025.65 419.38 1039.16 406.21C1050.36 395.23 1061.14 383.82 1071.73 372.25C1096.1 345.84 1119.04 318.17 1141.63 290.24C1162.09 264.91 1182.28 239.32 1204.71 215.68C1236.4 181.91 1268.2 154.44 1305.88 131.03C1322.52 120.6 1339.85 111.23 1358.04 103.81C1357.59 104 1357.15 104.19 1356.7 104.38C1360.92 102.85 1365.09 101.15 1369.36 99.75C1379.28 96.37 1389.38 93.56 1399.6 91.22C1434.32 83.52 1466.57 81.51 1504.66 81.88C1527.44 82.08 1550.19 83.27 1572.96 83.94C1592.54 84.49 1612.14 84.51 1631.72 84.18C1694.83 83.07 1757.83 78.58 1820.68 72.92C1843.41 70.88 1866.13 68.76 1888.81 66.19C1907.7 64.01 1926.61 62.03 1945.49 59.76C1963.9 57.49 1980.65 55.48 1999.65 53C2023.11 49.7 2046.47 45.65 2069.67 40.81C2071.77 40.37 2073.88 39.93 2075.98 39.48C2042.94 40.34 2009.95 42.59 1977.09 46.11L1977.15 46.16Z" fill="#075438"/>
<path d="M1995.12 65.0301C1975.7 67.0301 1956.24 68.6201 1936.81 70.5901C1901.46 74.3801 1866.08 77.9401 1830.64 80.8901C1770.88 85.9901 1710.98 89.9601 1651 90.8801C1620.84 91.4301 1590.68 90.6301 1560.53 89.5101C1535.9 88.6501 1511.24 88.1201 1486.61 89.2901C1468.61 90.2601 1450.65 92.2001 1432.89 95.3101C1411.52 99.0201 1390.48 104.8 1370.39 113.01C1353.17 120.14 1336.78 129.1 1320.97 138.93C1301.75 151 1283.36 164.41 1265.99 179.02C1249.75 192.74 1234.41 207.5 1219.79 222.93C1197.08 246.61 1176.65 272.31 1156.22 297.94C1140.71 317.32 1125.04 336.58 1108.92 355.45C1092.16 374.94 1074.93 394.05 1056.83 412.31C1043.09 426.09 1028.76 439.27 1014.03 451.98C986.944 475.22 962.444 494.1 930.674 512.25C901.884 528.27 877.154 538.54 845.824 548.67C830.334 553.63 814.634 557.95 798.784 561.61C789.734 563.66 780.634 565.52 771.504 567.21C762.204 568.91 752.864 570.37 743.504 571.67C705.464 576.74 667.094 578.41 628.814 580.56C594.954 582.47 561.084 584.87 527.454 589.4C511.704 591.47 495.994 593.98 480.464 597.32C465.404 600.63 450.464 604.8 436.294 610.94C428.354 614.38 420.744 618.54 413.584 623.4C407.544 627.58 401.854 632.24 396.384 637.14C383.944 648.52 372.584 661.02 361.744 673.91C351.804 685.82 342.814 698.5 334.264 711.43C315.924 739.58 299.084 768.69 280.274 796.54C272.544 808.2 264.194 819.51 257.724 827.76C251.294 835.89 244.534 843.8 236.924 850.86C228.524 858.35 225.164 860.78 215.394 867.22C207.334 872.37 199.014 877.1 190.414 881.3C180.184 886.11 175.544 887.95 165.394 891.75C155.354 895.51 145.184 898.9 134.934 902.06C119.574 906.75 103.874 910.18 88.1042 913.17C72.3342 916.2 56.5042 918.95 40.6642 921.62C-27.0658 933.14 -95.9558 942.23 -160.536 966.69C-177.296 973.13 -193.616 980.75 -209.136 989.77C-222.426 997.69 -235.036 1006.72 -246.786 1016.77C-260.326 1028.62 -272.386 1042.09 -283.166 1056.49C-289.846 1065.41 -296.056 1074.68 -301.606 1084.34C-306.586 1093.14 -310.916 1102.29 -314.796 1111.62C-323.446 1132.24 -328.846 1154.04 -333.146 1175.93C-335.736 1189.87 -338.116 1203.9 -339.026 1218.07C-340.286 1241.41 -338.906 1265.06 -333.536 1287.86C-333.966 1278.36 -333.566 1268.84 -333.026 1259.35C-332.236 1245.87 -330.906 1232.43 -329.306 1219.03C-328.296 1210.85 -327.386 1203.6 -325.046 1189.81C-321.946 1172.44 -318.136 1155.17 -313.036 1138.27C-305.426 1113.45 -294.816 1091.33 -278.356 1068.27C-268.656 1054.55 -254.006 1037.48 -238.226 1023.96C-232.446 1019.22 -233.236 1019.7 -228.326 1015.97C-220.256 1009.76 -211.736 1004.17 -203.016 998.91C-187.586 990.03 -173.486 983.49 -160.186 978.18C-98.6758 954.35 -33.0258 944.63 31.7342 933.95C49.6742 931.02 67.5842 927.96 85.4642 924.66C103.964 921.22 122.444 917.44 140.404 911.77C161.624 905.1 182.744 897.69 202.544 887.47C218.504 878.92 234.004 869.05 247.064 856.43C254.864 848.93 261.724 840.53 268.344 831.99C275.424 822.92 282.134 813.56 288.594 804.03C299.534 787.8 309.974 771.24 320.274 754.6C329.824 739.23 339.224 723.76 349.424 708.8C359.984 693.14 368.244 682.72 381.614 667.8C391.914 656.38 402.704 645.29 414.834 635.79C416.244 634.78 417.614 633.73 419.044 632.75C421.824 630.86 424.674 629.07 427.564 627.36C433.964 623.69 440.764 620.5 444.114 619.22C460.934 612.48 478.634 608.21 496.404 604.83C523.904 599.76 544.624 597.34 572.354 594.71C619.384 590.4 666.664 589.49 713.694 585.13C737.064 582.94 760.324 579.68 783.334 575.04C807.184 570.29 830.714 563.99 853.774 556.31C883.734 546.27 912.934 533.68 940.204 517.66C966.904 501.96 991.604 483.1 1015.24 463.14C1029.62 450.92 1043.62 438.25 1057.13 425.08C1068.33 414.1 1079.11 402.69 1089.7 391.12C1114.07 364.71 1137.01 337.04 1159.6 309.11C1180.06 283.78 1200.25 258.19 1222.68 234.55C1254.37 200.78 1286.17 173.31 1323.85 149.9C1340.49 139.47 1357.82 130.1 1376.01 122.68C1375.56 122.87 1375.12 123.06 1374.67 123.25C1378.89 121.72 1383.06 120.02 1387.33 118.62C1397.25 115.24 1407.35 112.43 1417.57 110.09C1452.29 102.39 1484.54 100.38 1522.63 100.75C1545.41 100.95 1568.16 102.14 1590.93 102.81C1610.51 103.36 1630.11 103.38 1649.69 103.05C1712.8 101.94 1775.8 97.4501 1838.65 91.7901C1861.38 89.7501 1884.1 87.6301 1906.78 85.0601C1925.67 82.8801 1944.58 80.9001 1963.46 78.6301C1981.87 76.3601 1998.62 74.3501 2017.62 71.8701C2041.08 68.5701 2064.44 64.5201 2087.64 59.6801C2089.74 59.2401 2091.85 58.8001 2093.95 58.3501C2060.91 59.2101 2027.92 61.4601 1995.06 64.9801L1995.12 65.0301Z" fill="#075438"/>
<path d="M2017.12 81.0301C1997.7 83.0301 1978.24 84.6201 1958.81 86.5901C1923.46 90.3801 1888.08 93.9401 1852.64 96.8901C1792.88 101.99 1732.98 105.96 1673 106.88C1642.84 107.43 1612.68 106.63 1582.53 105.51C1557.9 104.65 1533.24 104.12 1508.61 105.29C1490.61 106.26 1472.65 108.2 1454.89 111.31C1433.52 115.02 1412.48 120.8 1392.39 129.01C1375.17 136.14 1358.78 145.1 1342.97 154.93C1323.75 167 1305.36 180.41 1287.99 195.02C1271.75 208.74 1256.41 223.5 1241.79 238.93C1219.08 262.61 1198.65 288.31 1178.22 313.94C1162.71 333.32 1147.04 352.58 1130.92 371.45C1114.16 390.94 1096.93 410.05 1078.83 428.31C1065.09 442.09 1050.76 455.27 1036.03 467.98C1008.94 491.22 984.444 510.1 952.674 528.25C923.884 544.27 899.154 554.54 867.824 564.67C852.334 569.63 836.634 573.95 820.784 577.61C811.734 579.66 802.634 581.52 793.504 583.21C784.204 584.91 774.864 586.37 765.504 587.67C727.464 592.74 689.094 594.41 650.814 596.56C616.954 598.47 583.084 600.87 549.454 605.4C533.704 607.47 517.994 609.98 502.464 613.32C487.404 616.63 472.464 620.8 458.294 626.94C450.354 630.38 442.744 634.54 435.584 639.4C429.544 643.58 423.854 648.24 418.384 653.14C405.944 664.52 394.584 677.02 383.744 689.91C373.804 701.82 364.814 714.5 356.264 727.43C337.924 755.58 321.084 784.69 302.274 812.54C294.544 824.2 286.194 835.51 279.724 843.76C273.294 851.89 266.534 859.8 258.924 866.86C250.524 874.35 247.164 876.78 237.394 883.22C229.334 888.37 221.014 893.1 212.414 897.3C202.184 902.11 197.544 903.95 187.394 907.75C177.354 911.51 167.184 914.9 156.934 918.06C141.574 922.75 125.874 926.18 110.104 929.17C94.3342 932.2 78.5042 934.95 62.6642 937.62C-5.0658 949.14 -73.9558 958.23 -138.536 982.69C-155.296 989.13 -171.616 996.75 -187.136 1005.77C-200.426 1013.69 -213.036 1022.72 -224.786 1032.77C-238.326 1044.62 -250.386 1058.09 -261.166 1072.49C-267.846 1081.41 -274.056 1090.68 -279.606 1100.34C-284.586 1109.14 -288.916 1118.29 -292.796 1127.62C-301.446 1148.24 -306.846 1170.04 -311.146 1191.93C-313.736 1205.87 -316.116 1219.9 -317.026 1234.07C-318.286 1257.41 -316.906 1281.06 -311.536 1303.86C-311.966 1294.36 -311.566 1284.84 -311.026 1275.35C-310.236 1261.87 -308.906 1248.43 -307.306 1235.03C-306.296 1226.85 -305.386 1219.6 -303.046 1205.81C-299.946 1188.44 -296.136 1171.17 -291.036 1154.27C-283.426 1129.45 -272.816 1107.33 -256.356 1084.27C-246.656 1070.55 -232.006 1053.48 -216.226 1039.96C-210.446 1035.22 -211.236 1035.7 -206.326 1031.97C-198.256 1025.76 -189.736 1020.17 -181.016 1014.91C-165.586 1006.03 -151.486 999.49 -138.186 994.18C-76.6758 970.35 -11.0258 960.63 53.7342 949.95C71.6742 947.02 89.5842 943.96 107.464 940.66C125.964 937.22 144.444 933.44 162.404 927.77C183.624 921.1 204.744 913.69 224.544 903.47C240.504 894.92 256.004 885.05 269.064 872.43C276.864 864.93 283.724 856.53 290.344 847.99C297.424 838.92 304.134 829.56 310.594 820.03C321.534 803.8 331.974 787.24 342.274 770.6C351.824 755.23 361.224 739.76 371.424 724.8C381.984 709.14 390.244 698.72 403.614 683.8C413.914 672.38 424.704 661.29 436.834 651.79C438.244 650.78 439.614 649.73 441.044 648.75C443.824 646.86 446.674 645.07 449.564 643.36C455.964 639.69 462.764 636.5 466.114 635.22C482.934 628.48 500.634 624.21 518.404 620.83C545.904 615.76 566.624 613.34 594.354 610.71C641.384 606.4 688.664 605.49 735.694 601.13C759.064 598.94 782.324 595.68 805.334 591.04C829.184 586.29 852.714 579.99 875.774 572.31C905.734 562.27 934.934 549.68 962.204 533.66C988.904 517.96 1013.6 499.1 1037.24 479.14C1051.62 466.92 1065.62 454.25 1079.13 441.08C1090.33 430.1 1101.11 418.69 1111.7 407.12C1136.07 380.71 1159.01 353.04 1181.6 325.11C1202.06 299.78 1222.25 274.19 1244.68 250.55C1276.37 216.78 1308.17 189.31 1345.85 165.9C1362.49 155.47 1379.82 146.1 1398.01 138.68C1397.56 138.87 1397.12 139.06 1396.67 139.25C1400.89 137.72 1405.06 136.02 1409.33 134.62C1419.25 131.24 1429.35 128.43 1439.57 126.09C1474.29 118.39 1506.54 116.38 1544.63 116.75C1567.41 116.95 1590.16 118.14 1612.93 118.81C1632.51 119.36 1652.11 119.38 1671.69 119.05C1734.8 117.94 1797.8 113.45 1860.65 107.79C1883.38 105.75 1906.1 103.63 1928.78 101.06C1947.67 98.8801 1966.58 96.9001 1985.46 94.6301C2003.87 92.3601 2020.62 90.3501 2039.62 87.8701C2063.08 84.5701 2086.44 80.5201 2109.64 75.6801C2111.74 75.2401 2113.85 74.8001 2115.95 74.3501C2082.91 75.2101 2049.92 77.4601 2017.06 80.9801L2017.12 81.0301Z" fill="#075438"/>
</svg>
