<svg width="300" height="148" viewBox="0 0 300 148" fill="none" xmlns="http://www.w3.org/2000/svg">
<g clip-path="url(#clip0_417_11486)">
<path d="M63.0375 22.9003C62.0874 22.3921 61.1522 21.8913 60.1347 21.5176C59.4988 21.2859 58.7881 21.2411 58.1746 20.9496C57.0076 20.3965 55.9826 19.6416 55.4963 18.401C54.6285 16.1737 54.8604 13.6101 55.3841 11.3455C55.6235 10.3216 55.6983 9.24533 56.1173 8.25876C56.3268 7.76548 56.626 7.36188 56.8056 6.85365C57.0749 6.09877 57.2919 5.50085 57.7407 4.83567C58.4215 3.82668 59.1023 2.91485 60.2844 2.45147C61.3243 2.0404 62.5063 1.93576 63.5761 1.60691C64.0849 1.44995 64.4963 1.27805 65.05 1.34532C65.641 1.42006 66.1647 1.71902 66.7781 1.75639C67.8031 1.81618 68.7906 1.65922 69.7931 1.50974C70.6235 1.38269 71.2744 0.994038 72.0525 0.75487C72.8305 0.515702 73.7806 0.358749 74.6335 0.366223C76.1148 0.381171 77.4764 0.747396 78.8978 1.15099C79.631 1.36026 80.4016 1.48732 81.1273 1.72649C82.1447 2.06282 83.1397 2.45894 84.1796 2.728C85.1447 2.98212 86.1846 2.98212 87.1722 3.15402C88.1597 3.32592 89.1173 3.56509 90.0973 3.74447C91.6535 4.021 93.1871 4.31996 94.7657 4.47692C95.5587 4.55913 96.3293 4.79083 97.1223 4.86557C97.9153 4.94031 98.9328 5.1421 99.7108 5.45601C100.302 5.68771 100.915 5.79234 101.521 5.99414C102.052 6.16604 102.509 6.45753 103.033 6.6369C104.237 7.0405 105.172 7.69821 106.227 8.40076C107.349 9.14816 108.195 10.1422 109.264 10.9569C110.162 11.637 111.112 12.4143 111.673 13.4382C112.309 14.5967 112.347 15.9644 112.691 17.2051C112.848 17.7806 113.035 18.3711 113.042 18.969C113.042 19.7762 113.215 20.5385 113.237 21.3382C113.274 22.5191 113.312 23.7598 113.08 24.9033C112.96 25.4938 113.11 26.0917 112.99 26.6821C112.87 27.2726 112.811 27.8107 112.691 28.3937C112.264 30.4864 110.993 32.1755 109.698 33.8273C109.13 34.5523 108.389 35.1801 107.738 35.8303C106.975 36.5927 106.234 37.3251 105.389 37.9754C105.03 38.2519 104.806 38.5733 104.417 38.8124C103.968 39.089 103.564 39.2833 103.085 39.4926C102.651 39.6869 102.307 39.9784 101.85 40.1428C101.454 40.2848 101.065 40.4343 100.676 40.5763C100.302 40.7108 100.092 40.9052 99.6958 40.9276C99.2544 40.95 98.9627 40.9874 98.5213 41.0696C97.6011 41.249 96.5836 41.7647 96.7632 42.8783C96.8754 43.5958 97.2195 43.5958 97.7507 43.9022C98.0874 44.0966 98.3268 44.3731 98.7233 44.4553C99.0899 44.53 99.4789 44.5824 99.853 44.6496C100.317 44.7318 100.751 44.8738 101.222 44.986C102.008 45.1653 102.756 45.6736 103.422 46.1519C103.766 46.3985 104.028 46.5779 104.409 46.7498C104.626 46.847 104.798 46.8246 105.008 46.974C105.217 47.1235 105.337 47.3776 105.486 47.5794C105.688 47.8634 105.988 48.0802 106.182 48.3493C106.317 48.5436 106.302 48.708 106.414 48.9023C106.579 49.1938 106.803 49.418 106.96 49.7245C107.23 50.2402 107.491 50.726 107.85 51.1894C108.127 51.5406 108.165 51.9143 108.374 52.2955C108.584 52.6767 108.853 53.0504 109.062 53.4615C109.369 54.0594 109.571 54.7619 109.713 55.4122C109.788 55.741 109.706 56.1671 109.698 56.5109C109.698 57.1536 109.9 57.7441 109.9 58.3794C109.9 59.067 109.683 59.6499 109.698 60.3226C109.721 61.2419 109.369 62.1986 109.115 63.0805C108.943 63.6709 108.86 64.2539 108.531 64.792C108.269 65.2106 107.918 65.5693 107.686 66.0028C107.147 67.0193 106.758 68.0806 105.973 68.9476C105.374 69.6053 104.843 70.2705 104.207 70.9058C103.474 71.6382 102.741 72.3707 102.008 73.1031C101.274 73.8356 100.481 74.4559 99.5088 74.9417C98.3866 75.5023 97.2046 76.4739 95.9702 76.7504C94.8405 77.0045 93.7632 77.1839 92.5961 77.1764C91.5487 77.1764 90.5387 77.453 89.5063 77.5651C88.7058 77.6548 87.9652 77.5128 87.1497 77.5651C87.0001 77.5726 86.8654 77.6099 86.7158 77.6249C86.3717 77.6548 86.1547 77.5875 85.8106 77.5651C85.3916 77.5352 85.0549 77.4978 84.651 77.4156C84.1946 77.3259 83.7308 77.3558 83.2819 77.4156C82.7432 77.4904 82.3542 77.3932 81.8081 77.3708C80.7906 77.3184 79.8255 76.9373 78.8081 76.8027C78.3966 76.7504 78.0375 76.6383 77.641 76.5785C77.3043 76.5262 76.9452 76.6458 76.6086 76.5935C76.3318 76.5486 76.1148 76.4141 75.8305 76.3767C75.636 76.3468 75.4265 76.4216 75.232 76.3991C74.7308 76.3319 74.2594 76.0703 73.7732 75.9881C73.6011 75.9582 73.3991 76.0254 73.227 76.0105C72.9427 75.9806 72.6809 75.8461 72.3966 75.8012C71.9627 75.734 71.5138 75.6517 71.0724 75.6144C70.0475 75.5097 68.8953 75.3154 67.9303 74.9716C67.5263 74.8296 67.1223 74.7848 66.7108 74.6801C66.2993 74.5755 65.9851 74.4335 65.5811 74.284C64.8106 74 64.0475 73.8729 63.2694 73.6562C62.5886 73.4619 61.9527 73.2003 61.2719 73.0284C60.4415 72.8191 59.6559 72.4529 58.8629 72.139C57.9727 71.7802 57.1572 71.3168 56.4016 70.7189C55.646 70.121 54.8155 69.5754 54.1048 68.8579C53.5063 68.26 52.848 67.7891 52.242 67.1912C51.5163 66.4737 50.5437 65.5992 50.1323 64.6575C49.833 63.9624 49.6983 63.2076 49.5188 62.49C49.2869 61.5483 48.9577 60.5692 48.9053 59.5976C48.8754 59.0445 48.6958 58.5513 48.7033 57.9832C48.7183 57.333 48.6061 56.8023 48.5088 56.1671C48.3592 55.1805 48.3218 54.2313 48.3218 53.2223C48.3218 51.1669 48.3966 49.149 48.9128 47.1459C49.3467 45.4643 49.6909 43.7752 50.2819 42.101C50.5886 41.234 50.9776 40.2848 51.4564 39.5075C51.7108 39.0964 51.9577 38.7302 52.242 38.3491C52.6535 37.7885 52.8854 37.056 53.222 36.4432C53.7981 35.3819 54.1647 34.1337 55.1746 33.4013C55.6235 33.0724 55.9677 32.6539 56.4016 32.3175C56.6784 32.1008 57.0076 31.9588 57.2919 31.742C57.5911 31.5178 57.8006 31.1665 58.1223 30.9797C58.9677 30.4939 59.7682 29.896 60.4714 29.1859C60.9203 28.73 61.3542 28.2218 61.848 27.8257C62.5063 27.2875 63.3667 27.0035 63.823 26.2412C64.0325 25.8974 64.5263 25.4639 64.6086 25.0678C64.6609 24.8062 64.6235 24.3353 64.5562 24.0887C64.3467 23.3712 63.3293 22.6761 62.6335 22.9153" stroke="black" stroke-miterlimit="10"/>
<path d="M71.8579 30.3445C72.0225 28.334 72.2544 26.2936 72.2469 24.2756C72.2469 23.9393 72.1946 23.573 72.2395 23.2367C72.2918 22.8331 72.4938 22.5341 72.4489 22.1156" stroke="black" stroke-miterlimit="10"/>
<path d="M73.6234 22.706C74.6259 22.1828 75.5985 22.1156 76.7057 22.1156C77.6933 22.1156 78.5835 21.9736 79.5486 22.2576C81.8828 22.9377 84.419 22.1006 86.7681 22.7509C88.3167 23.1769 90.0299 23.8346 91.2569 24.8511C91.9526 25.4191 92.6783 25.9423 93.2319 26.6598C93.8304 27.4371 93.8903 28.5881 93.823 29.5447C93.7107 31.2338 93.1646 33.1397 91.9526 34.3505C91.3616 34.9409 90.7407 35.5314 89.8953 35.6211C89.611 35.651 89.4015 35.7631 89.1172 35.8304C88.6609 35.9275 88.0848 35.7855 87.6135 35.8154C86.7456 35.8752 86.2743 36.1592 85.3766 35.8154C84.6284 35.5314 83.8205 35.4193 83.02 35.4268C82.2195 35.4342 81.4564 35.4268 80.6783 35.4268C79.7357 35.4268 78.8604 35.3072 77.9402 35.2324C77.4314 35.1951 77.0499 34.9335 76.5636 34.8513C76.0773 34.769 75.621 34.7242 75.1422 34.5971C74.7307 34.485 74.394 34.2533 74.0125 34.0964C73.5786 33.917 73.1222 33.9544 72.6808 33.8647C71.8429 33.7003 70.8928 33.0052 71.1097 32.0934C71.1995 31.7047 71.2818 31.3161 71.3641 30.905C71.4314 30.5238 71.3342 29.8885 71.4913 29.5672L71.6559 29.5373" stroke="black" stroke-miterlimit="10"/>
<path d="M68.9178 53.0653C68.5587 52.1012 68.4165 51.4285 68.5288 50.4195C68.5961 49.8141 68.6185 49.1639 68.7607 48.566C68.9253 47.8859 69.2096 47.2431 69.3592 46.5555C69.4864 45.9725 69.6958 45.4194 69.8529 44.8439C70.0624 44.0816 70.1821 42.6092 70.8554 42.0786C71.2594 41.7572 71.9103 41.9067 72.3966 41.9067C72.9352 41.9067 73.4739 41.9067 74.0125 41.9067C75.0599 41.9067 75.9876 42.0786 76.9976 42.2579C78.0824 42.4448 79.1896 42.2355 80.2819 42.4523C80.6335 42.5195 80.9552 42.4822 81.3068 42.4896C81.6584 42.4971 81.9128 42.5868 82.242 42.6466C82.6759 42.7213 83.1173 42.6914 83.5587 42.6914C84.838 42.6914 85.9751 42.7662 87.1422 43.3267C88.0923 43.7826 88.9003 44.3432 89.7008 45.0383C90.1123 45.397 90.5088 45.823 90.8829 46.2192C91.3392 46.705 91.4664 47.2057 91.6983 47.8186C91.8928 48.3343 92.1098 48.8276 92.2968 49.3433C92.5063 49.9113 92.3791 50.1505 92.237 50.6961C92.0051 51.6303 91.9153 52.5422 91.4664 53.4465C90.9427 54.5003 90.1572 55.315 89.1023 55.7485C88.5936 55.9578 88.04 56.1297 87.4864 56.1969C86.9776 56.2642 86.4914 56.3913 85.9677 56.3838C85.5786 56.3838 85.1896 56.3838 84.8006 56.3838C84.247 56.3838 83.8205 56.2717 83.2819 56.182C82.7432 56.0923 82.1821 56.0026 81.6435 55.9877C81.2096 55.9727 80.7083 56.0774 80.2819 55.9503C79.3018 55.6513 78.3891 55.0684 77.3941 54.8142C76.2869 54.5302 75.1497 54.6199 74.0051 54.6199C73.0624 54.6199 72.2918 54.5826 71.4091 54.2836C70.9153 54.1117 70.3991 53.9099 69.9278 53.6931C69.5238 53.5138 68.4839 52.9831 68.5138 52.4674" stroke="black" stroke-miterlimit="10"/>
<path d="M141.479 71.1973C141.045 72.6921 141.838 74.0897 142.003 75.5621C142.137 76.743 143.042 77.9164 143.708 78.8656C144.075 79.3888 144.247 79.9792 144.658 80.48C145.07 80.9808 145.437 81.4292 145.885 81.8776C146.88 82.8792 148.309 83.35 149.634 83.7461C150.958 84.1423 152.297 84.2245 153.606 84.0825C154.833 83.9479 156.262 83.7162 157.317 83.0511C158.372 82.3859 159.142 81.6011 159.928 80.6967C161.05 79.3963 161.888 77.8865 162.412 76.2497C162.808 75.009 163.496 73.731 163.242 72.3857C163.003 71.1226 162.643 69.9043 162.449 68.6262C162.359 68.0358 162.307 67.4454 162.21 66.8624C162.105 66.2196 162.127 65.5918 162.045 64.949C161.963 64.3063 161.783 63.6486 161.686 62.9983C161.581 62.2584 161.626 61.4886 161.491 60.7561C161.387 60.1582 161.402 59.6126 161.364 59.0147C161.327 58.3794 161.155 57.7142 161.042 57.0789C160.833 55.8681 160.998 54.4855 161.005 53.2522C161.005 52.6468 160.87 52.1461 160.826 51.5482C160.788 51.0698 160.885 50.5915 160.796 50.1132C160.586 48.9771 160.549 47.8112 160.354 46.6677C160.16 45.5241 159.554 44.5151 159.015 43.4837C158.671 42.8185 158.574 42.101 158.349 41.3985C158.125 40.6959 157.743 39.9859 157.474 39.2684C157.07 38.2071 156.292 37.4298 155.432 36.6973C154.773 36.1368 154.07 35.6659 153.382 35.1428C152.978 34.8363 152.656 34.4402 152.289 34.0889C151.923 33.7376 151.519 33.4611 151.152 33.1248C149.925 32.0112 148.13 31.772 146.663 31.0919C146.297 30.92 146.005 30.7182 145.624 30.606C145.242 30.4939 144.771 30.3818 144.389 30.2996C144.12 30.2398 143.836 30.322 143.566 30.2697C143.177 30.195 142.758 29.9184 142.392 29.7839C141.718 29.5298 141.165 29.2084 140.439 29.2159C139.983 29.2159 139.616 29.1636 139.175 29.0813C138.591 28.9767 137.97 29.044 137.379 29.044C136.549 29.044 135.688 29.1038 134.858 29.044C134.364 29.0141 133.945 28.8048 133.444 28.8796C132.808 28.9692 132.18 29.1337 131.544 29.2159C130.309 29.3728 129.097 29.6793 127.87 29.8736C126.741 30.053 125.708 30.3519 124.609 30.6584C123.913 30.8527 123.284 31.1068 122.611 31.3534C121.653 31.7047 120.599 31.7346 119.693 32.2578C119.245 32.5194 118.945 32.9604 118.564 33.3042C118.287 33.5508 117.973 33.7601 117.703 34.0217C116.948 34.7691 116.312 35.4641 115.721 36.3461C115.13 37.228 114.486 38.095 114.142 39.0965C113.813 40.0532 113.237 41.2191 113.439 42.2356C113.634 43.1848 113.798 44.119 113.963 45.0757C114.157 46.1744 114.629 47.2805 115.571 47.9457C116.446 48.5586 117.292 48.9846 118.279 49.3359C119.02 49.5975 119.663 50.0534 120.397 50.3374C120.898 50.5317 121.369 50.6214 121.893 50.6438C122.372 50.6662 122.723 50.7784 123.157 50.6887C123.756 50.5691 124.474 50.6214 125.08 50.6887C125.125 50.6887 125.297 50.7709 125.379 50.7858L125.454 50.6812C125.611 50.6588 125.761 50.6812 125.895 50.7784C126.254 50.8381 126.629 50.8531 126.995 50.8232C127.362 50.7933 127.534 50.6064 127.855 50.5018C128.035 50.442 128.192 50.4869 128.379 50.4794C128.798 50.457 129.06 50.2626 129.434 50.1206C130.13 49.8516 130.841 49.8217 131.521 49.5676C132.322 49.2611 133.309 48.6483 134.155 48.6856C134.581 48.7006 134.918 48.581 135.359 48.5511C135.763 48.5212 136.369 48.6408 136.766 48.7305C137.08 48.8052 137.446 48.9248 137.761 49.0369C138.352 49.2387 138.943 49.291 139.549 49.4629C140.252 49.6647 140.379 50.1655 140.806 50.6961C141.12 51.0848 141.516 51.451 141.778 51.8696C142.115 52.3927 142.339 53.2672 142.339 53.8801C142.339 54.4107 142.586 55.6813 141.621 55.3749C141.389 55.3001 141.195 55.1058 140.94 55.0161C140.581 54.889 140.237 54.7097 139.893 54.5378C139.19 54.1865 138.449 54.0295 137.671 53.9697C137.259 53.9398 136.803 53.8875 136.399 53.7605C136.227 53.7007 136.07 53.5886 135.89 53.5288C135.584 53.4316 135.292 53.469 134.978 53.4167C134.387 53.312 133.885 53.1401 133.272 53.1102C132.658 53.0803 132.135 52.9309 131.529 52.9309C131.013 52.9309 130.474 52.9757 129.958 52.9309C129.771 52.9159 129.576 52.8337 129.389 52.8262C129.06 52.8188 128.723 52.9234 128.387 52.9234C127.526 52.9234 126.673 52.9234 125.813 52.9234C124.878 52.9234 123.838 52.7889 122.948 53.0504C120.988 53.6185 118.639 53.4391 116.88 54.5303C116.738 54.6125 116.641 54.762 116.499 54.8442C116.244 55.0086 115.945 55.0161 115.698 55.1805C115.549 55.2777 115.459 55.4421 115.324 55.5468C115.055 55.7486 114.748 55.7859 114.479 56.0101C114.03 56.3913 113.731 56.9145 113.274 57.2882C113.102 57.4302 112.87 57.5348 112.691 57.6694C112.384 57.9011 112.212 58.2 111.958 58.4691C111.629 58.8129 111.225 59.1119 110.985 59.5453C110.783 59.919 110.626 60.4049 110.469 60.801C110.282 61.2868 110.192 61.8324 110.035 62.3331C109.893 62.804 109.594 63.3646 109.541 63.8578C109.496 64.2839 109.713 64.6949 109.736 65.1284C109.751 65.6366 109.766 66.0178 109.87 66.5186C109.975 67.0193 110.035 67.6247 110.095 68.133C110.155 68.6412 110.028 69.1494 110.125 69.6577C110.282 70.4873 110.476 71.3094 110.738 72.1315C111.023 73.021 111.18 74.0673 111.643 74.882C111.92 75.3603 112.347 75.749 112.736 76.1376C113.215 76.6159 113.634 77.1541 114.09 77.6399C114.404 77.9762 114.801 78.2229 115.137 78.5442C115.519 78.9105 115.953 79.2393 116.357 79.5906C117.135 80.2782 118.062 80.779 118.841 81.4666C119.304 81.8776 119.985 82.057 120.509 82.3784C121.16 82.7745 121.87 82.8343 122.596 83.0735C123.92 83.507 125.237 83.4248 126.614 83.4248C128.087 83.4248 129.404 83.2902 130.848 82.9464C131.933 82.6848 132.95 82.2962 134.02 81.9972C134.581 81.8403 135.225 81.474 135.733 81.1676C136.444 80.7416 136.713 80.1213 137.117 79.4486C137.604 78.6414 137.978 77.9015 137.993 76.9299C138 76.4366 138.067 76.1077 138.21 75.6294C138.389 75.0464 138.434 74.4335 138.546 73.8356C138.733 72.8491 139.197 72.2511 139.893 71.5785C140.207 71.2795 140.604 70.9208 141.03 70.7862C141.546 70.6293 141.688 71.0254 142.167 71.0553" stroke="black" stroke-miterlimit="10"/>
<path d="M138.165 57.7739C137.424 57.2806 136.638 56.5557 135.733 56.3688C135.209 56.2567 134.514 56.3688 133.982 56.3763C133.309 56.3763 132.718 56.3314 132.06 56.1595C131.469 56.0026 130.96 55.7709 130.332 55.8905C129.464 56.0549 128.805 56.4734 128.057 56.8995C127.399 57.2732 126.546 57.6394 126.172 58.3345C125.925 58.7904 125.671 59.5303 125.648 60.0385C125.611 60.8308 126.157 61.7949 126.613 62.4003C127.145 63.1178 128.125 63.3944 128.97 63.5663C129.815 63.7382 130.691 63.9175 131.551 64.082C133.055 64.3735 134.843 64.0222 136.309 63.5663C137.461 63.2075 139.07 62.3704 139.376 61.0849C139.541 60.3973 139.526 59.2612 139.07 58.6708C138.771 58.2896 138.239 58.0505 137.858 57.759C137.626 57.5796 137.461 57.3479 137.132 57.4226" stroke="black" stroke-miterlimit="10"/>
<path d="M172.953 70.6068C172.347 65.9132 171.651 61.2868 171.471 56.608C171.456 56.1596 171.292 55.7485 171.262 55.2926C171.239 54.8965 171.299 54.4929 171.284 54.0893C171.239 53.3195 171.082 52.6319 171.09 51.8546C171.097 49.7768 171.217 47.7289 170.94 45.6661C170.828 44.829 170.79 43.9546 170.716 43.11C170.641 42.2654 170.334 41.4508 170.199 40.5987C169.945 38.9918 169.608 37.4372 169.272 35.8453C168.965 34.3804 168.509 32.9005 168.314 31.4282C168.217 30.6957 168.06 30.0081 167.873 29.2906C167.648 28.4311 167.768 27.5566 167.588 26.6822C167.327 25.3593 167.461 24.0214 167.035 22.721C166.683 21.6597 166.354 20.4862 166.234 19.3651C166.13 18.3711 166.317 17.4069 166.1 16.4353C165.883 15.4637 165.748 14.5967 166.1 13.6176C166.923 11.3754 167.401 8.37837 169.549 6.94336C170.371 6.39776 171.254 5.68773 172.204 5.41119C172.631 5.28413 173.08 5.1795 173.506 5.03749C173.933 4.89549 174.337 4.90296 174.808 4.89549C175.758 4.88801 176.581 5.29908 177.471 5.59057C178.474 5.91942 179.357 6.0988 180.404 6.18849C181.451 6.27817 182.603 6.96578 183.344 7.66834C183.913 8.20646 184.174 9.04355 184.504 9.73863C184.885 10.5383 185.125 11.3156 185.386 12.1602C185.678 13.0795 185.805 13.9764 186.03 14.9106C186.254 15.8449 186.658 16.7492 186.883 17.6984C187.062 18.4533 187.16 19.2306 187.347 19.9855C187.586 20.9646 187.833 22.123 187.863 23.1395C187.9 24.3279 187.997 25.4938 188.035 26.6822C188.05 27.0783 188.14 27.4445 188.184 27.8332C188.267 28.4909 188.184 29.1486 188.267 29.8063C188.401 30.9274 188.491 32.041 188.596 33.1621C188.678 34.0515 188.933 34.9409 189.06 35.8229C189.157 36.4731 189.292 37.0635 189.479 37.6988C189.718 38.4911 189.778 39.3132 189.95 40.1279C190.1 40.8603 190.145 41.5928 190.324 42.3178C190.534 43.1623 190.653 44.0368 190.646 44.9112C190.638 46.5032 190.758 48.0428 190.825 49.6124C190.87 50.6288 191.125 51.7126 191.252 52.729C191.424 54.0968 191.588 55.4421 191.581 56.8248C191.581 57.7815 191.746 58.6709 191.775 59.6201C191.82 60.7412 191.805 61.8623 191.985 62.9684C192.165 64.0746 192.434 65.1807 192.651 66.2794C192.823 67.1613 192.965 68.0432 193.115 68.9252C193.257 69.7473 193.16 70.5695 193.294 71.3841C193.421 72.1465 193.436 72.849 193.436 73.6188C193.436 74.7848 193.347 75.9956 193.07 77.1167C192.972 77.5203 192.86 78.0958 192.666 78.462C192.479 78.7983 192.224 78.9553 191.91 79.1571C191.401 79.4859 190.967 79.8372 190.489 80.2034C189.449 80.9882 188.252 81.3769 186.965 81.5861C185.798 81.773 184.601 82.0944 183.419 82.1392C182.805 82.1616 182.312 81.9598 181.751 81.7206C181.085 81.4366 180.471 81.2797 179.783 81.0704C179.334 80.9359 178.953 80.7042 178.534 80.5099C178.317 80.4052 178.032 80.3529 177.823 80.2408C177.501 80.0614 177.284 79.7625 176.992 79.5308C175.878 78.6339 174.726 77.5726 174.187 76.2198C173.701 74.9941 173.199 73.5441 173.117 72.2212C173.087 71.6831 173.005 71.1151 172.885 70.5919C172.766 70.0687 172.481 69.4857 172.556 68.9102" stroke="black" stroke-miterlimit="10"/>
<path d="M202.758 26.1215C201.883 24.9407 200.88 23.685 200.417 22.2949C199.953 20.9047 199.227 19.537 199.631 17.9749C199.998 16.5698 200.177 15.0301 200.888 13.7521C201.239 13.1243 201.621 12.6235 202.062 12.0704C202.661 11.3156 203.327 10.8821 204.067 10.2767C205.047 9.48444 206.297 8.64735 207.606 8.61746C208.773 8.59503 209.806 8.64735 210.935 8.90894C211.855 9.12569 212.776 9.19295 213.658 9.55918C214.481 9.89551 215.2 10.4336 215.888 10.9718C216.187 11.2035 216.389 11.5622 216.718 11.7565C217.047 11.9509 217.511 11.9284 217.803 12.205C218.454 12.8178 219.15 13.7745 219.524 14.5817C219.711 14.9928 219.935 15.4038 220.04 15.8448C220.16 16.3381 220.152 16.8687 220.264 17.3471C220.451 18.1543 220.496 18.9839 220.683 19.806C220.87 20.6282 220.84 21.114 220.504 21.8838C220.122 22.7657 219.726 23.6252 219.299 24.4922C218.828 25.4564 217.661 26.1589 216.763 26.6896C215.708 27.3174 214.623 27.6612 213.509 28.132C212.641 28.4983 211.414 28.7449 210.486 28.7374C209.843 28.7374 209.304 28.7075 208.683 28.5954C208.399 28.5431 208.092 28.5805 207.815 28.5132C207.486 28.431 207.172 28.2442 206.85 28.1246C205.863 27.7733 204.823 27.5267 203.873 27.1081C203.491 26.9437 203.11 26.7344 202.758 26.5177C202.264 26.2187 202.047 25.6881 201.823 25.1948" stroke="black" stroke-miterlimit="10"/>
<path d="M200.342 76.1899C199.93 74.6577 199.968 73.0284 199.968 71.4588C199.968 70.5246 199.953 69.6576 199.826 68.7458C199.683 67.7517 199.788 66.6829 199.788 65.6814C199.788 63.8279 200.095 62.0267 200.17 60.188C200.2 59.3809 200.117 58.5811 200.2 57.774C200.334 56.5333 200.424 55.2851 200.574 54.0519C200.656 53.3493 200.806 52.6393 200.955 51.9442C201.112 51.1968 201.09 50.5092 201.09 49.7544C201.09 48.4016 201.217 46.989 200.948 45.6661C200.85 45.1803 200.933 44.6795 200.91 44.1862C200.895 43.6332 200.641 43.095 200.701 42.542C200.761 42.0188 200.88 41.6077 200.895 41.0621C200.91 40.5539 201.03 40.0382 201.135 39.5374C201.299 38.7227 201.075 37.7212 201.404 36.9664C201.576 36.5628 201.801 36.219 201.965 35.8079C202.16 35.3296 202.339 34.8213 202.564 34.3579C203.028 33.4312 203.865 32.5866 204.539 31.8168C205.212 31.047 205.826 30.8601 206.768 30.4789C207.157 30.322 207.561 30.0903 207.98 30.023C208.332 29.9632 208.788 30.0305 209.14 30.0305C210.075 30.0305 211.107 29.9184 212.035 30.0753C213.846 30.3818 215.716 31.189 216.928 32.6314C217.541 33.3639 217.983 34.4252 218.417 35.2847C218.851 36.1442 219.105 37.1009 219.397 37.9903C219.763 39.1114 219.86 40.2026 220.055 41.3536C220.175 42.0487 220.115 42.7363 220.242 43.4388C220.354 44.0442 220.279 44.687 220.279 45.3073C220.279 45.7931 220.167 45.9725 220.085 46.4135C220.018 46.7872 220.092 47.258 220.092 47.6317C220.092 48.6706 220.033 49.6796 219.89 50.711C219.606 52.7589 219.718 54.8516 219.389 56.8845C219.314 57.3704 219.404 57.8487 219.307 58.3345C219.18 58.9474 219.052 59.5752 218.978 60.203C218.851 61.2643 218.671 62.3181 218.461 63.357C218.252 64.3959 218.491 65.4946 218.432 66.5335C218.402 67.0716 218.23 67.5126 218.237 68.0582C218.237 68.5514 218.237 69.0447 218.237 69.5455C218.237 70.3377 218.237 71.1374 218.237 71.9297C218.237 72.7743 218.409 73.559 218.432 74.3961C218.439 74.7922 218.297 75.2182 218.245 75.5994C218.192 75.9806 218.072 76.3842 217.968 76.7654C217.833 77.2512 217.504 77.6024 217.347 78.0658C217.16 78.6413 216.86 79.1047 216.651 79.6727C216.299 80.6145 215.648 81.4964 214.893 82.1616C214.092 82.8641 213.052 82.9987 212.08 83.2378C211.309 83.4247 210.367 83.6414 209.634 83.5069C209.192 83.4247 208.796 83.4247 208.369 83.2752C207.905 83.1183 207.442 82.9314 206.97 82.8044C206.102 82.5652 205.235 82.6324 204.449 82.1167C203.574 81.5412 203.02 80.5547 202.407 79.74C202.107 79.3439 201.816 78.9851 201.471 78.6264C201.09 78.2303 200.94 77.8192 200.723 77.3259C200.402 76.586 200.544 75.7041 200.544 74.9043" stroke="black" stroke-miterlimit="10"/>
<path d="M13.3317 98.6567C12.4714 98.7091 11.4988 98.7315 10.646 98.881C10.0923 98.9781 9.59857 99.2472 9.03747 99.3369C8.10979 99.4789 7.11478 99.1724 6.28436 98.7539C5.27438 98.2382 4.23448 97.7897 3.17962 97.3712C2.35668 97.0423 1.83299 96.5416 1.45144 95.7195C0.987598 94.7329 0.688347 93.7015 0.576127 92.6177C0.433982 91.1977 0.194581 89.8 0.576127 88.3949C0.957673 86.9898 1.06989 85.7118 1.53373 84.3964C1.99757 83.0809 2.69333 81.9225 3.23947 80.6519C4.19707 78.4545 5.9851 76.0404 8.30431 75.166C9.71079 74.6353 11.1173 74.8521 12.5612 74.6652C13.3093 74.5681 14.0051 74.5382 14.7681 74.5232C15.6285 74.5083 16.4664 74.2691 17.3268 74.3139C18.6584 74.3812 19.9676 74.6727 21.2844 74.8595C22.3617 75.0165 23.5213 74.9044 24.6061 74.8969C24.9577 74.8969 25.2494 74.9119 25.5861 74.9941C26.1622 75.1286 26.7158 75.0912 27.3143 75.0912C28.2195 75.0912 29.0275 75.0613 29.8878 75.3304C30.6061 75.5546 31.1297 75.5023 31.8704 75.4799C32.2893 75.4649 32.6634 75.308 33.0749 75.2781C33.5312 75.2407 33.9951 75.3304 34.4514 75.3827C36.2844 75.592 38.2519 75.6667 39.9652 76.4216C40.4739 76.6458 40.9452 76.9448 41.4913 77.0868C42.0001 77.2138 42.5387 77.2138 43.0549 77.326C44.2893 77.5875 45.5686 77.9239 46.7657 78.32C48.1647 78.7909 49.3467 79.7475 50.5362 80.5921C51.6285 81.3694 52.6983 82.1018 53.5886 83.1034C54.232 83.8283 54.823 84.501 55.6011 85.0989C56.6335 85.8912 57.5387 86.9151 58.444 87.8344C59.3492 88.7537 60.1721 89.9421 60.7332 91.0706C60.9801 91.5639 61.1672 92.0871 61.3991 92.5953C61.6834 93.2231 61.7282 93.8809 62.0574 94.4937C62.3193 94.9795 62.3866 95.4728 62.5512 95.9885C62.7233 96.5416 62.9103 97.0349 63.0524 97.5954C63.1946 98.156 63.5163 98.5895 63.636 99.1949C63.7407 99.7479 63.9427 100.226 64.1073 100.757C64.444 101.856 64.848 102.917 65.1771 104.016C65.5287 105.189 65.7382 106.43 66.0599 107.611C66.3367 108.627 66.5387 109.658 66.7706 110.69C67.0026 111.721 66.823 112.7 66.8155 113.694C66.808 114.546 67.01 115.346 67.01 116.213C67.01 117.08 67.0998 117.977 66.8754 118.822C66.6659 119.606 66.5686 120.376 66.3068 121.146C65.9028 122.304 65.3567 123.373 65.0649 124.569C64.8031 125.638 64.4664 126.684 64.1597 127.738C63.9278 128.538 63.5686 129.278 63.5911 130.122C63.6061 130.907 63.3816 131.789 63.1721 132.551C62.9253 133.456 62.4016 134.173 61.8854 134.921C61.3317 135.72 60.8455 136.58 60.217 137.297C59.8355 137.738 59.611 138.194 59.1696 138.59C58.818 138.904 58.4739 139.308 58.0774 139.554C57.5013 139.906 56.8056 139.995 56.2445 140.392C55.5711 140.87 54.8903 141.333 54.2245 141.827C53.813 142.133 53.3342 142.327 52.9228 142.626C52.616 142.85 52.3991 143.157 52.0774 143.351C51.8754 143.471 51.636 143.575 51.419 143.673C50.9776 143.874 50.6634 144.136 50.2594 144.39C49.8554 144.644 49.3691 144.876 48.9352 145.07C48.4714 145.28 47.9552 145.265 47.4764 145.429C46.414 145.803 45.2619 145.945 44.1771 146.244C43.3467 146.468 42.5537 146.655 41.7158 146.812C41.1696 146.916 40.7507 146.954 40.1896 146.954C39.6285 146.954 39.0898 147.133 38.5213 147.155C37.6385 147.193 36.7856 147.208 35.9103 147.312C35.035 147.417 34.1372 147.29 33.2619 147.327C32.8654 147.342 32.5661 147.477 32.1921 147.581C31.818 147.686 31.6759 147.619 31.3243 147.552C30.4564 147.38 29.5512 147.133 28.6684 147.141C28.0699 147.141 27.4714 147.141 26.8804 147.141C26.1921 147.141 25.616 146.946 24.9203 146.954C23.5437 146.961 22.0624 146.857 20.7307 146.528C19.9452 146.333 19.3093 146.049 18.5761 145.713C17.6933 145.309 16.7657 145.093 15.9203 144.584C15.2544 144.181 14.7008 143.613 14.0724 143.149C13.3018 142.581 12.4564 142.133 11.8205 141.393C11.5587 141.087 11.3791 140.773 11.0799 140.489C10.7582 140.19 10.3841 139.943 10.1148 139.592C9.44895 138.732 8.89533 137.783 8.22201 136.916C7.5487 136.049 7.09982 135.384 6.68835 134.397C6.24695 133.344 6.12725 132.058 5.88037 130.937C5.61852 129.756 5.45393 128.463 5.64845 127.267C5.8654 125.929 5.81303 124.42 5.64845 123.074C5.51378 122.02 5.55119 120.967 5.55119 119.905C5.55119 118.844 5.7457 117.783 5.73822 116.706C5.73822 115.862 5.73822 115.07 5.88785 114.233C6.03747 113.395 6.21702 112.588 6.31428 111.774C6.41902 110.899 6.71079 109.995 7.07737 109.195C7.33174 108.627 7.44396 108.007 7.75817 107.476C8.10231 106.893 8.45393 106.265 8.88785 105.764C9.11229 105.503 9.26191 105.249 9.36665 104.935C9.53872 104.397 9.82301 104.135 10.1896 103.702C10.7657 103.029 11.3866 102.454 12.0749 101.9C12.5238 101.542 12.6584 101.048 12.9352 100.563C13.1223 100.234 13.1746 100.032 13.1821 99.6508C13.1821 99.4415 13.0549 99.0454 13.3691 99.0379" stroke="black" stroke-miterlimit="10"/>
<path d="M25.1296 124.517C23.768 122.274 24.1869 119.442 24.0822 116.908C24.0298 115.69 24.0598 114.449 23.8428 113.246C23.7381 112.678 23.8428 112.11 23.8129 111.542C23.783 110.974 23.6109 110.451 23.6109 109.89C23.5959 107.745 23.6857 105.682 23.0947 103.604C22.7206 102.274 22.2642 100.869 22.2792 99.4713C22.2942 98.0737 21.7256 96.5639 22.6608 95.3457C23.0423 94.8449 23.7755 94.8225 24.3665 94.7104C25.0997 94.5684 26.2368 94.531 26.97 94.6805C27.3141 94.7478 27.5834 94.8972 27.9426 94.8674C28.3765 94.8375 28.773 94.6132 29.1919 94.5161C29.7381 94.389 30.3815 94.1723 30.9426 94.2993C31.2343 94.3666 31.4887 94.5684 31.8029 94.6282C32.1171 94.688 32.379 94.673 32.6782 94.7552C33.4937 94.9795 34.0922 95.2336 34.945 95.2411C35.6707 95.2411 36.2917 94.9122 37.0248 95.1364C37.758 95.3606 38.581 95.697 39.2393 96.0931C40.4887 96.848 41.6782 97.5505 42.6657 98.6567C43.2717 99.3368 43.8553 99.9198 44.2817 100.742C44.7381 101.624 45.3216 102.498 45.7181 103.403C46.0623 104.187 46.1745 105.099 46.4214 105.921C46.6907 106.826 46.9974 107.797 47.1919 108.724C47.364 109.554 47.2219 110.51 47.2293 111.355C47.2368 112.259 47.0722 113.179 46.8927 114.061C46.8179 114.442 46.9076 114.83 46.8328 115.212C46.7805 115.473 46.6757 115.742 46.6084 116.004C46.4288 116.706 46.2343 117.454 45.9051 118.097C45.7032 118.485 45.4338 118.836 45.2243 119.218C45.0523 119.524 44.9775 119.868 44.768 120.144C44.2443 120.832 43.6159 121.452 43.0398 122.095C42.5834 122.603 41.9401 122.955 41.3266 123.336C40.773 123.68 40.0772 123.627 39.5012 123.866C38.6932 124.203 37.9376 124.569 37.0997 124.846C36.7406 124.965 36.3515 125.002 35.9924 125.122C35.6782 125.227 35.4912 125.429 35.147 125.466C34.8628 125.496 34.5785 125.421 34.2942 125.473C33.9051 125.541 33.5386 125.75 33.1495 125.84C32.8129 125.922 32.5136 126.094 32.1919 126.183C31.9376 126.251 31.6907 126.221 31.4363 126.266C30.8229 126.385 30.0972 126.281 29.4313 126.124C28.9151 126.004 28.354 125.832 27.8229 125.84C27.1346 125.847 26.551 125.78 25.9151 125.466C25.2792 125.152 24.2917 124.315 24.3964 123.553" stroke="black" stroke-miterlimit="10"/>
<path d="M69.5088 132.065C69.5163 130.668 69.5088 129.203 69.3816 127.813C69.3218 127.133 69.4041 126.438 69.2993 125.765C69.2096 125.174 69.1647 124.629 69.1647 124.023C69.1647 122.977 69.1647 121.931 69.1647 120.884C69.1647 119.614 68.9926 118.373 68.9926 117.095C68.9926 115.817 68.8505 114.561 69.03 113.351C69.2096 112.14 69.1647 111.064 69.1647 109.898C69.1647 108.859 69.2245 107.797 69.1722 106.759C69.1422 106.176 68.9851 105.637 68.9926 105.047C68.9926 104.524 68.9926 104.001 68.9926 103.477C68.9926 103.149 68.9926 102.82 68.9926 102.498C68.9926 102.177 68.8879 101.96 68.8579 101.661C68.7831 100.944 68.9926 100.137 68.9926 99.4041C68.9926 98.7689 68.9776 98.1261 68.9926 97.4908C69.0001 97.0872 69.1048 96.8256 69.217 96.437C69.3741 95.854 69.2919 95.3084 69.3517 94.7254C69.3966 94.3069 69.4714 93.8584 69.5462 93.4399C69.621 93.0214 69.636 92.6477 69.7108 92.2515C69.8978 91.2799 70.1223 90.3905 70.6086 89.516C71.5587 87.8045 72.9053 86.1976 74.626 85.1961C75.3367 84.7775 76.2046 84.501 77.0051 84.3067C77.3866 84.217 77.7607 84.0825 78.1497 84.0451C78.5163 84.0077 78.8455 84.1049 79.2195 84.0974C79.7956 84.0899 80.3941 84.359 80.9702 84.4786C81.3068 84.5533 81.6659 84.6206 81.9951 84.7252C82.3841 84.8598 82.6011 85.1438 82.9677 85.2932C83.2894 85.4278 83.4614 85.4876 83.7308 85.7043C84.015 85.9435 84.3068 86.0257 84.5986 86.235C84.8155 86.3919 85.0026 86.6236 85.1896 86.8179C85.4739 87.1094 85.8255 87.3112 86.1098 87.5952C86.6335 88.1109 87.0674 88.9256 87.4938 89.5385C87.8754 90.0916 88.0774 90.7792 88.3018 91.407C88.4814 91.9152 88.5338 92.4832 88.6834 93.0139C88.833 93.5445 88.8031 94.1051 88.9303 94.6357C89.0425 95.0991 89.237 95.697 89.5437 96.0782C90.1123 96.7808 90.5013 96.8331 91.1597 96.1679C91.6609 95.6597 91.6011 95.1215 91.7432 94.4638C91.9452 93.5595 92.4465 92.7523 92.8505 91.9003C93.2544 91.0482 93.651 90.256 94.227 89.5385C94.8031 88.821 95.3342 87.8494 96.1198 87.3187C97.5861 86.3321 99.1123 85.069 100.863 84.6355C101.791 84.4038 102.808 84.2768 103.766 84.2469C104.633 84.217 105.449 84.5458 106.317 84.6056C106.818 84.6355 107.207 84.5384 107.686 84.7551C108.03 84.9121 108.367 85.0989 108.696 85.2708C109.287 85.5847 109.781 85.9136 110.409 86.1677C110.693 86.2798 111.037 86.4069 111.262 86.6161C111.561 86.8927 111.711 87.371 111.935 87.7073C112.354 88.3277 112.87 88.8658 113.297 89.4787C114 90.5026 114.591 92.0273 114.666 93.2755C114.688 93.7239 114.666 94.1873 114.666 94.6357C114.666 95.1365 114.838 95.5401 114.838 96.0334C114.838 96.6462 114.838 97.2516 114.838 97.8645C114.838 98.5297 114.763 98.9856 114.546 99.6134C114.269 100.406 113.738 101.108 113.304 101.826C112.87 102.543 112.511 103.074 111.95 103.642C111.284 104.315 110.723 105.271 109.855 105.705C109.19 106.041 108.322 106.176 107.596 106.198C106.99 106.22 106.414 106.504 105.816 106.542C105.217 106.579 104.776 106.96 104.192 106.886C103.953 106.856 103.811 106.759 103.594 106.661C103.332 106.542 103.055 106.512 102.786 106.415C102.202 106.213 101.506 106.041 100.968 105.75C100.489 105.495 99.9652 105.271 99.4939 105.002C99.2619 104.868 99.0749 104.763 98.8205 104.666C98.4839 104.531 98.3492 104.307 98.0574 104.09C96.8978 103.208 95.7831 102.274 94.9976 101.019C94.5786 100.353 94.1298 100.234 93.3741 100.241C92.5512 100.241 91.4066 100.077 90.7258 100.66C90.3218 101.011 90.0674 101.422 89.9178 101.938C89.6859 102.738 89.252 103.433 89.02 104.24C88.7432 105.196 88.9826 106.333 89.0874 107.289C89.2146 108.41 89.3642 109.502 89.439 110.623C89.4689 111.034 89.5886 111.415 89.6185 111.826C89.6485 112.327 89.7008 112.835 89.8131 113.328C89.8953 113.702 89.9627 113.986 89.9627 114.367C89.9627 114.98 90.1273 115.443 90.0076 116.071C89.7308 117.454 90.1048 118.926 89.8355 120.309C89.7532 120.742 89.8131 121.168 89.7083 121.602C89.5662 122.215 89.2819 122.783 89.1098 123.388C88.8929 124.158 88.7956 125.018 88.7806 125.81C88.7732 126.198 88.631 126.535 88.5936 126.916C88.5712 127.215 88.6385 127.506 88.5936 127.805C88.4365 128.732 88.0175 129.621 87.8006 130.533C87.5911 131.385 87.1722 132.095 86.8205 132.895C86.4091 133.844 85.833 134.726 84.9801 135.294C83.7158 136.146 82.0924 137.477 80.4315 137.125C79.9527 137.028 79.5487 136.991 79.0624 136.998C78.5761 137.006 78.1647 136.841 77.7008 136.819C76.8779 136.782 76.0998 136.58 75.3068 136.363C74.8579 136.236 74.8056 136.094 74.4764 135.802C74.1472 135.511 73.7582 135.489 73.3916 135.302C72.6884 134.936 71.9627 134.614 71.3567 134.083C71.0425 133.807 70.8405 133.381 70.5412 133.082C70.3243 132.858 70.0624 132.663 69.8904 132.402C69.6734 132.065 69.0973 131.363 69.5163 131.042" stroke="black" stroke-miterlimit="10"/>
<path d="M132.786 109.008C134.297 109.419 135.89 109.374 137.431 109.711C138.292 109.898 139.1 110.152 139.968 110.294C140.985 110.458 142.04 110.294 143.042 110.518C144.045 110.742 145.077 111.019 146.102 111.191C148.317 111.572 150.471 112.117 152.731 112.11C153.067 112.11 153.411 112.11 153.748 112.11C154.204 112.11 154.601 111.99 155.05 111.96C155.469 111.938 155.903 111.968 156.322 111.96C156.808 111.96 157.242 112.11 157.736 112.102C158.11 112.102 158.484 112.117 158.858 112.102C159.344 112.088 159.576 111.893 159.98 111.676C160.758 111.258 161.469 110.899 162.097 110.271C162.569 109.8 163.04 109.367 163.332 108.762C163.728 107.947 164.005 107.102 164.177 106.198C164.274 105.697 164.207 105.122 164.207 104.614C164.207 104.105 164.274 103.717 164.334 103.238C164.454 102.349 164.387 101.295 164.207 100.421C164.005 99.449 163.923 98.5147 163.496 97.6029C163.354 97.3039 163.264 97.005 163.077 96.7285C162.808 96.3174 162.471 95.9586 162.224 95.5251C161.91 94.9945 161.469 94.5909 161.102 94.0901C160.676 93.4997 160.16 92.984 159.696 92.4309C159.232 91.8778 158.529 91.5415 157.968 91.1304C157.668 90.9137 157.362 90.7418 157.085 90.4951C156.935 90.3681 156.771 90.2709 156.621 90.1439C156.397 89.9645 156.359 89.8225 156.172 89.6057C155.925 89.3217 155.559 89.1648 155.267 88.9406C154.998 88.7388 154.736 88.4697 154.444 88.2978C153.778 87.9091 153.037 87.5952 152.327 87.2888C151.579 86.9599 150.756 86.6012 149.97 86.3695C149.469 86.22 148.938 86.1826 148.436 86.0182C148.13 85.9211 147.89 85.9584 147.576 85.9211C146.88 85.8463 146.214 85.5922 145.526 85.4726C145.077 85.3979 144.636 85.2858 144.202 85.1662C143.686 85.0317 143.177 85.0616 142.653 85.0616C141.733 85.0616 140.805 85.1961 139.9 85.0989C139.549 85.0616 139.205 85.0616 138.853 85.0616C138.344 85.0616 137.791 85.1662 137.297 85.0989C136.728 85.0242 136.152 85.0765 135.584 85.0242C135.254 84.9943 134.955 85.069 134.618 85.0616C134.259 85.0616 133.878 85.0167 133.526 85.0914C132.973 85.211 132.404 85.2185 131.843 85.3456C131.035 85.5175 130.152 85.9734 129.524 86.504C128.843 87.0795 128.057 87.2739 127.264 87.6251C126.307 88.0511 125.454 88.6939 124.623 89.3217C123.95 89.83 123.18 90.2186 122.476 90.6895C122.11 90.9361 121.691 91.123 121.347 91.3845C121.003 91.6461 120.801 92.0273 120.509 92.3337C119.11 93.8211 118.19 95.6821 117.359 97.5207C116.798 98.7614 116.259 100.01 115.751 101.273C115.556 101.766 115.377 102.259 115.19 102.752C114.943 103.403 114.539 104.045 114.374 104.718C114.269 105.167 114.067 105.578 113.948 106.019C113.798 106.564 113.701 107.147 113.604 107.7C113.387 108.919 113.214 110.122 113.214 111.363C113.214 112.603 113.214 113.807 113.214 115.025C113.2 116.37 113.648 117.641 113.955 118.926C114.202 119.965 114.591 120.959 115.047 121.923C115.444 122.76 115.803 123.605 116.177 124.449C116.469 125.122 116.978 125.6 117.374 126.206C117.771 126.811 118.204 127.581 118.706 128.112C119.035 128.456 119.431 128.71 119.738 129.091C119.985 129.405 120.172 129.756 120.486 130.01C121.137 130.533 121.825 131.019 122.461 131.557C122.746 131.804 123.067 131.879 123.397 132.043C123.86 132.275 124.182 132.656 124.631 132.903C124.998 133.104 125.394 133.314 125.791 133.463C126.142 133.598 126.509 133.62 126.868 133.702C127.152 133.762 127.339 133.897 127.594 134.024C127.87 134.166 128.2 134.196 128.476 134.33C128.783 134.472 129.082 134.696 129.389 134.861C129.711 135.033 129.95 135.324 130.272 135.489C130.444 135.578 130.631 135.608 130.803 135.705C131.027 135.825 131.2 135.997 131.431 136.101C132.254 136.46 133.182 136.744 134.072 136.834C134.731 136.901 135.359 136.939 136.017 136.968C136.616 136.998 137.17 137.208 137.738 137.365C138.853 137.678 139.99 137.82 141.15 137.82C141.98 137.82 142.825 137.723 143.656 137.783C144.419 137.843 145.294 137.925 146.057 137.798C147.322 137.581 148.511 137.133 149.791 136.961C150.314 136.894 150.786 136.864 151.302 136.841C151.9 136.819 152.514 136.632 153.105 136.535C153.524 136.468 153.965 136.363 154.369 136.243C154.833 136.109 155.08 135.72 155.491 135.489C156.382 134.995 157.287 134.524 157.953 133.732C158.185 133.463 158.349 133.149 158.596 132.888C158.895 132.559 159.045 132.335 159.187 131.909C159.329 131.483 159.554 131.146 159.718 130.75C160.003 130.07 159.988 129.36 160.175 128.65C160.384 127.85 160.556 126.961 160.564 126.139C160.564 125.668 160.594 125.189 160.496 124.726C160.436 124.442 160.347 124.173 160.309 123.889C160.257 123.463 160.309 123.044 160.145 122.633C159.808 121.751 159.389 120.817 158.865 120.032C158.387 119.315 157.661 118.739 157.055 118.126C156.015 117.08 154.377 116.467 152.918 116.422C151.975 116.393 151.055 116.131 150.105 116.138C149.604 116.138 149.11 116.138 148.608 116.138C148.07 116.138 147.554 116.049 147.03 116.026C146.14 115.989 145.249 116.146 144.352 116.138C143.873 116.138 143.387 116.109 142.915 116.131C142.294 116.161 141.741 116.31 141.112 116.28C140.723 116.265 140.387 116.123 139.998 116.131C139.481 116.131 139.062 116.109 138.554 116.026C137.574 115.862 136.594 115.795 135.628 115.533C134.985 115.354 134.259 115.271 133.653 114.98C133.332 114.823 133.032 114.569 132.733 114.375C132.389 114.143 131.993 114.008 131.671 113.747C131.446 113.56 131.057 113.343 130.9 113.119C130.803 112.977 130.848 112.827 130.803 112.663C130.758 112.521 130.638 112.372 130.579 112.237C130.324 111.661 130.152 110.884 130.294 110.256C130.444 109.599 130.803 109.143 131.506 108.986C131.731 108.933 131.993 108.956 132.224 108.963C132.516 108.971 132.793 109.135 133.077 109.105" stroke="black" stroke-miterlimit="10"/>
<path d="M132.643 105.914C133.451 106.138 134.237 106.116 135.037 106.265C135.838 106.415 136.691 106.385 137.506 106.46C138.322 106.534 139.025 106.631 139.796 106.788C140.521 106.938 141.224 107.162 141.935 107.356C142.489 107.506 143.087 107.61 143.663 107.596C144.022 107.596 144.329 107.693 144.658 107.715C144.928 107.73 145.062 107.648 145.317 107.708C146.125 107.88 147.105 107.745 147.935 107.745C148.324 107.745 148.691 107.797 149.027 107.551C149.469 107.222 149.521 106.654 149.424 106.168C149.327 105.682 148.833 105.144 148.504 104.74C148.002 104.12 147.352 103.604 146.805 103.029C146.312 102.513 145.698 102.192 145.085 101.833C144.756 101.639 144.426 101.572 144.052 101.482C143.611 101.377 143.2 101.183 142.758 101.086C142.047 100.936 141.344 100.861 140.641 100.667C139.99 100.488 139.122 100.48 138.456 100.6C136.938 100.861 135.292 101.175 134.02 102.11C133.451 102.528 132.965 103.328 132.673 103.978C132.449 104.479 132.195 105.353 132.389 105.899L132.509 105.914" stroke="black" stroke-miterlimit="10"/>
<path d="M200.125 131.991C200.327 132.738 200.491 133.538 200.806 134.248C200.993 134.674 201.262 135.033 201.486 135.436C201.726 135.862 201.845 136.348 202.085 136.774C202.347 137.237 202.751 137.641 203.14 138.007C203.895 138.702 204.606 139.689 205.541 140.115C206.768 140.675 208.122 141.027 209.469 141.019C210.651 141.012 211.855 141.184 212.955 140.72C214.526 140.063 215.91 139.263 217.302 138.291C218.192 137.663 219.037 136.924 219.554 135.974C220.07 135.025 219.853 133.904 219.711 132.873C219.643 132.364 219.726 131.923 219.591 131.415C219.501 131.086 219.449 130.765 219.367 130.436C219.112 129.405 218.701 128.418 218.439 127.394C217.848 125.13 217.294 122.857 216.913 120.548C216.733 119.449 216.584 118.358 216.352 117.267C216.082 116.041 216.082 114.793 215.925 113.552C215.768 112.312 215.581 111.206 215.491 110.01C215.409 108.911 215.117 107.715 214.661 106.706C214.466 106.273 214.294 105.779 214.175 105.316C214.047 104.83 213.883 104.419 213.718 103.948C213.367 102.939 213.15 101.871 212.783 100.862C212.521 100.144 212.177 99.5984 211.728 98.9856C211.436 98.582 211.137 98.3054 210.816 97.9317C210.494 97.558 210.337 97.0797 209.963 96.7209C209.349 96.1305 208.773 95.555 208.115 95.0169C207.786 94.7478 207.412 94.4563 207.097 94.1723C206.716 93.821 206.274 93.6043 205.893 93.268C205.182 92.6476 204.292 92.2963 203.446 91.8703C202.489 91.3845 201.464 91.1603 200.476 90.7492C199.392 90.3008 198.262 90.1438 197.117 89.9196C195.673 89.6281 194.334 89.4338 192.86 89.6505C192.135 89.7627 191.387 89.8075 190.676 89.9869C189.853 90.1962 189.082 90.4278 188.229 90.525C187.474 90.6147 186.718 90.6147 185.97 90.7716C185.155 90.9435 184.377 91.1752 183.554 91.3023C182.446 91.4817 181.347 91.6835 180.247 91.8629C179.633 91.96 179.14 92.2067 178.564 92.401C178.272 92.4981 177.98 92.5131 177.688 92.5804C177.269 92.67 176.888 92.8494 176.491 92.9989C175.466 93.3726 174.554 93.7164 173.783 94.5012C173.431 94.8599 173.013 95.1888 172.721 95.5924C172.601 95.7643 172.541 95.9661 172.392 96.1305C172.19 96.3547 172.003 96.4818 171.816 96.7209C170.835 97.9915 169.713 99.0229 168.382 99.9273C166.661 101.093 166.474 103.283 166.811 105.196C166.893 105.645 166.818 106.093 166.915 106.542C167.013 107.028 167.215 107.304 167.446 107.738C167.678 108.171 167.91 108.545 168.202 108.918C168.531 109.345 168.83 109.83 169.212 110.197C169.93 110.877 170.394 111.759 171.097 112.461C171.853 113.209 172.848 113.784 173.88 114.038C174.913 114.292 175.885 114.524 176.903 114.517C177.726 114.517 178.407 114.345 179.185 114.068C180.224 113.694 181.302 113.44 182.364 113.134C183.09 112.925 183.771 112.469 184.496 112.229C185.222 111.99 185.993 111.878 186.718 111.512C187.04 111.348 187.354 111.273 187.661 111.071C188.035 110.824 188.222 110.593 188.641 110.466C189.277 110.271 189.943 109.965 190.609 109.86C191.155 109.778 191.641 109.718 192.217 109.711C192.89 109.711 193.751 109.898 194.372 110.197C194.723 110.368 195.127 110.496 195.464 110.697C195.965 110.989 196.264 111.497 196.676 111.886C197.087 112.274 197.207 112.798 197.424 113.313C197.806 114.233 197.626 115.167 196.683 115.578C196.384 115.705 195.95 115.817 195.621 115.862C195.254 115.907 194.895 115.75 194.529 115.735C194.005 115.712 193.796 115.6 193.332 115.354C192.898 115.129 192.329 115.032 191.85 114.905C190.96 114.666 190.227 114.472 189.292 114.524C188.753 114.554 188.259 114.666 187.713 114.681C187.025 114.696 186.292 114.793 185.596 114.853C184.324 114.957 183 115.017 181.743 115.249C180.486 115.481 179.252 115.428 178.07 115.81C177.389 116.026 176.678 116.228 176.027 116.527C175.429 116.804 174.86 117.155 174.247 117.409C173.102 117.887 171.95 118.523 171.172 119.502C170.469 120.391 169.863 121.266 169.249 122.215C168.92 122.73 168.554 123.306 168.344 123.889C168.105 124.547 168.127 125.264 168.015 125.937C167.85 126.893 167.738 127.88 167.611 128.844C167.469 129.898 167.536 131.176 167.888 132.178C168.195 133.052 168.486 134.009 168.868 134.846C169.324 135.847 169.99 136.774 170.274 137.858C170.506 138.747 170.776 139.644 171.284 140.414C171.584 140.862 171.801 141.027 172.234 141.318C172.623 141.572 172.938 141.968 173.312 142.253C174.195 142.933 174.988 143.77 175.885 144.405C176.783 145.04 177.771 145.496 178.698 145.982C179.042 146.161 179.417 146.214 179.798 146.311C180.21 146.423 180.554 146.587 180.988 146.587C181.474 146.587 182.013 146.475 182.499 146.386C183.067 146.281 183.628 146.333 184.19 146.236C184.638 146.161 185.072 146.154 185.514 146.087C185.753 146.049 185.955 145.975 186.202 145.967C186.479 145.96 186.733 145.989 187.018 145.937C187.504 145.855 188.02 145.847 188.491 145.683C189.075 145.474 189.628 145.197 190.182 144.921C190.556 144.734 190.923 144.547 191.282 144.323C191.656 144.076 192.037 143.957 192.412 143.732C192.786 143.508 193.04 143.097 193.347 142.813C193.818 142.372 194.357 141.976 194.865 141.58C195.681 140.937 196.16 140.197 196.407 139.211C196.519 138.762 196.571 138.284 196.706 137.835C196.84 137.387 197.042 136.998 197.125 136.527C197.237 135.9 197.177 135.279 197.304 134.651C197.431 134.024 197.656 133.321 197.88 132.731C198.067 132.222 198.367 131.43 198.965 131.363C199.249 131.333 199.594 131.423 199.84 131.565C200.035 131.677 200.559 131.931 200.589 132.133" stroke="black" stroke-miterlimit="10"/>
<path d="M195.007 119.053C194.357 118.881 193.713 118.605 193.047 118.485C192.382 118.366 191.618 118.455 190.938 118.455C190.309 118.455 189.628 118.381 189.015 118.485C188.633 118.552 188.319 118.59 187.93 118.597C187.511 118.597 187.227 118.732 186.845 118.904C186.209 119.18 185.439 119.337 184.908 119.808C184.511 120.159 184.107 120.585 183.853 121.049C183.628 121.46 183.501 121.938 183.292 122.364C183.052 122.85 183.007 123.612 183.127 124.143C183.277 124.786 183.928 125.301 184.451 125.645C185.14 126.094 185.798 126.131 186.584 126.124C187.287 126.124 187.953 126.064 188.648 125.982C188.918 125.944 189.165 125.832 189.441 125.817C189.741 125.802 190.04 125.855 190.339 125.817C191.379 125.675 192.554 125.578 193.519 125.144C194.484 124.711 195.419 124.068 195.995 123.134C196.13 122.925 196.302 122.745 196.414 122.521C196.519 122.312 196.496 122.14 196.556 121.916C196.646 121.557 196.691 121.258 196.676 120.869C196.661 120.279 196.204 119.928 195.733 119.621C195.359 119.382 194.761 118.829 194.267 118.911" stroke="black" stroke-miterlimit="10"/>
<path d="M222.202 131.348C221.753 130.242 221.574 129.091 221.387 127.917C221.2 126.744 221.364 125.414 221.222 124.18C220.953 121.804 221.274 119.457 221.192 117.058C221.162 116.094 221.02 115.152 221.013 114.18C220.998 112.887 221.259 111.549 221.394 110.264C221.529 108.978 221.701 107.827 221.693 106.557C221.693 105.682 221.663 104.883 221.536 104.031C221.469 103.59 221.581 103.238 221.656 102.805C221.731 102.371 221.663 101.923 221.731 101.482C221.865 100.54 221.865 99.6358 221.865 98.6866C221.865 97.7374 221.761 96.6985 221.903 95.7568C222.045 94.8151 222.217 93.8659 222.374 92.9167C222.546 91.9077 222.726 91.0258 223.137 90.0915C223.549 89.1573 223.893 88.2679 224.327 87.3859C224.671 86.6834 225.299 86.22 225.875 85.6968C226.624 85.0167 227.551 84.6056 228.501 84.2693C229.182 84.0301 229.803 84.0077 230.521 84.0002C231.329 83.9928 231.838 84.3889 232.586 84.643C233.334 84.8971 233.768 85.4726 234.464 85.7118C235.055 85.9136 235.676 85.9584 236.267 86.1677C237.576 86.6236 238.324 87.7746 239.2 88.7686C239.536 89.1573 239.97 89.4413 240.225 89.9047C240.501 90.398 240.666 91.093 240.733 91.6461C240.801 92.259 240.883 92.8494 240.89 93.4772C240.898 94.0602 241.003 94.7927 241.182 95.3383C241.339 95.8091 241.609 96.1604 241.87 96.564C242.132 96.9676 242.304 97.558 242.686 97.8271C243.067 98.0962 243.711 98.1634 244.167 98.1036C244.938 98.014 245.057 97.2142 245.244 96.5939C245.499 95.7419 245.716 94.9123 245.656 94.0154C245.611 93.3203 245.379 92.7074 245.484 91.9899C245.611 91.1304 246.135 90.2634 246.688 89.6057C247.025 89.2096 247.489 88.948 247.863 88.5893C248.282 88.1857 248.634 87.8045 249.12 87.4831C249.95 86.9375 250.609 86.4891 251.596 86.2873C252.397 86.1228 253.235 85.9734 254.042 85.8837C254.85 85.794 255.935 85.7641 256.766 85.9584C258.015 86.2499 259.175 86.8104 260.349 87.2963C261.165 87.6326 261.778 87.9315 262.384 88.5967C262.99 89.2619 263.23 90.0542 263.865 90.667C264.427 91.2052 264.92 91.8105 265.422 92.401C265.826 92.8793 266.327 93.5669 266.506 94.1723C266.761 95.0318 266.723 95.9063 267.322 96.6462C267.831 97.274 268.257 97.9243 268.758 98.5521C269.17 99.0753 269.469 99.434 270.157 99.576C270.748 99.7031 271.22 99.6807 271.646 99.2771C272.132 98.7987 272.162 98.6044 272.155 97.9168C272.147 97.0274 272.387 96.2501 272.536 95.3831C272.873 93.3726 273.494 91.4368 274.698 89.7701C275.903 88.1034 277.152 86.4068 279.03 85.4577C282.322 83.791 286.721 83.8881 289.803 85.9509C290.574 86.4666 291.419 86.8329 292.205 87.3262C293.042 87.8568 293.723 88.5519 294.419 89.2395C295.077 89.8823 295.818 90.4279 296.432 91.1304C296.708 91.4443 296.978 91.7881 297.195 92.1394C297.494 92.6402 297.651 93.1932 297.965 93.694C298.504 94.5386 298.893 95.3682 299.252 96.3024C299.417 96.7359 299.536 97.1843 299.604 97.6477C299.701 98.3652 299.521 99.0304 299.499 99.7479C299.454 101.056 299.581 102.371 299.499 103.679C299.394 105.196 299.102 106.751 299.162 108.276C299.185 108.963 299.334 109.629 299.357 110.316C299.379 111.049 299.342 111.789 299.357 112.521C299.357 113.702 299.185 114.86 299.185 116.041C299.192 118.194 299.274 120.376 299.192 122.529C299.132 124.18 298.519 125.87 298.122 127.461C297.726 129.053 297.352 130.511 296.978 132.036C296.88 132.432 296.821 132.865 296.641 133.239C296.521 133.486 296.349 133.687 296.252 133.941C295.975 134.629 295.751 135.07 295.205 135.601C294.591 136.191 293.933 136.595 293.11 136.841C292.489 137.021 291.86 136.909 291.225 137.043C290.476 137.2 289.878 137.424 289.122 137.178C288.471 136.968 287.753 136.789 287.057 136.789C286.362 136.789 285.763 136.654 285.105 136.632C284.491 136.61 283.721 136.228 283.22 135.862C280.317 133.784 279.913 130.182 279.741 126.908C279.621 124.763 279.995 122.603 280.212 120.473C280.339 119.248 280.549 117.999 280.519 116.766C280.489 115.645 280.354 114.487 280.205 113.373C280.07 112.379 280.033 111.318 280.003 110.316C279.973 109.315 279.599 108.283 279.486 107.252C279.427 106.699 279.24 106.153 279.15 105.608C279.067 105.122 278.955 104.427 278.641 104.038C278.491 103.851 278.252 103.732 278.117 103.545C277.96 103.328 277.953 103.059 277.796 102.85C277.437 102.371 276.703 101.983 276.165 101.751C275.132 101.31 274.22 101.108 273.195 101.751C272.634 102.102 272.08 102.371 271.504 102.685C270.786 103.074 270.247 103.276 269.895 104.068C269.589 104.748 269.529 105.525 269.439 106.258C269.327 107.177 269.132 108.126 269.11 109.053C269.072 111.079 269.327 113.074 269.476 115.085C269.544 115.959 269.544 116.833 269.604 117.708C269.634 118.164 269.604 118.612 269.619 119.076C269.626 119.636 269.776 120.174 269.798 120.742C269.858 122.26 270.307 123.717 270.307 125.234C270.307 125.713 270.269 126.206 270.307 126.684C270.344 127.237 270.486 127.745 270.486 128.314C270.486 128.814 270.599 129.457 270.471 129.935C270.374 130.309 270.097 130.675 269.933 131.027C269.693 131.542 269.409 132.013 269.132 132.506C268.676 133.306 268.235 134.196 267.636 134.898C267.262 135.339 267.023 135.907 266.589 136.296C266.013 136.811 265.272 137.028 264.531 137.14C263.97 137.223 263.417 137.439 262.848 137.492C262.511 137.521 262.16 137.454 261.823 137.477C261.419 137.507 261.045 137.649 260.634 137.663C259.893 137.686 259.279 137.723 258.636 137.32C258.037 136.946 257.394 136.505 256.743 136.228C255.539 135.713 254.327 135.496 253.257 134.689C252.135 133.837 251.319 132.633 250.691 131.385C250.347 130.698 249.905 129.928 249.771 129.173C249.614 128.321 249.441 127.469 249.247 126.617C249.015 125.63 249.21 124.659 249.337 123.657C249.486 122.461 249.658 121.273 249.845 120.077C250.01 119.008 250.018 117.932 250.182 116.871C250.354 115.742 250.444 114.703 250.444 113.56C250.444 112.588 250.474 111.632 250.377 110.667C250.309 110.025 250.444 109.404 250.444 108.762C250.444 107.663 250.212 106.594 249.98 105.54C249.748 104.486 249.157 103.231 248.102 102.73C247.264 102.326 246.412 102.177 245.484 102.192C244.945 102.199 244.511 102.476 243.988 102.543C243.464 102.61 243.127 102.7 242.641 103.036C242.035 103.455 241.399 103.956 241.062 104.606C240.688 105.346 240.591 106.041 240.599 106.871C240.599 107.857 240.599 108.844 240.599 109.823C240.599 110.802 240.651 111.684 240.756 112.626C240.845 113.395 240.718 114.165 240.853 114.935C241.018 115.854 240.965 116.871 240.943 117.805C240.935 118.156 240.823 118.47 240.778 118.814C240.733 119.158 240.793 119.494 240.748 119.831C240.703 120.167 240.576 120.511 240.501 120.847C240.397 121.31 240.441 121.736 240.427 122.207C240.427 122.536 240.314 122.813 240.262 123.134C240.202 123.485 240.247 123.866 240.247 124.218C240.247 125.122 240.329 126.071 240.165 126.953C239.91 128.306 240.284 129.659 240.254 131.027C240.24 131.505 240.015 131.871 239.888 132.312C239.761 132.753 239.686 133.373 239.364 133.717C239.237 133.852 239.05 133.844 238.893 133.904C238.571 134.031 238.399 134.225 238.137 134.495C237.733 134.906 237.359 135.003 236.858 135.257C236.267 135.556 235.811 136.034 235.324 136.468C234.801 136.924 234.21 136.901 233.581 137.013C233.289 137.066 233.035 137.178 232.728 137.155C232.422 137.133 232.167 136.991 231.875 136.961C231.614 136.939 231.367 137.006 231.112 136.939C230.813 136.856 230.529 136.714 230.222 136.632C229.294 136.4 228.427 136.146 227.581 135.69C226.833 135.279 226.205 134.734 225.501 134.248C224.933 133.859 224.506 133.515 224.102 132.932C223.908 132.648 223.668 132.439 223.459 132.178C223.249 131.916 223.205 131.58 223.003 131.296C222.718 130.9 222.748 130.668 222.748 130.182" stroke="black" stroke-miterlimit="10"/>
</g>
<defs>
<clipPath id="clip0_417_11486">
<rect width="300" height="148" fill="white"/>
</clipPath>
</defs>
</svg>
