<svg width="300" height="245" viewBox="0 0 300 245" fill="none" xmlns="http://www.w3.org/2000/svg">
<g clip-path="url(#clip0_417_11633)">
<path d="M111.451 133.193C111.863 131.646 111.664 130.119 112.121 128.617C112.449 127.538 112.683 126.499 112.911 125.395C113.403 122.972 113.721 120.471 114.262 118.089C114.774 115.841 115.38 113.299 115.743 110.907C116.115 108.435 116.508 106.123 116.508 103.616C116.508 101.696 116.905 100.055 116.895 98.1651C116.885 95.6535 116.88 93.0873 117.78 90.7149C118.048 89.9988 118.013 89.576 118.053 88.7952C118.078 88.2929 118.247 88.089 118.366 87.6265C118.475 87.2037 118.366 86.8705 118.43 86.4577C118.55 85.7067 118.952 84.8563 119.22 84.15C119.767 82.6879 119.901 81.3003 120.199 79.8083C121.232 74.6707 121.118 69.3989 122.439 64.3161C122.653 63.5005 122.623 62.7346 122.822 61.9289C123.025 61.0834 123.006 60.3772 123.105 59.4869C123.229 58.3828 123.939 57.4478 124.213 56.3935C124.496 55.3142 124.302 53.9664 124.292 52.8574C124.282 51.9522 124.551 51.4549 124.7 50.6293C124.849 49.7937 124.565 48.8538 124.66 48.0083C124.779 46.944 125.286 45.9145 125.564 44.875C125.857 43.771 125.966 42.7216 126.225 41.6622C126.572 40.2299 126.796 38.8473 127.104 37.41C127.298 36.4998 127.69 35.5797 127.814 34.6447C127.929 33.7843 127.814 32.9737 127.988 32.1332C128.197 31.1435 128.281 30.1239 128.485 29.1243C128.679 28.1843 128.912 27.0504 128.972 26.0955C129.026 25.1157 129.23 24.2603 129.329 23.2805C129.439 22.1913 129.772 21.0077 130.035 19.9384C130.278 18.9437 130.527 18.1678 130.517 17.1234C130.507 16.0691 130.353 14.9948 130.795 14.03C131.168 13.2143 131.967 11.6925 132.847 11.3543C133.304 11.1752 133.84 11.3195 134.327 11.21C134.948 11.0708 135.296 10.8072 135.971 10.9067" stroke="black" stroke-miterlimit="10"/>
<path d="M136.249 10.5436C137.119 10.3297 138.072 9.99152 138.962 10.0015C139.722 10.0064 140.442 10.0313 141.167 9.86221C141.917 9.68317 142.846 9.82242 143.621 9.82242C143.949 9.82242 144.277 9.83734 144.605 9.82242C145.156 9.8075 145.638 9.62846 146.19 9.63343C148.142 9.6583 150.064 9.44942 152.022 9.45439C152.459 9.45439 152.836 9.4345 153.264 9.35989C153.741 9.27535 154.203 9.40963 154.694 9.36984C155.122 9.33503 155.519 9.27037 155.951 9.28032C156.627 9.29524 157.248 9.08138 157.928 9.0963C158.435 9.10625 158.862 8.94213 159.354 8.90731C159.752 8.87747 160.169 8.91726 160.566 8.91726C160.909 8.91726 161.252 8.93218 161.595 8.91726C161.803 8.91229 161.932 8.90731 162.146 8.86753C162.593 8.78298 162.523 8.84266 162.961 8.87747C163.338 8.90731 163.701 8.73822 164.083 8.72827C164.451 8.71832 164.848 8.77801 165.211 8.73822C165.613 8.69346 165.951 8.5542 166.368 8.54426C166.875 8.53431 167.228 8.49452 167.71 8.405C168.465 8.26575 169.275 8.42489 170.045 8.37019C170.422 8.34532 170.695 8.1812 171.088 8.17622C171.53 8.17125 171.793 8.08173 172.211 7.99221C172.404 7.94745 172.633 8.02205 172.831 8.00713C173.055 7.99221 173.219 7.90269 173.438 7.85793C173.76 7.79327 174.073 7.82311 174.396 7.81814C175.117 7.80819 175.902 7.66396 176.592 7.49487C177.352 7.31085 178.306 7.45508 179.091 7.45508H181.57C182.389 7.45508 183.298 7.55952 184.103 7.41529C184.59 7.33074 184.953 7.26609 185.464 7.27604C185.887 7.28101 186.15 7.14673 186.542 7.08705C187.248 6.97266 188.092 7.08705 188.808 7.09699C189.488 7.10197 190.074 6.91795 190.765 6.91795C191.093 6.91795 191.426 6.96271 191.744 6.87816C192.057 6.79362 192.22 6.73394 192.573 6.73891C193.303 6.74388 194.039 6.73891 194.769 6.73891C195.589 6.73891 196.388 6.68917 197.173 6.87816C197.6 6.98261 197.923 6.81848 198.351 6.75383C198.698 6.7041 199.066 6.73891 199.419 6.73891C200.139 6.73891 200.859 6.7588 201.58 6.73891C202.285 6.72399 202.946 6.55489 203.666 6.55489C204.014 6.55489 204.401 6.59965 204.744 6.56484C205.127 6.52505 205.454 6.37585 205.847 6.37088C206.274 6.3659 206.592 6.28633 207.014 6.21173C207.273 6.16199 207.531 6.21173 207.789 6.20178C208.072 6.19183 208.286 6.10729 208.559 6.05755C208.862 5.99787 209.165 6.05755 209.468 5.97798C209.841 5.87851 210.189 5.69449 210.581 5.64476C211.53 5.53037 212.469 5.47566 213.438 5.47566C213.89 5.47566 214.362 5.39609 214.789 5.40106C214.948 5.40106 215.067 5.51048 215.241 5.49058C215.449 5.46572 215.613 5.32149 215.822 5.28667C216.761 5.12255 217.72 5.42096 218.664 5.16234C219.215 5.00816 219.602 5.08276 220.154 5.12255C220.621 5.15737 221.093 5.08774 221.56 5.1126C222.081 5.13747 222.509 5.4309 223.015 5.49058C223.457 5.54032 223.825 5.4309 224.242 5.34138C224.694 5.24689 225.087 5.42096 225.554 5.3563C225.981 5.29662 226.239 5.16234 226.622 4.98827C227.114 4.75949 227.571 4.79431 228.077 4.66997C228.559 4.55558 229.081 4.52574 229.573 4.62024C229.94 4.68987 230.253 4.80425 230.641 4.76944C231.133 4.72965 231.555 4.57548 232.057 4.58045C232.901 4.5904 233.746 4.58045 234.585 4.58045" stroke="black" stroke-miterlimit="10"/>
<path d="M234.67 4.31687C235.137 4.17761 235.604 4.18259 236.076 4.09307C236.284 4.05328 236.488 4.05825 236.696 4.06323C237.054 4.0682 237.362 3.94884 237.72 3.92894C238.013 3.91402 238.311 3.93392 238.604 3.93392C239.156 3.93392 239.707 3.94386 240.258 3.93392C240.542 3.93392 240.775 3.82948 241.048 3.79964C241.386 3.75985 241.769 3.80461 242.111 3.80461C242.697 3.80461 243.224 3.6753 243.81 3.6753C244.088 3.6753 244.431 3.73001 244.709 3.68027C245.012 3.63054 245.236 3.54599 245.559 3.54599C246.875 3.55594 248.127 3.41668 249.434 3.41668C249.99 3.41668 250.527 3.44155 251.048 3.31721C251.302 3.25753 251.555 3.30727 251.813 3.26251C251.952 3.23764 252.086 3.16304 252.231 3.15309C252.429 3.14315 252.539 3.25256 252.697 3.26748C252.861 3.28737 252.986 3.19785 253.145 3.18791C253.309 3.17796 253.458 3.20283 253.621 3.19785C253.875 3.18791 254.128 3.16304 254.382 3.16304C255.017 3.16304 255.648 3.16304 256.284 3.16304C256.885 3.16304 257.432 3.02876 258.033 3.03373C258.594 3.0387 259.086 2.85469 259.618 2.77511C259.886 2.73533 260.149 2.80993 260.417 2.75025C260.686 2.69057 260.864 2.65078 261.153 2.65078C261.773 2.65575 262.385 2.51152 263.015 2.52147C263.448 2.52644 263.81 2.39713 264.252 2.39713C264.789 2.39713 265.276 2.26285 265.807 2.2728C266.339 2.27777 266.771 2.14349 267.298 2.14349C267.561 2.14349 267.824 2.14349 268.092 2.14349C268.48 2.14349 268.773 2.049 269.146 2.01418C269.518 1.97937 269.935 2.01418 270.318 2.01418C270.646 2.01418 270.889 1.91471 271.212 1.8799C271.5 1.85006 271.808 1.88487 272.096 1.88487C272.623 1.88487 273.155 1.88487 273.681 1.88487C274.237 1.88487 274.769 1.79535 275.32 1.76054C275.594 1.74562 275.797 1.7307 276.066 1.76054C276.309 1.7854 276.478 1.68594 276.706 1.64118C277.342 1.52181 277.998 1.72572 278.624 1.53673C279.205 1.36267 279.791 1.14384 280.402 1.11399C280.72 1.09907 280.964 1.22341 281.262 1.24828C281.545 1.27314 281.843 1.24828 282.126 1.24828C282.598 1.24828 282.976 1.18362 283.418 1.11897C283.944 1.04437 284.391 0.925005 284.938 1.05431C285.251 1.12892 285.301 1.03442 285.584 0.984686C285.758 0.954846 285.981 0.98966 286.155 0.98966C286.672 0.98966 287.203 1.02447 287.72 0.98966C287.933 0.974739 288.038 0.905112 288.236 0.825537C288.594 0.686282 289.031 0.636548 289.409 0.53708C289.742 0.447558 290.065 0.492319 290.407 0.482372C290.725 0.472425 291.023 0.397824 291.331 0.323223C291.873 0.183968 292.34 0.278462 292.886 0.278462C293.482 0.278462 294.108 0.223755 294.719 0.223755C295.256 0.223755 295.733 0.268516 296.244 0.377931C296.97 0.527133 297.491 1.00955 297.998 1.52679C298.356 1.88985 298.654 2.22306 298.947 2.64083C298.977 2.68062 299.136 2.83479 299.151 2.89945C299.205 3.1133 299.096 3.04368 299.071 3.17299C299.026 3.39679 299.235 3.93392 299.041 4.04333" stroke="black" stroke-miterlimit="10"/>
<path d="M299.329 4.50098C299.27 5.058 299.593 5.55534 299.548 6.08749C299.518 6.4605 299.478 6.55499 299.538 6.928C299.607 7.36566 299.275 8.32055 299.697 8.59906C299.583 8.8925 299.722 9.23566 299.632 9.55396C299.523 9.96675 299.533 10.4044 299.533 10.8669C299.533 11.2698 299.533 11.6776 299.533 12.0804C299.533 12.6822 299.458 13.1497 299.349 13.7117C299.28 14.0748 299.359 14.4378 299.29 14.8108C299.235 15.0943 299.145 15.3281 299.126 15.6165C299.091 16.1089 298.922 16.5267 298.932 17.029C298.937 17.4269 298.957 17.8446 298.932 18.2425C298.902 18.7647 298.634 19.2819 298.524 19.8042C298.39 20.4308 297.973 20.963 297.908 21.5846C297.864 22.0173 297.874 22.3854 297.923 22.7832C297.983 23.3005 298.122 23.7729 298.177 24.3051C298.231 24.8472 298.117 25.4291 298.122 25.996C298.127 27.309 297.476 28.5126 297.302 29.8057C297.178 30.7307 297.307 31.6259 297.312 32.5808C297.312 33.7098 297.059 34.8288 296.915 35.918C296.885 36.1567 296.801 36.296 296.706 36.5148C296.582 36.8182 296.572 37.1265 296.468 37.4249C296.339 37.783 296.15 38.0068 296.095 38.4047C296.056 38.6782 295.981 38.8772 295.921 39.1457C295.807 39.653 296.041 40.031 296.065 40.4985C296.085 40.8367 295.966 41.2296 295.926 41.5628C295.882 41.9408 295.951 42.3188 295.857 42.6918C295.599 43.7362 295.494 44.89 295.544 45.9593C295.574 46.6108 295.782 47.0684 295.608 47.7597C295.464 48.3316 295.246 48.8837 295.072 49.4407C294.65 50.8034 294.67 52.2656 294.337 53.6283C294.163 54.3395 294.391 55.1004 294.247 55.8216C294.098 56.5576 293.969 57.3086 293.89 58.0497C293.835 58.5669 293.686 58.9896 293.686 59.5367C293.686 60.1186 293.711 60.6756 293.587 61.2476C293.472 61.7797 293.433 62.2721 293.303 62.7893C293.189 63.2568 293.1 63.7343 292.981 64.2018C292.817 64.8433 292.742 65.5993 292.673 66.2806C292.593 67.0267 292.474 67.7329 292.479 68.4938C292.479 69.2746 292.31 69.9809 292.265 70.7418C292.23 71.3187 292.081 71.8061 292.076 72.3979C292.071 72.8704 291.878 73.2335 291.873 73.701C291.868 74.248 291.659 74.6758 291.669 75.2179C291.679 75.745 291.49 76.133 291.465 76.6303C291.436 77.1973 291.401 77.6598 291.292 78.2218C290.979 79.8381 290.695 81.4943 290.666 83.1504C290.661 83.4886 290.571 83.7274 290.502 84.0506C290.412 84.4734 290.477 84.8862 290.467 85.3188C290.457 85.7117 290.333 86.04 290.273 86.4229C290.238 86.6617 290.293 86.8904 290.268 87.1292C290.233 87.4574 290.069 87.7409 290.05 88.0691C290.03 88.3675 290.089 88.661 290.04 88.9544C289.92 89.6358 289.796 90.2972 289.672 90.9736C289.622 91.2422 289.687 91.5107 289.637 91.7843C289.588 92.0628 289.468 92.2916 289.448 92.58C289.404 93.2216 289.28 93.7736 289.26 94.4152C289.25 94.6937 289.155 94.9026 289.096 95.1712C289.051 95.39 289.106 95.6138 289.061 95.8227C289.006 96.0763 288.867 96.2653 288.842 96.5289C288.808 96.8223 288.877 97.0959 288.808 97.3943C288.693 97.8817 288.678 98.3691 288.549 98.8515C288.41 99.3637 288.539 99.8661 288.43 100.368C288.236 101.264 288.058 102.258 288.043 103.203C288.023 104.372 287.923 105.406 287.685 106.53C287.561 107.112 287.601 107.709 287.481 108.296C287.342 108.997 287.357 109.708 287.183 110.42C287.044 111.011 286.96 111.593 286.845 112.185C286.801 112.424 286.865 112.658 286.835 112.891C286.801 113.175 286.662 113.414 286.622 113.697C286.527 114.329 286.463 114.985 286.329 115.622C286.18 116.333 285.887 117.024 285.817 117.74C285.752 118.397 285.608 119.068 285.464 119.71C285.315 120.376 285.047 121.058 285.012 121.729C284.983 122.276 284.848 122.729 284.824 123.286C284.804 123.689 284.63 124.042 284.605 124.435C284.585 124.733 284.615 125.051 284.615 125.35C284.615 126.215 284.615 127.081 284.615 127.946C284.615 128.279 284.64 128.617 284.625 128.951C284.605 129.348 284.436 129.692 284.406 130.084C284.381 130.378 284.441 130.681 284.421 130.975C284.401 131.313 284.242 131.581 284.203 131.92C284.118 132.621 284.088 133.317 283.994 134.023C283.89 134.814 283.646 135.625 283.601 136.421C283.577 136.809 283.626 137.206 283.616 137.599C283.606 138.037 283.443 138.385 283.398 138.813C283.378 139.022 283.457 139.255 283.418 139.459C283.368 139.713 283.229 139.907 283.199 140.166C283.174 140.365 283.239 140.573 283.214 140.772C283.184 141.031 283.04 141.225 282.995 141.479C282.916 141.926 283.025 142.349 282.906 142.792C282.777 143.264 282.861 143.732 282.787 144.214C282.528 145.9 282.528 147.646 282.206 149.327C282.106 149.839 281.758 150.296 281.59 150.784C281.416 151.286 281.277 151.868 281.192 152.39" stroke="black" stroke-miterlimit="10"/>
<path d="M281.739 151.848C281.977 152.733 282.052 154.191 281.724 155.076C281.227 156.409 280.298 157.309 279.304 158.304" stroke="black" stroke-miterlimit="10"/>
<path d="M278.346 159.119C278.102 159.94 277.894 160.895 277.293 161.536C276.801 162.058 276.135 162.441 275.614 162.924C274.814 163.665 273.731 163.789 272.683 164.107C270.994 164.625 269.319 165.217 267.73 165.968C266.478 166.559 265.186 167.002 263.89 167.509C262.38 168.106 260.864 168.678 259.349 169.24C257.859 169.792 256.289 170.24 254.804 170.846C253.458 171.398 251.997 171.886 250.596 172.204C249.891 172.363 249.23 172.463 248.594 172.841C248.157 173.104 247.784 173.298 247.322 173.497C246.746 173.741 246.13 173.87 245.564 174.109C245.176 174.273 244.918 174.576 244.55 174.775C244.168 174.979 243.716 175.074 243.309 175.228C242.891 175.382 242.479 175.516 242.057 175.651C241.396 175.86 240.859 176.238 240.234 176.511C239.503 176.834 238.748 177.143 238.003 177.481C237.039 177.919 235.946 177.973 234.908 178.128C233.726 178.302 232.822 178.978 231.709 179.306C230.815 179.57 229.846 179.888 228.997 180.281C228.232 180.634 227.511 181.107 226.721 181.41C226.339 181.559 225.932 181.579 225.554 181.728C225.097 181.912 224.65 182.141 224.193 182.325C222.544 182.982 220.83 183.444 219.19 184.115C218.455 184.414 217.72 184.697 216.975 184.981C216.12 185.309 215.296 185.762 214.426 186.03C212.459 186.637 210.547 187.418 208.584 188.069C207.814 188.323 207.094 188.671 206.304 188.87C205.301 189.124 204.516 189.74 203.587 190.178C203.174 190.372 202.717 190.486 202.29 190.66C201.823 190.849 201.421 191.118 200.944 191.292C199.856 191.685 198.897 192.192 197.854 192.65C196.662 193.172 195.44 193.714 194.198 194.137C193.09 194.515 191.883 194.52 190.785 194.918C188.793 195.639 186.736 196.345 184.69 196.932C183.79 197.191 182.891 197.146 181.987 197.424C181.227 197.663 180.472 197.827 179.682 198.031L179.652 197.887" stroke="black" stroke-miterlimit="10"/>
<path d="M181.639 197.778C179.931 197.927 178.301 198.225 176.572 198.175C175.812 198.151 175.166 197.792 174.411 197.783C173.86 197.773 173.304 197.778 172.752 197.783C172.082 197.787 171.436 197.559 170.775 197.395C170.045 197.211 169.295 196.793 168.549 196.808C167.988 196.818 167.417 196.549 166.875 196.629C166.453 196.688 166.17 196.843 165.723 196.818C165.157 196.788 164.62 196.644 164.049 196.619C163.155 196.574 162.245 196.211 161.361 196.072C160.571 195.947 159.767 195.893 158.972 195.838C158.763 195.823 158.505 195.803 158.341 195.783C158.078 195.753 157.755 195.664 157.457 195.629C156.543 195.525 155.733 195.559 154.868 195.152C153.9 194.689 152.852 194.401 151.828 194.072C151.505 193.968 151.182 193.868 150.859 193.779C150.482 193.674 150.124 193.719 149.737 193.64C149.051 193.5 148.331 193.361 147.635 193.287C146.92 193.212 146.16 193.306 145.44 193.297C144.531 193.282 143.661 192.948 142.752 192.909C141.51 192.849 140.229 192.496 139.016 192.217C136.503 191.64 133.934 191.461 131.416 190.899C130.02 190.586 128.614 190.233 127.208 189.964C125.723 189.676 124.257 189.248 122.757 189.034C120.229 188.671 117.64 188.507 115.147 187.965C112.663 187.428 110.154 187.03 107.655 186.548C106.349 186.294 105.042 186.11 103.741 185.866C102.181 185.573 100.691 185.13 99.1704 184.678C97.7248 184.25 96.17 184.016 94.6846 183.758C93.1049 183.484 91.5798 183.051 89.9951 182.778C88.4551 182.514 86.8654 182.474 85.3403 182.101C84.6498 181.932 84.0587 181.614 83.3533 181.5C82.5733 181.37 81.8033 181.196 81.0284 181.057C79.6076 180.803 78.1769 180.555 76.7512 180.336C76.1103 180.236 75.4993 180.052 74.8535 179.963C74.2027 179.873 73.5321 179.784 72.9062 179.6C70.2633 178.824 67.5659 178.232 64.8485 177.69C64.0587 177.531 63.2092 177.446 62.4392 177.208C61.7735 176.999 61.2171 176.78 60.5117 176.685C59.2201 176.516 57.8639 176.243 56.5972 175.934C55.9911 175.79 55.395 175.676 54.8038 175.487C54.3369 175.338 53.9146 175.357 53.4576 175.248C53.3185 175.213 53.1993 175.114 53.0453 175.084C52.6777 175.014 52.31 175.139 51.9275 175.049C51.5251 174.955 51.1575 174.701 50.7253 174.701" stroke="black" stroke-miterlimit="10"/>
<path d="M50.4223 175.034C49.8112 175.034 49.2996 175.009 48.7283 174.91C48.1818 174.815 47.6503 174.716 47.0889 174.651C46.4779 174.577 45.8619 174.527 45.2608 174.422C45.0025 174.378 44.7541 174.403 44.4908 174.398C44.153 174.393 43.8102 174.303 43.4724 174.243C43.0502 174.164 42.6528 173.99 42.2255 173.915C41.6195 173.811 41.0283 173.696 40.4272 173.577C39.0909 173.313 37.6503 173.244 36.3487 172.856C35.4645 172.592 34.466 172.468 33.5519 172.359C33.0055 172.294 32.5087 172.135 31.9672 172.05C31.3661 171.956 30.765 171.851 30.1788 171.702C29.0561 171.419 27.9036 171.274 26.7809 170.996C25.4496 170.668 24.0835 170.454 22.7422 170.195C21.4804 169.951 20.2534 169.554 19.0015 169.265C17.4516 168.907 15.9265 168.41 14.3666 168.111C13.1943 167.882 11.9871 167.639 10.8296 167.34C10.2981 167.206 9.7566 167.131 9.22008 167.017C8.80279 166.928 8.43022 166.813 8.00299 166.823C7.51119 166.833 7.08894 166.694 6.59216 166.699C6.04075 166.699 5.59862 166.624 5.06211 166.505C4.73921 166.43 4.41134 166.39 4.11328 166.231C3.82018 166.072 3.61651 165.833 3.35322 165.634C2.68258 165.132 2.03181 164.496 1.87284 163.62C1.848 163.486 1.86787 163.352 1.85297 163.217C1.82316 162.989 1.71387 162.8 1.6642 162.581C1.57478 162.203 1.71884 161.715 1.73374 161.318C1.75858 160.686 2.16097 160.124 2.25039 159.512" stroke="black" stroke-miterlimit="10"/>
<path d="M3.15454 159.055C4.83363 158.239 6.29413 157.309 8.10735 156.901C10.2484 156.424 12.3895 156.061 14.5058 155.434C16.4531 154.857 18.5246 154.892 20.5117 154.454C21.4208 154.255 22.3299 153.977 23.2291 153.783C23.7854 153.663 24.3319 153.808 24.8883 153.738C25.5688 153.653 26.2296 153.385 26.9101 153.276C28.9121 152.952 30.8297 152.674 32.7969 152.196C34.3617 151.818 35.9911 151.43 37.6106 151.197C38.5644 151.057 39.389 150.615 40.2832 150.291C40.9986 150.038 41.699 149.894 42.4094 149.665C43.9941 149.158 45.5539 148.884 47.1088 148.262C48.7333 147.611 50.6359 147.292 52.3051 146.929C53.2638 146.721 54.1729 146.706 55.082 146.298C55.9017 145.93 56.8903 146.024 57.7497 145.84C58.157 145.756 58.3557 145.646 58.783 145.616C59.1804 145.587 59.5331 145.492 59.9057 145.358C60.2335 145.238 60.5614 145.134 60.8992 145.04C61.1128 144.98 61.396 144.925 61.6096 144.856C61.9623 144.736 62.2554 144.502 62.6081 144.383C63.1446 144.204 63.8848 144.259 64.4561 144.149C65.0919 144.03 65.7974 143.866 66.4382 143.821C66.8257 143.791 67.2082 143.896 67.5907 143.811C68.1123 143.702 68.465 143.572 69.0164 143.582C69.9802 143.597 70.6856 143.304 71.6145 143.13C72.5435 142.956 73.5371 143.005 74.4859 142.797C75.395 142.593 76.3339 142.483 77.2181 142.195C78.0229 141.931 78.8376 141.678 79.6573 141.538C80 141.479 80.3229 141.583 80.6707 141.494C81.0035 141.409 81.3413 141.2 81.6692 141.106C82.5733 140.852 83.4228 140.633 84.322 140.409C84.7144 140.31 84.9479 140.29 85.3552 140.285C85.7874 140.28 85.9663 140.131 86.3686 140.051C87.1535 139.887 87.9186 139.788 88.7184 139.584C90.7303 139.066 92.6578 138.281 94.6548 137.808C95.7626 137.55 96.9151 137.4 97.9981 137.112C98.4601 136.988 98.9419 136.769 99.4188 136.714C99.9255 136.659 100.437 136.804 100.939 136.669C101.992 136.391 103.13 136.197 104.228 135.963C104.829 135.834 105.395 135.774 106.001 135.69C106.647 135.595 107.014 135.202 107.586 135.003C108.132 134.809 108.758 134.824 109.31 134.705C109.518 134.66 110.164 134.541 110.328 134.411C110.656 134.163 110.696 133.263 110.815 132.865C110.949 132.412 111.177 132.064 111.321 131.651" stroke="black" stroke-miterlimit="10"/>
<path d="M116.786 129.841C117.601 129.841 118.495 129.736 119.29 129.905C119.419 129.935 119.732 130.089 119.93 130.134C120.353 130.219 120.884 130.129 121.316 130.129C122.772 130.129 124.223 130.134 125.678 130.129C127.149 130.124 128.629 130.482 130.089 130.766C131.659 131.064 133.259 131.263 134.873 131.263C136.026 131.263 136.87 131.631 137.978 131.845C138.515 131.949 139.126 131.755 139.667 131.815C140.447 131.905 141.123 132.129 141.927 132.114C142.643 132.104 143.154 132.327 143.845 132.412C144.476 132.487 145.196 132.397 145.832 132.397C147.283 132.397 148.649 132.442 150.07 132.671C150.7 132.77 151.177 132.949 151.818 132.959C152.673 132.974 153.348 133.054 154.173 133.183C155.062 133.322 156.031 133.471 156.935 133.536C157.988 133.611 158.937 133.874 159.975 134.028C160.681 134.133 161.386 134.023 162.086 134.158C162.757 134.287 163.323 134.332 164.004 134.372C164.526 134.401 164.933 134.63 165.46 134.67C165.931 134.7 166.418 134.605 166.885 134.65C167.427 134.7 167.933 134.933 168.475 134.963C169.622 135.028 170.71 135.227 171.903 135.232C173.264 135.232 174.575 135.441 175.867 135.734C176.458 135.869 177.134 136.028 177.73 136.087C178.276 136.142 178.857 135.988 179.399 136.067C179.955 136.147 180.363 136.346 180.949 136.361C181.634 136.376 182.146 136.495 182.787 136.619C183.403 136.739 184.054 136.6 184.68 136.709C185.34 136.823 185.922 136.898 186.597 136.923C187.203 136.943 187.715 137.177 188.306 137.221C188.862 137.261 189.449 137.221 190.005 137.216C190.561 137.211 190.894 137.405 191.416 137.515C191.918 137.619 192.613 137.5 193.115 137.5C194.555 137.5 195.941 137.435 197.347 137.719C198.192 137.888 199.041 137.843 199.891 138.002C200.646 138.146 201.674 138.315 202.434 138.36C203.373 138.415 204.337 138.221 205.266 138.41C206.259 138.609 207.307 138.892 208.316 138.917C208.808 138.927 209.295 138.902 209.786 138.912C210.392 138.922 210.83 139.146 211.421 139.211C212.683 139.35 213.949 139.26 215.156 139.683C216.364 140.106 217.62 140.335 218.838 140.325C219.399 140.325 219.975 140.285 220.532 140.32C221.153 140.359 221.634 140.618 222.285 140.608C222.846 140.603 223.413 140.613 223.974 140.608C224.923 140.603 225.782 140.877 226.721 140.902C227.511 140.921 228.356 140.777 229.136 140.882C229.747 140.966 230.224 141.135 230.864 141.165C231.456 141.195 231.942 141.444 232.534 141.464C233.14 141.483 233.517 141.658 234.088 141.757C234.56 141.842 235.027 141.682 235.504 141.807C236.145 141.976 236.816 142.205 237.486 142.324C237.983 142.414 238.4 142.399 238.892 142.528C239.454 142.677 240.05 142.453 240.601 142.578C241.207 142.712 241.545 142.891 242.221 142.876C242.946 142.861 243.557 143.125 244.267 143.164C245.455 143.229 246.498 143.015 247.645 142.866C248.366 142.772 249.046 142.866 249.767 142.722C250.596 142.558 251.451 142.891 252.325 142.876C253.979 142.846 255.594 143.488 257.268 143.443C258.624 143.408 259.856 143.96 261.207 144C261.913 144.02 262.494 144.279 263.199 144.288C263.775 144.293 264.372 144.234 264.943 144.274C265.807 144.333 266.577 144.801 267.427 144.87C268.47 144.96 269.508 145.079 270.551 145.129C272.24 145.209 273.929 145.96 275.638 145.721C275.887 145.686 276.2 145.482 276.423 145.472C276.841 145.452 277.193 145.661 277.611 145.706C278.241 145.776 278.877 145.94 279.498 146.034C279.439 146.114 279.374 146.193 279.314 146.268" stroke="black" stroke-miterlimit="10"/>
<path d="M116.711 129.856C116.369 129.756 116.036 129.811 115.698 129.702C115.559 129.657 115.44 129.652 115.296 129.652C115.162 129.652 114.978 129.557 114.854 129.582" stroke="black" stroke-miterlimit="10"/>
<path d="M114.714 128.364C114.993 127.692 114.839 127.135 114.913 126.454C114.963 126.021 115.087 125.449 115.181 125.026C115.37 124.166 115.445 123.301 115.718 122.44C115.986 121.59 115.971 120.759 116.2 119.884C116.384 119.173 116.304 118.462 116.453 117.74C116.667 116.696 116.716 115.637 116.93 114.582C117.129 113.617 117.193 112.633 117.461 111.698C118.013 109.783 118.266 107.848 118.559 105.889C118.639 105.347 118.987 104.894 119.116 104.387C119.21 104.004 119.155 103.581 119.151 103.188C119.151 102.268 119.314 101.433 119.354 100.522C119.394 99.5676 119.722 98.6226 119.791 97.6876C119.846 96.9317 119.642 96.0912 119.776 95.3501C119.846 94.9572 119.99 94.7086 120 94.2958C120.01 93.8382 119.891 93.2315 119.99 92.7938C120.159 92.0627 120.383 91.446 120.576 90.71C121.172 88.4421 121.858 86.1096 121.898 83.772C121.908 83.1653 122.101 82.6083 122.121 82.0015C122.131 81.6534 122.141 81.3848 122.221 81.0466C122.444 80.0967 122.409 79.1766 122.588 78.2118C122.807 77.0579 122.697 75.924 122.961 74.7801C123.105 74.1535 123.269 73.5467 123.443 72.925C123.532 72.6018 123.552 72.2835 123.621 71.9602C123.706 71.5673 123.9 71.2092 123.974 70.8163C124.188 69.6774 124.506 68.5932 124.819 67.4593C125.132 66.3403 124.938 65.2759 125.092 64.142C125.156 63.6596 125.425 63.2269 125.509 62.7544C125.569 62.4312 125.499 62.0333 125.499 61.7001C125.499 60.8844 125.638 60.1434 125.922 59.3675C126.056 59.0045 126.095 58.6912 126.18 58.3231C126.294 57.8258 126.279 57.3284 126.393 56.8311C126.577 56.0105 126.692 55.1352 126.766 54.2947C126.845 53.3497 127.208 52.4147 127.357 51.4797C127.427 51.0371 127.347 50.6044 127.397 50.1618C127.447 49.6943 127.645 49.2566 127.675 48.7841C127.7 48.4161 127.576 48.0779 127.606 47.69C127.64 47.2225 127.824 46.7848 127.933 46.3372C128.177 45.3127 128.584 44.1638 128.684 43.1095C128.713 42.7862 128.619 42.4381 128.664 42.1148C128.708 41.7915 128.862 41.508 128.887 41.1599C128.967 40.0608 128.748 38.9219 128.872 37.8277C128.997 36.7634 129.608 35.6494 129.99 34.6497C130.422 33.5307 130.502 32.342 130.835 31.1932C131.123 30.2085 131.202 29.3381 131.207 28.2887C131.207 27.7367 131.138 27.1796 131.331 26.6624C131.465 26.2994 131.57 26.1004 131.629 25.7025C131.694 25.25 131.898 25.1107 132.017 24.6929C132.25 23.8773 132.062 22.7583 132.052 21.8979C132.047 21.2613 132.161 21.0126 132.429 20.4208C132.668 19.8986 132.628 19.4311 132.678 18.889C132.742 18.1877 133.1 17.5909 133.115 16.8747C133.125 16.3724 133.045 15.8403 133.1 15.338C133.174 14.6566 133.482 14.1195 133.954 13.642C134.312 13.274 134.754 12.5479 135.221 12.3788" stroke="black" stroke-miterlimit="10"/>
<path d="M134.973 12.6673C135.082 12.6374 135.579 12.3987 135.718 12.3937C135.837 12.3937 135.912 12.4882 136.006 12.4932C136.259 12.4982 136.463 12.3539 136.736 12.3689C136.92 12.3788 137.074 12.4484 137.258 12.4335C137.447 12.4186 137.62 12.3788 137.814 12.3689C137.998 12.3589 138.182 12.3689 138.366 12.3738C138.664 12.3738 138.942 12.2595 139.225 12.2545C139.563 12.2445 139.916 12.3241 140.253 12.3042C140.571 12.2843 140.879 12.1401 141.187 12.0904C141.942 11.971 142.802 12.0754 143.572 12.0754C144.307 12.0754 144.978 11.9262 145.713 11.9262C146.463 11.9262 147.218 11.9262 147.968 11.9262C148.718 11.9262 149.533 11.9213 150.318 11.9262C150.83 11.9312 151.297 11.792 151.803 11.7721C152.28 11.7571 152.767 11.7721 153.249 11.7721C153.641 11.7721 153.84 11.6776 154.198 11.6179C154.57 11.5532 154.928 11.593 155.31 11.5134C155.763 11.414 156.229 11.3792 156.682 11.2946C157.173 11.2001 157.665 11.22 158.147 11.1106C158.639 10.9962 159.146 11.036 159.652 11.036C160.144 11.036 160.626 11.0559 161.113 11.0012C161.57 10.9465 162.126 10.8221 162.583 10.8818C162.941 10.9316 163.239 11.041 163.612 11.036C163.944 11.036 164.272 11.036 164.605 11.036H166.726C167.213 11.036 167.715 11.0758 168.197 11.036C168.917 10.9863 169.647 10.7575 170.378 10.7326C170.989 10.7127 171.654 10.8271 172.255 10.7227C172.598 10.663 172.861 10.5834 173.214 10.5884C173.621 10.5884 174.113 10.663 174.516 10.5934C174.858 10.5337 175.022 10.4342 175.395 10.4392C175.713 10.4392 176.031 10.4392 176.349 10.4392C177.158 10.4392 177.953 10.3994 178.753 10.4044C179.434 10.4044 180.194 10.28 180.854 10.1408C181.272 10.0513 181.674 10.106 182.081 10.0314C182.459 9.96174 182.851 10.0513 183.224 9.96174C183.875 9.80259 184.54 9.84735 185.221 9.84735C185.564 9.84735 185.912 9.84735 186.254 9.84735C186.582 9.84735 186.791 9.74788 187.099 9.69317C187.829 9.55889 188.574 9.5191 189.314 9.3699C190.005 9.23065 190.681 9.26049 191.386 9.26049C191.908 9.26049 192.429 9.26049 192.956 9.26049C193.388 9.26049 193.766 9.32017 194.198 9.28038C194.535 9.25054 194.883 9.25551 195.221 9.26049C195.594 9.26049 195.902 9.19086 196.259 9.11128C196.602 9.03171 196.806 9.09139 197.134 9.11626C197.392 9.13615 197.784 9.02674 198.033 9.13615C198.475 9.33509 198.321 9.80756 198.217 10.1557C198.038 10.7575 197.859 11.1653 198.137 11.777C198.425 12.4087 199.205 12.3639 199.806 12.3639C199.93 12.3639 200.065 12.3788 200.189 12.3689C200.422 12.3539 200.616 12.2147 200.84 12.1998C200.959 12.1948 201.148 12.3092 201.242 12.3291C201.54 12.3987 201.853 12.3639 202.156 12.3589C203.08 12.3589 204.009 12.3589 204.933 12.3589C205.44 12.3589 206.1 12.4882 206.577 12.3291C206.682 12.2943 206.791 12.1898 206.89 12.16C207.119 12.1003 207.273 12.1898 207.486 12.2147C208.261 12.2943 209.215 12.2893 209.99 12.2147C210.507 12.165 210.964 11.8467 211.465 11.7721C211.833 11.7173 212.146 11.8964 212.509 11.9163C212.936 11.9412 213.164 11.8914 213.532 11.7273C213.934 11.5483 214.267 11.7273 214.689 11.6229C215.082 11.5284 215.127 11.3941 215.276 11.026C215.44 10.6282 215.594 10.3944 215.499 10.0015C215.459 9.8374 215.41 9.65339 215.385 9.48926C215.34 9.23562 215.41 9.10134 215.395 8.84272C215.39 8.71839 215.315 8.63384 215.305 8.51945C215.286 8.29067 215.504 7.95248 215.315 7.77344" stroke="black" stroke-miterlimit="10"/>
<path d="M216.21 7.92757C217 7.5297 217.635 7.36061 218.535 7.42526C219.225 7.47997 219.871 7.59436 220.566 7.59436C221.928 7.59436 223.279 7.55457 224.625 7.71869C225.33 7.80324 226.046 7.75351 226.756 7.76345C227.506 7.7734 228.222 7.50981 228.957 7.42029C229.305 7.3805 229.682 7.44018 230.035 7.43023C230.402 7.42029 230.701 7.28103 231.063 7.25119C231.48 7.21638 231.813 7.22135 232.226 7.1368C232.648 7.04728 233.105 6.93787 233.532 6.92295C234.103 6.90803 234.63 6.88813 235.186 6.80359C235.827 6.70909 236.493 6.84835 237.129 6.72401C237.78 6.59968 238.43 6.69417 239.076 6.57978C239.439 6.51513 239.687 6.42063 240.065 6.42561C240.432 6.42561 240.825 6.47037 241.182 6.39079C242.27 6.15207 243.477 6.25154 244.6 6.26148C245.176 6.26646 245.668 6.08741 246.249 6.09239C246.965 6.10233 247.65 5.91335 248.371 5.92827C248.887 5.93821 249.364 5.78901 249.881 5.76912C250.209 5.7542 250.492 5.61494 250.815 5.59007C251.172 5.56023 251.51 5.62489 251.863 5.56023C252.459 5.45082 253.085 5.31156 253.681 5.26183C254.302 5.20712 254.958 5.26183 255.584 5.26183C257.775 5.26183 260 5.3414 262.146 5.10765C262.424 5.07781 262.653 4.95348 262.931 4.92861C263.179 4.90374 263.472 4.91866 263.721 4.92861C263.994 4.94353 264.163 5.05792 264.416 5.10765C264.64 5.14744 264.928 5.10268 265.152 5.09771C265.708 5.09771 266.145 5.2668 266.692 5.26183C267.248 5.26183 267.824 5.30659 268.381 5.26183C268.624 5.24691 268.803 5.15241 269.041 5.10765C269.285 5.06289 269.533 5.1176 269.777 5.07781C270.094 5.02311 270.293 4.92861 270.631 4.92861C270.999 4.92861 271.182 4.81422 271.52 4.75454C271.933 4.67994 272.439 4.77941 272.842 4.80925C273.323 4.84406 273.9 4.77941 274.411 4.76449C275.127 4.74459 275.787 4.4263 276.488 4.28704C276.97 4.19255 277.471 4.09308 277.963 4.09805C278.311 4.09805 278.699 4.14281 279.041 4.0881C279.498 4.0135 279.98 3.98864 280.437 3.89912C280.894 3.80959 281.317 3.84441 281.759 3.77975C282.087 3.73002 282.325 3.61563 282.673 3.60568C282.971 3.59574 283.14 3.66536 283.408 3.73499C284.719 4.06821 286.195 3.96377 287.526 3.81457C288.445 3.71013 289.364 3.6206 290.258 3.45648C290.919 3.33712 291.699 3.53606 292.275 3.13818C292.449 3.40177 293.328 3.37193 293.641 3.40177C294.108 3.44653 294.521 3.65542 294.963 3.52611C295.534 3.36199 295.633 3.57087 296.12 3.77478C296.379 3.88419 296.94 4.04832 297.114 4.26715" stroke="black" stroke-miterlimit="10"/>
<path d="M285.459 33.7048C286.105 33.3019 286.691 32.8494 287.307 32.4067C287.491 32.2725 287.814 31.9193 288.048 31.9293" stroke="black" stroke-miterlimit="10"/>
<path d="M296.885 4.70483C297.129 5.17233 297.377 5.7393 297.441 6.26151C297.501 6.71906 297.268 7.09207 297.253 7.5347C297.228 8.03702 297.357 8.60896 297.263 9.10133C297.228 9.29529 297.099 9.43952 297.059 9.63348C296.984 10.0065 297.124 10.4243 297.079 10.8022C297.009 11.3742 296.756 11.9063 296.701 12.4932C296.647 13.0751 296.483 13.657 296.359 14.2339C296.259 14.6865 296.021 15.0545 295.971 15.5071C295.946 15.7209 295.882 15.8552 295.827 16.0591C295.757 16.3426 295.802 16.6261 295.748 16.9195C295.633 17.5064 295.663 18.1231 295.514 18.7C295.4 19.1476 295.34 19.6201 295.256 20.0826C295.141 20.6844 295.092 21.316 295.062 21.9277C295.032 22.4947 294.873 22.9871 294.873 23.5739C294.873 24.1459 294.838 24.5885 294.709 25.1256C294.595 25.6031 294.525 26.1054 294.511 26.5978C294.491 27.115 294.352 27.5875 294.332 28.1196C294.322 28.3633 294.247 28.4728 294.183 28.6966C294.098 29.0049 294.178 29.3182 294.098 29.6266C294.004 30.0046 293.82 30.3278 293.775 30.7207C293.716 31.238 293.592 31.6806 293.592 32.2326C293.592 33.0781 293.572 33.9485 293.134 34.6497C292.836 35.1272 292.777 35.7091 292.538 36.2163C292.26 36.8082 292.305 37.1016 292.454 37.6835C292.509 37.8974 292.469 38.1013 292.509 38.3201C292.553 38.5688 292.707 38.7975 292.777 39.0363C292.951 39.6281 292.926 40.3791 292.772 40.9759C292.682 41.3091 292.717 41.5926 292.692 41.9308C292.663 42.2938 292.514 42.632 292.489 43.0001C292.444 43.7461 292.389 44.4573 292.315 45.1983C292.196 46.4367 291.992 47.6502 291.783 48.8637C291.694 49.3959 291.783 49.9678 291.773 50.5049C291.763 50.7835 291.689 50.9774 291.629 51.241C291.545 51.609 291.629 51.9671 291.599 52.3401C291.57 52.6535 291.45 52.9121 291.356 53.2055C291.232 53.5984 291.272 53.9366 291.207 54.3345C291.088 55.0755 290.829 55.7917 290.695 56.5327C290.576 57.2141 290.417 57.8855 290.308 58.5718C290.258 58.8802 290.149 59.1686 290.114 59.4819C290.074 59.84 290.199 60.2379 290.134 60.591C290.054 61.0237 289.94 61.3072 289.94 61.7747C289.94 62.2322 289.94 62.6898 289.94 63.1473C289.94 64.4404 289.652 65.5843 289.434 66.8476C289.374 67.1957 289.439 67.5289 289.404 67.8721C289.364 68.2302 289.22 68.5485 289.205 68.9165C289.175 69.6476 289.25 70.3837 289.22 71.1147C289.195 71.7364 289.011 72.3879 288.887 72.9947C288.827 73.2782 288.887 73.5418 288.857 73.8253C288.822 74.1485 288.693 74.5016 288.619 74.8249C288.485 75.3919 288.584 75.924 288.49 76.486C288.405 76.9834 288.271 77.5006 288.157 77.988C288.023 78.55 288.087 79.1418 287.958 79.7237C287.799 80.425 287.675 81.1461 287.546 81.8523C287.243 83.5035 286.825 85.1298 286.517 86.776C286.264 88.1437 286.319 89.5313 286.016 90.8741C285.792 91.8688 285.782 92.8933 285.648 93.9178C285.574 94.4997 285.564 95.0468 285.559 95.6386C285.554 96.1807 285.405 96.6681 285.38 97.2152C285.365 97.4987 285.236 97.6727 285.181 97.9413C285.141 98.1502 285.191 98.4237 285.191 98.6326C285.191 99.2046 285.206 99.7665 285.281 100.334C285.35 100.831 285.529 101.303 285.648 101.786C285.802 102.402 285.534 103.039 285.286 103.631C284.525 105.451 284.068 107.341 283.676 109.261C283.388 110.663 283.353 112.076 283.353 113.513C283.353 115.055 283.169 116.547 283.169 118.099C283.169 119.382 282.797 120.575 282.802 121.848C282.802 122.425 282.792 122.903 282.658 123.45C282.514 124.047 282.702 124.678 282.578 125.28C282.454 125.882 282.454 126.404 282.439 127.026C282.424 127.752 282.061 128.374 281.922 129.08C281.808 129.662 281.833 130.244 281.704 130.825C281.599 131.298 281.386 131.795 281.331 132.288C281.306 132.516 281.356 132.7 281.296 132.929C281.237 133.158 281.162 133.272 281.147 133.521C281.118 134.088 280.983 134.605 280.974 135.167C280.964 135.625 280.849 136.048 280.81 136.495C280.765 136.968 280.864 137.5 280.77 137.967C280.725 138.196 280.611 138.36 280.596 138.604C280.581 138.833 280.596 139.071 280.596 139.3C280.596 139.802 280.596 140.305 280.596 140.807C280.596 141.27 280.596 141.727 280.596 142.19C280.596 142.667 280.472 143.02 280.407 143.463C280.288 144.313 279.876 145.054 279.866 145.935" stroke="black" stroke-miterlimit="10"/>
<path d="M207.635 167.902C208.425 167.44 209.334 166.947 210.233 166.738C211.053 166.549 211.729 166.156 212.538 165.868C213.264 165.609 214.044 165.271 214.794 165.072C215.613 164.853 216.349 164.461 217.168 164.212C218.003 163.958 218.773 163.705 219.632 163.531C220.546 163.346 221.262 162.849 222.141 162.705C223.89 162.421 225.728 161.854 227.417 161.283C229.294 160.651 231.182 160.074 233.055 159.432C234.054 159.094 235.037 158.706 236.021 158.348C236.935 158.015 237.904 157.816 238.837 157.488C240.353 156.951 241.912 156.682 243.462 156.259C244.252 156.046 245.047 156.115 245.832 155.832C246.652 155.533 247.72 155.503 248.366 154.887" stroke="black" stroke-miterlimit="10"/>
<path d="M205.698 168.061C204.739 168.36 203.91 168.161 202.941 168.076C202.593 168.046 202.275 167.882 201.927 167.833C201.52 167.778 201.123 167.838 200.715 167.758C199.856 167.589 198.987 167.266 198.127 167.107C197.556 167.002 196.965 167.047 196.383 167.052C195.221 167.057 194.237 166.619 193.1 166.54C192.071 166.47 190.954 166.724 189.95 166.525C189.031 166.341 188.246 166.082 187.322 165.978C185.638 165.789 183.939 165.545 182.27 165.227C180.859 164.958 179.434 165.082 178.028 164.834C177.576 164.754 177.134 164.719 176.682 164.65C176.19 164.57 175.753 164.605 175.256 164.466C174.714 164.316 174.247 164.063 173.746 163.824C172.772 163.357 171.818 163.332 170.81 163.138C169.642 162.909 168.366 163.003 167.153 163.008C165.941 163.018 164.824 162.75 163.626 162.755C162.161 162.765 160.939 162.521 159.548 162.238C158.907 162.108 158.46 162.238 157.834 161.999C157.263 161.78 156.647 161.705 156.075 161.551C155.812 161.482 155.648 161.516 155.36 161.497C154.988 161.472 154.898 161.392 154.56 161.298C154.213 161.203 153.88 161.288 153.532 161.193C153.209 161.104 152.926 160.86 152.588 160.785C151.475 160.557 150.377 160.502 149.26 160.233C148.564 160.064 147.894 160.039 147.203 159.925C146.488 159.811 145.688 159.592 144.973 159.587C144.724 159.587 144.426 159.716 144.168 159.736C143.79 159.761 143.393 159.731 143.015 159.731C142.151 159.731 141.227 159.835 140.377 159.676C139.225 159.457 138.028 159.607 136.895 159.288C136.349 159.134 135.822 158.88 135.281 158.746C135.047 158.687 134.689 158.662 134.451 158.652C134.029 158.632 133.532 158.816 133.115 158.741C132.841 158.692 132.653 158.507 132.379 158.458C132.067 158.403 131.754 158.493 131.421 158.418C130.909 158.304 130.119 157.861 129.603 157.97" stroke="black" stroke-miterlimit="10"/>
<path d="M130.859 158.98C128.847 158.453 126.726 158.403 124.719 157.995C123.84 157.816 122.921 157.786 122.042 157.538C121.575 157.408 121.118 157.314 120.656 157.194C120.179 157.07 119.766 156.782 119.28 156.642C114.863 155.379 110.512 154.698 105.921 154.698C104.689 154.698 103.502 154.429 102.26 154.444C100.79 154.459 99.4188 154.002 97.9632 153.937C97.2975 153.907 96.6865 153.708 96.0258 153.673C95.4545 153.638 94.8783 153.738 94.312 153.698C93.2687 153.624 92.1262 153.395 91.0978 153.181C89.1902 152.783 87.2876 152.321 85.3899 151.943C84.6945 151.803 83.9841 151.759 83.2836 151.609C82.8564 151.52 82.5484 151.4 82.0914 151.41C81.684 151.415 81.2965 151.445 80.8942 151.356C79.9702 151.157 79.0561 150.898 78.1222 150.714C77.6751 150.625 77.2578 150.679 76.8057 150.669C76.2345 150.649 75.7178 150.426 75.1515 150.396C74.3269 150.356 73.4376 150.351 72.6428 150.167C71.848 149.983 71.227 149.625 70.3726 149.65" stroke="black" stroke-miterlimit="10"/>
<path d="M70.8346 150.192C70.3627 150.192 70.015 150.137 69.5629 150.068C69.3443 150.033 69.1158 150.068 68.9121 150.003L68.8823 149.869" stroke="black" stroke-miterlimit="10"/>
<path d="M69.697 149.869C70.2931 149.784 70.9141 149.441 71.4854 149.257C72.0765 149.068 72.6826 148.934 73.2638 148.77C74.8386 148.312 76.4779 148.193 78.0328 147.71C78.8624 147.452 79.7467 147.412 80.5862 147.143C81.5301 146.845 82.4839 146.85 83.4278 146.636C84.158 146.472 84.8585 146.352 85.5887 146.168C86.2246 146.004 86.8456 145.825 87.4914 145.805C88.0875 145.785 88.5793 145.477 89.1555 145.348C89.9702 145.169 90.8396 145.119 91.6394 144.826C92.9459 144.348 94.2971 144.249 95.6235 143.831C98.4402 142.936 101.326 142.473 104.193 141.737C105.037 141.518 105.862 141.155 106.706 140.961C107.606 140.752 108.495 140.613 109.389 140.399C109.935 140.27 110.407 140.011 110.974 139.947C111.406 139.897 111.848 139.822 112.275 139.748C113.13 139.599 114.004 139.275 114.873 139.295" stroke="black" stroke-miterlimit="10"/>
<path d="M115.842 139.096C117.124 139.419 118.405 139.549 119.682 139.768C120.71 139.947 121.719 140.255 122.737 140.434C123.289 140.534 123.89 140.424 124.446 140.449C124.903 140.469 125.286 140.573 125.733 140.683C126.836 140.951 127.988 141.155 129.091 141.344C130.089 141.518 131.148 141.449 132.151 141.638C132.807 141.762 133.492 141.722 134.138 141.866C134.332 141.906 134.471 142.021 134.68 142.055C135.012 142.11 135.375 141.976 135.713 142.03C136.125 142.095 136.468 142.259 136.895 142.274C137.402 142.294 137.839 142.269 138.341 142.384C139.339 142.612 140.452 142.279 141.441 142.548C142.976 142.97 144.605 142.826 146.18 143.125C147.059 143.294 147.998 143.125 148.897 143.169C149.682 143.209 150.561 143.423 151.326 143.627C152.399 143.915 153.487 143.836 154.57 144.134C155.484 144.388 156.423 144.269 157.387 144.303C158.162 144.333 159.026 144.537 159.762 144.706C160.621 144.91 161.595 144.686 162.474 144.746C163.383 144.806 164.208 145.199 165.117 145.213C165.976 145.228 166.895 145.104 167.735 145.263C168.679 145.437 169.657 145.527 170.616 145.646C171.083 145.701 171.47 145.79 171.927 145.895C172.489 146.024 173.03 146.014 173.577 146.109C174.019 146.183 174.352 146.342 174.824 146.352C175.191 146.357 175.524 146.333 175.882 146.402C176.244 146.472 176.592 146.512 176.95 146.566C177.178 146.601 177.367 146.715 177.586 146.755C177.894 146.815 178.197 146.74 178.495 146.795C178.887 146.86 179.146 147.019 179.558 147.039C180.06 147.064 180.392 147.113 180.864 147.213C181.853 147.422 182.971 147.248 183.979 147.263C184.804 147.277 185.559 147.496 186.408 147.491C186.925 147.491 187.228 147.611 187.705 147.7C188.301 147.81 188.907 147.8 189.513 147.924C190.954 148.217 192.419 148.173 193.924 148.173C195.768 148.173 197.601 148.391 199.409 148.675C200.457 148.839 201.47 149.152 202.524 149.282C203.582 149.411 204.63 149.769 205.713 149.754C206.602 149.744 207.491 149.754 208.381 149.754C208.902 149.754 209.434 149.729 209.955 149.749C210.571 149.774 211.118 149.978 211.739 149.983C212.325 149.988 212.717 150.082 213.289 150.187C213.83 150.286 214.352 150.192 214.883 150.321C215.812 150.54 216.796 150.814 217.779 150.888C218.241 150.923 218.619 151.087 219.071 151.122C219.583 151.157 220.099 151.082 220.611 151.112C221.773 151.177 222.866 151.579 224.049 151.57C225.226 151.56 226.279 151.933 227.432 152.017C228.276 152.082 228.823 152.534 229.593 152.693C230.114 152.803 230.76 152.703 231.292 152.703" stroke="black" stroke-miterlimit="10"/>
<path d="M231.739 152.465C232.563 152.654 233.249 152.654 234.074 152.684C234.585 152.704 235.037 152.893 235.544 152.927C236.13 152.972 236.761 152.982 237.327 152.972C238.242 152.957 239.156 153.151 240.06 153.32C240.298 153.365 240.561 153.31 240.79 153.36C241.128 153.435 241.341 153.589 241.694 153.604C242.275 153.629 242.742 153.808 243.328 153.818C244.143 153.833 245.017 154.161 245.827 154.335C246.413 154.459 246.761 154.713 247.337 154.733C247.556 154.733 247.775 154.723 247.988 154.723C248.142 154.718 248.251 154.777 248.311 154.912C248.639 154.957 248.902 155.066 249.161 154.738" stroke="black" stroke-miterlimit="10"/>
<path d="M110.164 134.755C110.805 134.934 111.441 135.008 112.076 135.172C112.474 135.277 112.866 135.431 113.254 135.565C113.457 135.635 113.661 135.655 113.865 135.719C114.153 135.804 114.421 135.878 114.724 135.893C115.057 135.908 115.385 136.043 115.718 136.077C115.812 136.087 115.916 136.077 116.006 136.072C116.175 136.072 116.294 136.112 116.453 136.142C116.806 136.202 117.178 136.202 117.536 136.252C117.715 136.276 117.884 136.331 118.058 136.346C118.207 136.356 118.361 136.326 118.515 136.336C118.683 136.351 118.832 136.421 119.001 136.436C119.16 136.45 119.299 136.416 119.458 136.45C119.786 136.515 120.084 136.515 120.422 136.515C120.73 136.515 121.053 136.57 121.361 136.6C121.515 136.615 121.654 136.689 121.808 136.699C121.907 136.704 122.007 136.679 122.101 136.689C122.315 136.709 122.499 136.784 122.717 136.784C122.846 136.784 122.985 136.779 123.115 136.784C123.308 136.789 123.467 136.863 123.661 136.878C124.307 136.923 124.928 137.132 125.574 137.226C125.872 137.271 126.175 137.351 126.473 137.425C126.89 137.53 127.307 137.574 127.72 137.689C128.048 137.783 128.4 137.798 128.733 137.863C129.031 137.918 129.324 138.002 129.627 138.017C130.313 138.047 131.038 138.211 131.709 138.37C131.992 138.435 132.255 138.44 132.538 138.48C132.906 138.529 133.289 138.619 133.666 138.639C133.939 138.654 134.178 138.629 134.446 138.698C134.729 138.773 135.037 138.892 135.33 138.902C135.554 138.907 135.797 138.868 136.021 138.912C136.359 138.987 136.681 139.156 137.024 139.231C137.486 139.33 137.948 139.33 138.4 139.405C138.718 139.459 139.031 139.514 139.359 139.509C139.637 139.509 139.861 139.524 140.129 139.579C140.417 139.633 140.715 139.564 141.003 139.619C141.326 139.678 141.575 139.673 141.903 139.638C142.076 139.623 142.25 139.678 142.424 139.683C142.732 139.693 143.06 139.643 143.368 139.703C143.661 139.758 143.949 139.872 144.242 139.932C144.506 139.982 144.789 139.952 145.057 139.952" stroke="black" stroke-miterlimit="10"/>
<path d="M145.837 140.006C146.786 139.623 147.551 140.011 148.49 140.006C148.917 140.006 149.354 139.972 149.772 140.046C150.363 140.156 150.989 140.345 151.595 140.364C152.663 140.399 153.681 140.673 154.739 140.852C155.768 141.026 156.846 140.936 157.864 141.16C158.415 141.28 158.967 141.299 159.523 141.424C160.055 141.548 160.527 141.603 161.068 141.603C161.54 141.603 162.037 141.548 162.499 141.643C163.179 141.777 163.781 141.732 164.481 141.772C165.688 141.837 166.9 142.155 168.112 142.135C168.624 142.125 169.041 142.274 169.538 142.324C170.268 142.394 170.974 142.488 171.704 142.627C172.211 142.727 172.737 142.762 173.249 142.851C173.825 142.946 174.421 143.015 175.013 143.02C175.584 143.02 176.105 143.189 176.667 143.204C177.273 143.219 177.799 143.368 178.396 143.383C178.957 143.393 179.424 143.383 179.985 143.508C180.646 143.652 181.292 143.915 181.967 143.915C182.598 143.915 183.135 144.06 183.751 144.099C184.103 144.119 184.461 144.06 184.814 144.08C185.301 144.109 185.733 144.279 186.23 144.269C187.442 144.254 188.599 144.448 189.816 144.443C190.338 144.443 190.73 144.477 191.227 144.582C191.729 144.686 192.26 144.602 192.772 144.617C193.219 144.632 193.622 144.781 194.064 144.801C194.342 144.816 194.635 144.756 194.913 144.786C195.221 144.821 195.479 144.955 195.787 144.98C196.299 145.025 196.826 144.95 197.342 144.965C197.978 144.985 198.559 145.149 199.205 145.144C199.662 145.144 200.124 145.109 200.571 145.184C200.879 145.233 201.113 145.323 201.441 145.328C201.724 145.328 202.027 145.283 202.31 145.313C202.544 145.338 202.737 145.442 202.966 145.487C203.224 145.537 203.477 145.462 203.741 145.537C203.949 145.596 204.108 145.756 204.312 145.82C204.555 145.895 204.809 145.845 205.062 145.85C205.559 145.86 205.991 146.054 206.473 146.163C207.238 146.338 208.023 146.387 208.788 146.561C209.349 146.686 209.921 146.79 210.482 146.875C210.909 146.939 211.833 146.706 212.111 147.093" stroke="black" stroke-miterlimit="10"/>
<path d="M212.275 147.009C212.593 147.039 212.906 147.128 213.224 147.148C213.433 147.163 213.651 147.103 213.855 147.133C214.078 147.163 214.257 147.268 214.491 147.277C214.699 147.287 214.918 147.243 215.122 147.268C215.559 147.317 215.986 147.486 216.428 147.541C217.064 147.621 217.675 147.775 218.311 147.805C219.339 147.854 220.358 148.277 221.391 148.347C222.052 148.396 222.752 148.411 223.413 148.506C224.113 148.605 224.843 148.76 225.549 148.75C226.766 148.735 227.948 149.033 229.16 149.013C229.826 149.003 230.472 149.152 231.143 149.152C231.773 149.152 232.454 149.083 233.08 149.147C233.611 149.202 234.083 149.297 234.625 149.287C235.266 149.282 235.897 149.396 236.528 149.52C237.049 149.625 237.596 149.695 238.127 149.69C238.708 149.68 239.245 149.834 239.811 149.824C240.278 149.819 240.666 149.824 241.118 149.923C241.575 150.023 242.057 150.127 242.509 150.212C242.995 150.306 243.527 150.301 244.034 150.386C244.684 150.495 245.325 150.679 245.981 150.744C246.637 150.809 247.293 150.893 247.953 150.893C248.609 150.893 249.299 150.833 249.95 150.903C251.331 151.057 252.737 151.062 254.093 151.43C255.196 151.729 256.398 151.52 257.511 151.768C258.425 151.972 259.429 152.022 260.377 151.972C260.954 151.943 261.391 151.798 261.987 151.903C262.702 152.027 263.492 152.112 264.218 152.107C265.41 152.097 266.592 152.062 267.769 152.256C268.867 152.44 270.005 152.465 271.083 152.778C271.818 152.992 272.588 152.758 273.323 152.922C273.507 152.962 273.616 153.037 273.81 153.047C274.088 153.062 274.381 153.002 274.655 153.037C274.873 153.067 275.037 153.201 275.261 153.171C275.479 153.141 275.574 153.037 275.792 153.071C276.254 153.141 276.542 153.206 276.999 153.071C277.506 152.927 277.854 153.27 278.326 153.325C278.45 153.708 278.326 154.126 278.445 154.519C278.5 154.688 278.589 154.882 278.619 155.056C278.649 155.24 278.594 155.409 278.644 155.593C278.753 156.026 278.823 156.453 278.907 156.901C278.987 157.319 279.2 157.851 279.563 158.09L279.553 158.01" stroke="black" stroke-miterlimit="10"/>
<path d="M277.481 154.424C277.014 154.653 276.542 154.897 276.085 155.14C275.693 155.349 275.41 155.717 275.002 155.911C274.406 156.2 273.79 156.399 273.189 156.702C271.962 157.324 270.417 157.244 269.106 157.667C268.539 157.851 267.968 157.965 267.412 158.219C266.681 158.542 265.882 158.915 265.107 159.124C264.68 159.244 264.386 159.433 263.974 159.577C263.636 159.691 263.264 159.691 262.916 159.815C262.24 160.059 261.595 160.313 260.929 160.571C260.214 160.85 259.473 161.114 258.768 161.412C258.485 161.531 258.291 161.735 258.023 161.884C257.591 162.123 257.089 162.302 256.642 162.506C255.897 162.844 255.176 163.192 254.391 163.406C253.756 163.58 253.11 163.998 252.514 164.162C251.992 164.306 251.306 164.371 250.76 164.411C250.402 164.436 250.045 164.356 249.687 164.421C249.28 164.495 248.793 164.699 248.405 164.854C247.66 165.147 246.915 165.5 246.18 165.803C245.484 166.087 244.888 166.53 244.178 166.753C242.663 167.221 241.053 167.445 239.593 168.002C238.097 168.574 236.503 168.927 235.012 169.548C234.327 169.832 233.572 170.016 232.861 170.25C232.161 170.478 231.49 170.842 230.815 171.14C230.248 171.394 229.707 171.409 229.121 171.617C228.505 171.836 227.958 171.757 227.307 171.786C226.582 171.816 226.061 172.329 225.43 172.642C224.834 172.935 224.247 173.259 223.646 173.537C222.767 173.945 221.927 174.303 221.028 174.666C219.965 175.089 218.857 175.566 217.755 175.89C216.811 176.163 215.956 176.641 215.017 176.934C214.526 177.088 213.989 177.232 213.512 177.436C212.881 177.7 212.335 178.147 211.674 178.351C210.641 178.665 209.622 179.028 208.594 179.341C207.312 179.734 206.155 180.321 204.838 180.644C202.335 181.261 199.945 182.201 197.501 183.031C196.86 183.25 196.378 183.748 195.713 183.941C195.221 184.086 194.804 184.319 194.327 184.484C193.448 184.787 192.593 185.185 191.724 185.493C191.172 185.687 190.676 186 190.124 186.189C189.801 186.299 189.478 186.538 189.141 186.592C188.823 186.647 188.475 186.533 188.157 186.572C187.635 186.637 187.109 186.856 186.597 186.975C186.1 187.09 185.703 187.313 185.201 187.428C184.843 187.507 184.511 187.696 184.168 187.786C183.82 187.875 183.408 187.885 183.055 187.98C182.846 188.035 182.171 188.403 182.161 187.98" stroke="black" stroke-miterlimit="10"/>
<path d="M182.067 188.293C181.684 188.373 181.292 188.497 180.899 188.542C180.72 188.562 180.551 188.537 180.378 188.582C180.01 188.676 179.702 188.671 179.309 188.681C178.907 188.691 178.544 188.805 178.137 188.81C177.894 188.81 177.784 188.89 177.571 188.935C177.298 188.989 177.004 188.89 176.731 188.935C176.567 188.965 176.448 189.054 176.274 189.074C176.046 189.104 175.787 189.074 175.554 189.074C175.385 189.074 175.216 189.074 175.047 189.074C174.744 189.074 174.526 188.974 174.232 188.94C173.025 188.786 171.828 188.532 170.626 188.293C169.319 188.035 168.023 187.721 166.726 187.453C166.264 187.353 165.832 187.134 165.355 187.124C164.68 187.109 164.019 186.95 163.353 186.846C162.747 186.751 162.146 186.617 161.535 186.607C160.974 186.592 160.358 186.488 159.811 186.373C159.558 186.319 159.314 186.373 159.066 186.314C158.828 186.259 158.674 186.209 158.415 186.209C157.914 186.214 157.506 186.16 157.024 186.05C156.468 185.921 155.931 186.02 155.375 185.941C155.156 185.911 154.923 185.811 154.709 185.757C154.516 185.707 154.337 185.702 154.138 185.662C153.736 185.578 153.358 185.394 152.961 185.299C152.489 185.19 152.037 185.175 151.53 185.175" stroke="black" stroke-miterlimit="10"/>
<path d="M150.785 185.061C149.945 184.996 149.036 184.931 148.227 184.717C147.566 184.543 146.88 184.499 146.2 184.3C144.019 183.673 141.798 183.051 139.553 182.658C138.544 182.479 137.511 182.221 136.488 182.161C135.34 182.091 134.242 181.803 133.095 181.659C132.583 181.594 132.067 181.495 131.56 181.4C131.098 181.316 130.671 181.36 130.204 181.326C129.642 181.281 129.061 181.122 128.51 181.017C127.62 180.853 126.701 180.863 125.817 180.684C124.625 180.44 123.413 180.301 122.211 180.107C121.063 179.923 119.95 179.53 118.808 179.311C118.266 179.207 117.66 179.177 117.109 179.102C116.513 179.023 115.946 178.849 115.36 178.715C114.536 178.526 113.711 178.625 112.866 178.595C110.874 178.526 108.922 177.864 106.94 177.74C105.127 177.625 103.398 177.252 101.619 176.929C101.167 176.845 100.715 176.929 100.263 176.894C99.8758 176.864 99.4734 176.75 99.081 176.68C98.2613 176.546 97.4764 176.367 96.6567 176.163C95.8569 175.964 95.1267 175.726 94.317 175.561C93.8152 175.462 93.4327 175.502 92.9508 175.348C92.6379 175.248 92.4094 175.407 92.1063 175.348" stroke="black" stroke-miterlimit="10"/>
<path d="M90.9837 175.099C90.5117 174.979 90.0001 174.935 89.5331 174.805C89.3244 174.746 89.1506 174.666 88.927 174.651C88.7383 174.641 88.5246 174.701 88.3408 174.666C88.0974 174.616 87.859 174.497 87.6106 174.437C86.3736 174.149 85.1814 173.602 83.8898 173.472C83.5917 173.443 83.3433 173.477 83.0453 173.408C82.7671 173.343 82.4789 173.259 82.1958 173.219C81.9375 173.179 81.6841 173.179 81.4258 173.184C81.2072 173.189 81.0482 173.279 80.8495 173.303C80.3627 173.378 79.6076 173.045 79.1506 172.886C78.6687 172.717 78.0378 172.597 77.5311 172.592C76.2345 172.577 75.0423 172.04 73.7606 171.841C72.931 171.712 72.1163 171.677 71.2867 171.563C70.6558 171.473 70.0398 171.334 69.4139 171.259C68.7631 171.18 68.1123 171.185 67.4616 171.016C66.6866 170.812 65.8967 170.687 65.1168 170.493C64.3269 170.299 63.5271 170.29 62.7472 170.021C62.3249 169.872 61.9474 169.663 61.4953 169.653C61.0333 169.643 60.5713 169.653 60.1093 169.653C59.8908 169.653 59.6672 169.653 59.4486 169.653C59.081 169.653 58.8177 169.539 58.4601 169.494C58.1272 169.454 57.8043 169.489 57.4665 169.429C57.0641 169.359 56.6518 169.305 56.2494 169.245C55.2708 169.101 54.2176 168.793 53.234 168.763C52.3398 168.733 51.5102 168.449 50.626 168.345C49.6871 168.231 48.7681 167.927 47.8341 167.738C46.9101 167.554 46.001 167.291 45.0771 167.112C44.6498 167.027 44.2226 166.942 43.7954 166.858C43.2142 166.738 42.6429 166.768 42.0666 166.684C41.1476 166.545 40.2584 166.256 39.3493 166.082C38.2961 165.878 37.2132 165.749 36.1501 165.575C34.0736 165.237 31.9623 165.077 29.9057 164.655C29.1009 164.491 28.2663 164.421 27.4814 164.212C26.5127 163.958 25.4596 163.993 24.466 163.849C22.5634 163.57 20.6558 163.227 18.7681 162.854C17.0294 162.506 15.2708 162.287 13.5222 162.158C12.6876 162.093 11.848 161.845 11.0284 161.725C10.6806 161.676 10.3329 161.74 9.98019 161.681C9.7169 161.636 9.47348 161.511 9.21516 161.452C8.92703 161.382 8.65381 161.437 8.36568 161.422C8.13716 161.412 7.854 161.327 7.63046 161.273C7.42181 161.223 7.22807 161.138 7.01446 161.084C6.65679 160.994 6.35376 161.009 5.99608 160.959C5.20622 160.85 4.46106 160.542 3.69106 160.343C3.12475 160.193 2.52365 160.119 1.9325 160.079C2.15604 160.154 2.38952 160.273 2.63294 160.233" stroke="black" stroke-miterlimit="10"/>
</g>
<defs>
<clipPath id="clip0_417_11633">
<rect width="300" height="245" fill="white"/>
</clipPath>
</defs>
</svg>
