<svg width="429" height="97" viewBox="0 0 429 97" fill="none" xmlns="http://www.w3.org/2000/svg">
<path d="M205.413 15.0289C209.42 14.8279 207.206 14.1909 208.002 13.7094C212.761 13.2488 210.281 14.1493 211.953 14.4613C214.91 14.1133 217.125 13.3152 219.358 13.255C219.538 13.3704 219.973 13.4015 219.483 13.5799C222.575 12.8472 228.852 13.196 232.469 12.3624C232.747 12.4256 232.888 12.4848 232.964 12.536C232.339 12.1719 232.213 11.7858 232.315 11.5072C234.113 11.4466 235.621 10.9675 236.337 11.4505C235.232 11.4518 235.153 11.6576 234.65 11.8142L236.517 11.5659C238.26 12.2533 233.959 11.8521 234.005 12.3828C237.651 12.0794 241.908 11.4573 244.741 11.6962C245.358 12.3751 238.162 11.9261 241.953 12.5418L237.583 12.2977C240.981 13.3579 234.937 12.254 238.066 13.392C243.786 13.5684 244.437 13.003 250.156 13.3079C251.434 12.9475 249.712 12.7258 250.993 12.3594C255.054 12.1079 256.67 12.5988 258.005 13.0631C259.34 13.5275 260.397 13.9286 263.392 13.6062C264.939 13.2139 265.555 12.3507 269.819 13.0536L268.349 13.7634C273.905 14.1584 271.55 12.8013 277.361 13.7117C276.311 13.9441 272.984 13.6847 273.815 13.8344C277.565 14.6968 276.493 13.567 279.404 13.7592L279.981 14.4951C285.905 14.806 292.455 14.8507 299.032 15.3184C298.658 15.491 297.517 15.6045 299.042 15.9612C303.195 16.1561 307.586 16.6456 312.049 17.1157C316.473 17.5755 320.843 18.0399 324.827 18.5113L327.89 18.1143C328.599 18.1687 329.192 18.4798 328.42 18.5399C331.507 18.9973 328.599 18.1687 330.092 18.0471C331.859 18.1386 332.4 18.5767 331.279 18.6693C334.012 18.633 337.907 18.6979 341.794 19.1084C345.677 19.4942 349.545 20.2683 352.274 21.217L351.147 21.1474C355.427 22.3587 356.361 21.0917 360.256 22.6988L359.454 22.5928C364.12 23.9868 369.134 25.3482 373.725 26.8134C378.334 28.2945 382.586 29.9182 385.847 31.6658C386.677 31.5187 388.875 32.4826 390.967 33.4189C393.062 34.3492 395.045 35.2639 395.613 34.849C397.983 36.2585 398.756 36.8748 399.79 37.5843C400.811 38.3026 402.131 39.0939 405.305 41.1267C407.009 42.1832 408.344 42.0172 410.51 43.2922L410.152 43.8295C411.22 44.2738 412.275 44.7422 413.32 45.2439C413.616 45.7942 413.902 46.3319 414.157 46.8779C414.783 47.3032 415.379 47.752 415.971 48.2069C415.353 47.5952 414.757 46.7669 414.996 46.728C416.477 47.7474 417.946 49.3081 418.847 50.6532C419.762 52.0049 420.143 53.0961 420.004 53.2053C421.545 55.1566 422.589 57.2984 422.82 59.5419C422.568 59.3846 422.375 58.2836 421.993 57.4646C422.198 57.8806 422.278 58.2073 422.361 58.4667C422.41 58.7252 422.437 58.9126 422.432 59.0471C422.437 59.3226 422.332 59.3869 422.23 59.4451C422.135 59.5066 422.033 59.5495 422.003 59.7781C421.972 60.0067 421.999 60.3991 422.039 61.1928C422.272 60.8019 422.417 61.4854 422.545 61.5993C422.178 62.3596 421.688 63.5937 420.902 64.9232C420.133 66.2531 419.058 67.6659 418.036 68.8386L418.062 68.1142C417.592 68.6359 417.089 69.0587 416.597 69.5247C416.043 69.9614 415.523 70.4297 414.907 70.8523C413.731 71.7389 412.389 72.5625 410.982 73.3629C408.155 74.957 404.996 76.3792 401.672 77.5488C404.138 76.8774 403.968 77.7689 402.023 78.5505L400.933 78.1943C399.837 79.0129 403.119 77.7319 400.708 79.0903C398.123 79.8501 398.686 78.9241 400.037 78.2568C399.055 78.6656 398.059 79.068 397.052 79.4424C396.79 79.3032 397.476 78.9897 397.56 78.6954C397.016 79.0834 395.613 79.3239 394.153 79.5596C392.71 79.8112 391.153 80.0625 390.331 80.6228L390.086 80.4688C386.577 81.2321 383.978 81.7345 381.543 82.2079C379.101 82.6781 376.808 83.0976 373.822 83.561C373.845 84.1492 371.467 84.3765 369.799 85.0988C365.372 85.5721 360.394 85.8152 355.109 86.5358C351.443 87.2853 354.124 87.1556 352.511 87.699C352.127 87.2135 346.838 87.8942 349.512 87.1921C346.33 87.6009 344.298 87.8628 342.062 88.1493C339.826 88.4664 337.375 88.8109 333.364 89.382C334.279 89.519 335.282 89.5146 334.8 89.7423C333.342 89.972 331.413 89.8115 331.587 89.5443L331.965 89.4574C327.472 90.2409 322.144 90.2198 317.072 90.1602C311.99 90.0728 307.167 89.9716 303.568 90.6007L303.97 90.5329C301.467 90.7994 298.959 91.0259 296.451 91.2525C292.961 91.2116 298.511 90.8292 295.916 90.5361C287.812 91.4956 283.011 90.3485 276.238 90.8817C270.915 89.2604 257.621 90.8943 250.492 89.9301L250.919 90.2914C249.108 90.6576 248.692 90.0886 247.342 90.0124C247.552 90.2939 249.346 90.3372 248.22 90.5337C232.752 91.0178 216.226 90.2041 200.35 89.948C194.549 89.8702 197.164 91.859 189.804 90.9982L191.843 90.3143C186.016 90.7406 180.038 90.7157 174.064 90.7001C168.096 90.6878 162.173 90.6738 156.462 91.0331C157.14 90.8754 157.147 90.6737 158.262 90.6696C155.818 90.182 149.315 90.6527 149.297 91.0469C147.51 90.9916 148.864 90.6824 147.762 90.4727C145.324 90.1781 141.705 91.0636 140.397 90.5664C140.173 90.4834 141.072 90.4148 141.509 90.3786C139.936 90.6141 134.157 90.2279 135.686 90.8142C131.383 90.4803 127.483 90.914 124.057 90.4558C121.832 91.0364 116.722 89.865 116.011 90.7285C116.318 89.8256 108.523 89.5947 105.803 89.8119C106.713 89.5968 103.462 89.358 104.538 89.0467C101.462 88.8375 98.6311 88.7363 99.1392 89.2652C97.7369 88.8754 96.3235 88.6474 94.939 88.509C93.5544 88.3706 92.2025 88.3464 90.9288 88.2908C88.3776 88.155 86.1485 88.05 84.6246 87.1243C75.4022 86.4079 66.909 85.5047 58.7013 84.2734C58.9271 83.8485 61.1844 84.2174 63.3659 84.5505C65.5507 84.8775 67.653 85.1807 67.5524 84.6699C59.7476 83.8113 55.135 83.7866 47.544 81.9735C45.6053 81.4212 48.746 81.8282 49.4471 81.8028C45.5743 81.1938 41.8889 80.3242 38.343 79.4066C34.7872 78.507 31.3706 77.5443 27.9807 76.7536C28.0239 76.6753 28.7721 76.8165 29.4689 76.9563C28.1525 76.5842 26.4885 75.8808 26.4957 76.3247L27.804 76.6169C28.7445 77.2288 27.3503 77.1238 25.6597 76.8938C23.9552 76.642 21.9819 76.2784 21.8058 76.3926C23.1231 76.1802 21.4917 75.5909 20.0655 74.9923C18.6393 74.3937 17.4287 73.7983 19.4217 73.6852C18.5527 73.4793 17.4443 73.2817 17.5249 73.6084C16.3222 73.0775 16.0196 72.7749 17.3671 72.9489C15.1005 72.2187 14.362 72.0441 13.6581 71.8858C12.9709 71.7127 12.2877 71.5643 10.5155 70.5211C10.6431 70.3687 11.4083 70.7154 11.9077 70.7086C10.8932 70.3883 9.8881 70.0193 8.86221 69.4201C7.84322 68.8243 6.7789 67.9639 6.02594 66.6812C6.24636 66.7703 6.20643 66.4173 6.70371 67.1233C5.13542 65.1436 4.63188 63.2043 4.99998 60.7886C5.28374 58.4469 6.18193 56.0161 8.20288 53.6151C8.08204 54.606 8.46927 54.2196 8.98306 53.6196C9.22795 53.3177 9.54746 52.9752 9.86513 52.7305C10.1759 52.4825 10.4675 52.3166 10.6943 52.3784C11.0019 51.9314 11.3544 51.5134 11.7171 51.0925C12.0834 50.681 12.408 50.2346 12.8157 49.8426C12.3639 50.0466 11.9643 50.2981 11.5334 50.5272C13.6349 48.4529 15.3494 46.355 17.7162 45.0289C17.1565 45.5388 16.6351 46.0897 16.0996 46.6187C16.8533 46.041 17.5929 45.4414 18.3846 44.8893C19.159 44.3214 19.9542 43.7786 20.7738 43.2549L19.2771 44.0128L17.8086 44.8144C18.9722 43.7774 18.737 43.6206 18.6559 43.4683C18.5711 43.3067 18.6471 43.1376 20.5056 42.1179C19.8087 42.6086 23.2407 40.5028 24.9832 40.1345C26.2239 39.21 27.5186 38.2351 29.7944 37.4204C30.4919 37.3857 29.81 38.3847 30.2648 38.3643C30.8059 37.762 32.4653 36.914 34.2177 36.1024C35.9701 35.2907 37.7527 34.4402 38.5115 33.7586C37.9774 34.1592 38.1512 34.5375 38.3905 34.5292L39.3465 33.5536C40.8179 33.1407 41.0573 33.1324 40.995 33.513C45.2156 31.9321 39.172 33.1293 44.3646 31.5676C43.9913 31.7556 44.2171 31.756 43.4433 32.1496C48.5438 30.3924 53.0317 28.2012 57.8657 26.8952C59.5877 27.1628 53.8327 28.4358 55.709 28.5182C62.4001 26.1007 69.466 23.1618 76.2791 21.5159L74.9968 21.7752C75.5265 20.4688 80.2112 20.9302 83.4535 19.5777C82.6405 19.869 82.5641 20.4329 82.7461 20.2607C87.4413 19.2536 92.1541 17.6473 99.1543 15.7254L98.3647 16.195C101.209 15.8161 105.687 14.7292 108.728 14.2459C109.535 13.7922 111.265 13.4786 110.102 13.3008C119.8 12.9663 127.61 9.08836 136.27 9.09066C135.277 9.25133 133.96 9.69934 134.755 9.58184C137.088 9.1207 139.428 8.67814 141.779 8.24811C141.105 7.86124 140.781 8.10265 139.201 7.95549C140.036 7.54541 141.988 7.03336 143.753 6.78204C140.621 7.5564 143.954 7.52225 145.395 7.60419C145.127 7.4923 145.571 7.26969 145.419 7.13671C149.321 7.47113 145.826 6.0838 151.039 5.99755L150.821 6.28187C152.694 5.91436 154.392 5.35817 156.463 5.19841C157.425 5.64573 154.479 5.68813 154.439 6.1551C157.321 5.78651 159.937 4.44937 162.665 4.7219C161.462 5.01106 159.693 5.19187 158.493 5.49032C161.468 5.80373 161.77 5.61978 163.903 5.48938L163.69 5.49542C165.338 5.40896 166.99 5.36241 168.645 5.29452L167.368 5.24494C169.058 4.35803 170.898 4.11197 172.907 3.93817C174.916 3.74906 177.09 3.63822 179.478 2.98286C174.838 4.23636 178.762 3.55553 178.492 4.20244C179.773 4.27661 181.693 4.32663 181.183 4.54122C183.431 3.88787 185.099 4.66184 188.273 3.73266C188.444 3.92736 190.759 3.6095 190.292 4.1405C193.284 3.80878 189.541 3.83091 189.762 3.57119C194.339 2.62181 200.774 3.86563 207.405 2.78661C213.166 2.29106 214.202 1.61147 219.575 1.26676C221.414 1.5898 218.122 1.9923 218.122 1.9923C221.073 2.28664 223.272 2.2408 226.034 2.04309C225.479 2.21352 226.063 2.36829 226.918 2.59832C229.139 2.57756 228.378 1.89134 231.313 2.23111C230.82 2.44619 230.186 2.79177 229.122 3.00238C231.726 2.85212 234.305 2.54502 237.009 2.43439C237.737 2.80143 235.385 2.91932 234.437 3.12415C237.471 3.03231 242.316 3.03016 243.252 2.51594L241.294 2.25062C242.402 2.25856 241.873 2.74489 241.05 2.81873C238.445 3.174 237.284 2.51893 237.131 2.30942L239.059 2.23424C237.055 0.997591 231.302 2.21856 227.427 2.1022L229.015 1.27351L225.053 1.92875C224.197 1.69872 223.594 1.21599 225.509 1.10367C222.702 0.657506 223.053 1.37763 220.636 0.90308C220.372 0.831086 220.484 0.785407 220.726 0.755778L218.014 1.00693C218.538 0.829478 217.528 0.405246 219.207 0.530823C214.279 0.0379064 211.355 1.22226 209.474 0.598113L209.88 0.539615C203.122 0.966241 209.268 1.17652 204.252 2.0243L200.694 0.577003L200.085 1.22319C199.387 1.22726 198.001 1.23264 198.23 0.976179C195.676 1.50735 198.699 1.22857 197.232 1.69667C195.524 1.46621 193.218 1.65886 191.228 1.76591C189.246 1.89154 187.581 1.94688 187.138 1.47191C185.994 2.01676 190.392 1.65883 186.856 2.18883C185.693 1.19099 182.75 2.6318 179.629 2.37837C180.488 1.75174 183.432 1.83781 180.297 1.56255C178.59 2.63866 174.313 1.81598 171.761 2.23398C171.762 2.98676 166.21 3.04166 161.952 3.76166C162.18 3.47458 153.775 4.23859 149.732 4.52121L149.825 4.38319C149.209 5.21582 145.073 5.63645 142.119 6.21407C142.132 5.74936 142.624 5.48836 144.205 5.06643L141.392 5.46763C140.788 5.80493 139.937 6.05541 138.139 6.41288L138.714 5.75039C134.98 6.33887 131.363 7.56719 126.484 8.00897C126.356 8.5713 130.657 8.79804 125.709 10.0119C125.445 9.76554 125.133 9.32192 126.421 8.97403C126.002 9.08723 124.944 9.4755 124.045 9.51347L125.934 8.69053C123.706 8.86711 124.903 9.28154 123.156 9.54867C123.084 9.14268 121.797 9.49057 121.952 9.13098C122.381 9.01501 123.514 9.02672 124.135 8.75115C122.155 9.01453 119.726 9.225 118.864 9.06825C119.097 9.26169 119.013 9.60195 117.602 9.92175C113.912 10.6522 116.202 9.68499 113.981 9.89545C113.168 10.3459 110.731 10.5225 110.84 11.1285C109.762 11.3479 109.474 11.1131 109.011 11.0383C107.181 11.6763 100.15 12.9915 102.493 13.1579L102.992 13.0899C102.907 13.118 102.801 13.1516 102.689 13.182C96.6672 15.1111 89.6904 15.7302 83.67 17.5155L83.6121 17.3211C80.0444 18.4438 75.563 19.552 73.1486 20.6808C72.0755 20.9707 70.489 21.0406 70.856 20.675C68.1543 21.5996 67.9403 21.9085 63.8417 22.7801C66.4575 21.6173 62.7636 22.7639 66.5647 21.6908C62.9249 22.5819 61.9833 22.5391 58.4118 24.2675C59.4816 23.3533 55.4735 24.5335 53.863 25.2299L56.4968 24.7592C54.6397 25.4454 52.9784 25.966 51.3038 26.5106L51.8975 25.5611C50.002 25.986 48.2906 26.5816 46.7035 27.2512C45.106 27.9083 43.6365 28.6486 42.2247 29.3631C40.8024 30.0651 39.445 30.7598 38.0616 31.3282C36.6747 31.8874 35.2724 32.3482 33.7781 32.6136C32.1966 33.8402 37.7188 31.2876 36.3665 32.5087C34.7552 33.1592 32.9867 33.6063 31.5043 33.976C30.0323 34.3583 28.8221 34.6289 28.333 34.8533C26.064 35.6712 25.19 36.4198 24.333 37.1689C23.9011 37.5418 23.4658 37.9207 22.8673 38.3591C22.2652 38.7883 21.4858 39.2551 20.3763 39.8315C20.7311 39.7715 21.1355 39.8109 21.0789 40.1183C21.0259 40.4349 20.4768 40.9727 19.016 42.0438C16.1123 43.807 14.7978 43.5575 16.4621 42.165C17.1352 41.6859 17.5193 41.5258 17.5481 41.6153C18.4372 40.9498 19.6174 40.0878 18.2706 40.59L18.0519 41.0334C17.2294 41.3735 15.8474 42.2388 14.7532 42.9136C13.6763 43.6042 12.8662 44.0793 13.173 43.5865C12.2054 44.4731 12.09 44.7451 12.3754 44.6218C12.5216 44.5619 12.7759 44.4163 13.0907 44.2083C13.416 44.0128 13.809 43.7734 14.2256 43.5071C12.2942 44.6746 10.9644 45.8076 9.6834 46.9941C9.02554 47.5715 8.44785 48.24 7.77078 48.8995C7.42701 49.223 7.12203 49.618 6.76879 49.9901C6.4329 50.3781 6.02831 50.7487 5.67298 51.2034C6.23271 50.6935 6.95328 50.3964 6.47605 50.9301C4.28618 53.4639 4.16237 54.2711 4.0602 54.7241C3.9823 55.1961 4.10989 55.469 3.25993 57.4973C2.66565 58.6213 2.49692 58.344 2.34928 58.3122C2.27035 58.2976 2.19931 58.3476 2.08162 58.6868C2.02277 58.8565 1.94448 59.0928 1.86435 59.4271C1.8118 59.7744 1.75741 60.2195 1.68789 60.7866C1.58731 61.1264 1.49571 61.3868 1.42357 61.5806C1.34811 61.7803 1.30613 61.9351 1.25627 62.0255C1.15987 62.2001 1.06998 62.1424 0.998295 61.9414C0.830673 61.5204 0.861753 60.6921 0.858748 60.0831C0.823207 60.6359 0.756267 61.151 0.703363 61.688C0.674966 62.2594 0.649893 62.8247 0.679491 63.3855C0.731793 64.5039 0.903664 65.6105 1.22451 66.6204C1.87311 68.6436 2.96003 70.2665 3.98596 71.2909C3.28194 70.7073 2.60095 70.0663 1.98669 69.3201C3.096 70.6346 4.07217 71.5444 5.10202 72.3884C4.81791 71.9578 4.56422 71.5037 4.33453 71.0533C5.39285 72.1766 6.46161 72.8871 6.29982 73.0384C7.0474 73.354 6.92572 73.0231 6.99047 72.7955C7.05165 72.5586 7.2691 72.464 8.62659 73.0453C9.35818 73.6419 10.6582 74.2644 11.8093 74.7784C12.9571 75.2985 13.9598 75.7348 14.1239 76.1465C11.4799 74.934 11.5677 75.0743 11.7165 75.3877C11.7908 75.5367 11.8962 75.7081 11.6875 75.7081C11.4754 75.7141 10.9564 75.5674 9.79075 75.0009C10.714 75.392 11.7934 75.9101 13.066 76.5348C13.2292 76.6803 12.8238 76.5797 12.4489 76.4555C14.9619 77.8264 15.6565 77.8283 16.3683 77.8308C17.0899 77.8152 17.8589 77.7612 20.535 78.6319C19.7363 78.7554 21.5545 79.6837 22.4301 79.8776C20.2943 79.194 21.6185 78.9849 23.6498 79.338C26.9629 80.6772 27.4398 80.3331 29.2314 80.8843C28.5568 80.6412 27.8822 80.3981 27.2108 80.1337C28.0199 80.0227 29.7292 80.5653 32.1645 81.1475C32.2897 81.4877 29.9263 80.6965 30.7467 81.0693C33.596 81.2322 36.6214 83.3922 40.5231 83.8857C42.2137 84.5409 40.5276 84.5865 42.0279 85.1138C46.3885 85.6269 46.5384 86.6471 51.1114 87.1847C49.9088 86.4489 49.6638 86.5304 52.9132 86.6774C50.4336 86.3173 47.9568 85.9206 45.4796 85.4932C47.1035 85.6233 48.73 85.7014 50.3465 85.7977C49.241 85.5634 48.0544 85.3971 46.9844 85.2404C45.9108 85.0744 44.9536 84.9179 44.3005 84.7305C46.6323 84.8384 46.3699 84.9042 45.4018 84.2792C48.2676 85.6726 51.4888 85.1304 54.8948 86.2856L54.5716 87.4542C59.7866 88.9714 64.1008 88.5284 70.9484 89.8607L68.7601 89.3194C69.7505 88.9904 73.0258 89.8939 75.2861 90.0212C75.0287 90.3931 76.4062 90.7333 77.3295 91.1244C77.2492 90.813 82.3812 91.8504 83.0948 91.1246C84.1058 91.4357 85.1032 91.7556 86.1208 92.0546C91.7127 92.9677 92.6259 91.6756 97.9914 92.3374C96.3366 92.6256 98.7744 93.1559 95.1331 93.1045C96.936 93.3041 98.5543 93.5074 98.6012 93.2334C99.64 93.5728 103.622 93.1324 105.262 93.6118C106.027 93.4872 106.294 93.082 108.312 93.2542C108.526 93.3553 108.298 93.4527 108.298 93.4527C108.315 93.2635 111.465 93.3709 109.715 92.824C115.239 94.4573 125.187 93.4661 130.017 94.6415C133.941 94.6063 138.658 94.5362 142.209 94.5299C141.985 94.6518 142.202 94.7316 141.531 94.6875C146.458 95.1039 144.496 93.5533 150.091 93.9892C152.976 94.655 147.143 94.3345 148.934 94.5888C149.776 95.9292 155.654 94.4181 159.447 95.1869L158.542 95.2675C161.434 95.7162 165.51 94.743 170.196 94.8249C170.196 94.8249 169.975 94.9409 170.178 95.0294C173.342 94.3386 179.381 94.1113 183.884 93.9247C182.51 94.4445 181.853 94.2019 182.734 94.7326C184.748 94.6599 182.101 93.8787 186.122 93.7301C187.451 94.0168 190.37 94.2582 190.787 94.8273L186.982 94.866C188.972 95.5942 191.905 94.8324 193.916 94.9555L193.678 95.2759C199.503 95.1525 199.531 94.3455 205.803 94.3729L205.142 94.1363C208.517 93.317 208.034 94.5697 211.418 93.9526L212.502 94.7615C214.75 94.5488 220.365 93.9235 224.403 93.7448C222.148 94.3642 217.432 94.7006 214.519 95.0775C216.76 95.0665 222.12 94.9662 223.26 94.5559C222.361 94.6397 221.239 94.8456 220.337 94.7305C223.046 94.0754 226.634 93.7366 231.095 93.7201C230.402 95.291 242.74 94.0484 246.045 95.2619C253.894 94.653 261.695 95.4716 270.874 95.431C267.559 94.1896 273.556 95.4084 272.934 94.1571C275.072 94.0972 275.886 94.118 276.083 94.2032L282.597 95.021C284.15 95.406 280.572 95.2708 280.778 95.5584C285.468 95.7108 282.748 96.1178 285.885 96.4849C285.231 96.0313 287.503 95.8529 290.202 96.0512L286.384 95.4377C289.664 95.1358 291.102 95.3982 292.543 95.6545C293.991 95.9141 295.45 96.1862 298.745 95.793L296.668 96.2157C300.062 95.9753 309.262 95.9445 312.48 94.7779C313.094 94.8938 313.927 95.1966 312.445 95.3613C320.606 95.1654 330.336 93.2132 336.687 93.2398L336.121 93.6026C337.613 93.3739 338.644 92.7982 340.575 92.9067C340.499 93.0452 340.023 93.2761 340.724 93.2201C341.497 93.0316 344.62 92.2906 346.634 92.2332L345 92.7668C352.921 92.313 356.844 90.5306 363.313 89.4285C363.492 90.3333 369.693 89.7497 372.764 89.4325L372.687 89.571C381.7 88.3199 387.954 86.5843 396.085 84.1263C398.832 83.9221 403.189 82.7398 407.735 80.9481C412.291 79.1689 416.998 76.7546 420.62 74.1312C420.027 74.4963 419.942 74.3194 420.134 73.9395C420.234 73.7435 420.394 73.5004 420.609 73.2374C420.806 72.9586 421.044 72.6534 421.31 72.3766C422.138 71.743 422.887 70.6388 423.488 69.7538C424.069 68.8589 424.52 68.2143 424.831 68.566C424.697 68.761 424.543 68.9462 424.402 69.1379C425.245 68.777 426.184 67.6418 426.957 66.1314C427.73 64.621 428.209 62.6981 428.338 60.967C427.944 60.7351 427.568 60.5191 427.168 60.3147C427.414 59.2693 427.477 58.0839 427.32 56.8554C427.157 55.6236 426.753 54.3695 426.193 53.1629C425.066 50.731 423.252 48.5819 421.389 46.7742C417.608 43.1632 413.624 40.8008 412.103 38.9571C410.193 38.0537 407.985 36.7591 406.047 36.017L406.464 35.5763C403.994 34.1425 402.093 33.1445 400.017 32.1322C397.934 31.1319 395.67 30.1141 392.388 28.8278L393.897 29.0096C390.227 27.4336 388.553 28.6239 385.142 27.3675L384.445 26.1875C381.196 25.0001 377.976 23.6973 374.697 22.5642C373.062 21.9962 371.391 21.4639 369.731 21.0206C368.071 20.5774 366.405 20.1921 364.704 19.919C364.85 19.8284 365.117 19.6434 366.202 19.9138C364.648 19.4523 361.663 18.4654 359.134 17.8162C356.605 17.167 354.561 16.8532 355.003 17.5638C355.059 17.1799 353.31 16.7402 351.067 16.3931C348.827 16.04 346.093 15.8101 344.202 15.7059L344.862 15.2356C341.609 15.4893 341.498 15.6574 337.114 15.3762C336.085 15.1931 336.236 14.8243 337.606 15.1152C334.174 14.4641 334.88 15.3751 330.726 14.7243L332.3 14.4888C328.76 14.1589 329.034 14.3872 327.068 14.6724C324.845 14.7451 320.379 14.0913 319.874 13.5411C319.389 13.8207 317.448 14.125 315.383 13.832C315.109 13.619 315.871 13.5465 316.247 13.5115C310.397 12.7347 307.521 13.4706 303.489 12.5357C303.414 12.3408 303.159 12.2201 302.826 12.1308C307.524 12.5986 311.229 12.9609 310.88 12.963C310.895 12.4463 307.186 12.0135 310.187 11.5566C308.696 11.6262 306.631 11.7433 304.466 11.7749C302.311 11.8036 300.083 11.7599 298.247 11.4614C298.075 11.3952 297.903 11.329 297.771 11.2364L298.158 11.214C297.307 11.0851 296.544 11.0659 295.819 11.0875C294.645 10.8972 293.901 10.7652 292.773 10.665C292.355 10.1937 288.439 10.0578 286.547 9.89236C286.677 10.4775 284.209 10.1912 286.505 10.8519C286.21 10.7882 286.867 10.8105 288.12 10.8869C288.404 10.8922 288.74 10.9142 288.928 10.8891C288.887 10.9001 288.843 10.9172 288.795 10.925C290.039 11.0195 291.649 11.1431 293.485 11.2824C291.975 11.4494 290.41 11.5597 288.339 11.0738C287.351 11.3662 286.268 11.6589 285.658 11.7879C283.113 10.7742 278.146 9.98941 277.46 9.45224C271.672 9.36564 263.825 8.85163 260.197 9.80118C258.555 9.87559 258.312 9.41867 257.696 9.22626C258.643 9.1499 259.773 9.21354 260.284 9.07549C257.002 9.209 250.543 8.8733 249.785 9.6314C245.639 9.21947 252.091 8.96752 246.409 9.00637L247.168 8.78073C241.539 8.1082 236.993 8.63928 232.345 9.18267C227.694 9.73207 222.916 10.29 216.674 9.78316C217.537 9.84206 217.969 9.86385 218.155 9.98252C204.016 9.88733 189.32 12.2023 175.371 11.9842C171.416 12.0123 171.054 12.525 168.702 13.0376L167.772 12.4688L163.764 13.4287C158.027 14.3227 153.51 12.3914 146.231 13.9839L147.249 14.3135C146.586 14.3492 145.732 14.4313 144.83 14.5212C143.928 14.6265 142.979 14.7395 142.132 14.8401C140.432 15.0689 139.099 15.1982 139.273 14.931C139.018 15.0459 138.512 15.4901 137.43 15.434L137.268 15.1294C136.204 15.3706 135.166 15.6921 134.12 15.9798C133.081 16.286 132.053 16.62 131.032 16.9574C128.564 17.491 128.63 17.135 128.417 16.8748C128.316 16.7433 128.143 16.6311 127.548 16.6994C127.251 16.7336 126.852 16.8107 126.297 16.9505C126.024 17.019 125.707 17.1046 125.346 17.2072C124.999 17.3317 124.601 17.47 124.159 17.6254C122.871 18.1477 121.183 19.157 120.003 20.0191C118.84 20.9122 118.129 21.586 118.64 21.4479C119.618 20.9686 121.206 20.3449 121.474 20.6312C120.761 21.0081 120.095 21.4599 119.417 21.8684C119.514 22.3853 119.32 23.0528 119.79 23.3358C120.025 23.4773 120.422 23.5287 121.091 23.4198C121.753 23.3075 122.679 23.0317 124.059 22.6437L124.871 22.1166L125.726 21.6398C126.299 21.3261 126.858 20.9753 127.459 20.6899L128.887 20.7347L127.294 21.2573L125.747 21.8546C127.692 21.5749 128.674 20.8998 129.874 20.2373C130.284 20.3931 130.893 20.4079 131.688 20.2904C132.261 19.9613 132.866 19.6853 133.463 19.3906C134.061 19.096 134.668 18.7986 135.294 18.5323C135.88 18.8096 133.744 19.5916 136.439 19.294C138.178 18.5371 134.419 18.7944 137.443 17.9618C139.526 18.0961 139.002 18.4939 141.25 17.8405C141.626 18.0412 141.164 18.2633 140.278 18.4822C142.267 17.9039 145.716 17.7202 146.726 17.1347C148.891 17.4673 153.84 16.489 153.749 17.4104C154.384 17.1567 157.405 16.4892 159.37 16.3478C155.911 17.6358 166.741 15.9911 165.936 17.1977C168.467 16.063 175.466 16.1759 180.095 15.3351C179.843 15.4287 179.347 15.6192 178.926 15.5947C181.576 15.5039 182.387 15.751 184.103 15.8256C184.339 15.0033 188.428 14.5598 190.58 13.9221C193.915 14.4969 188.739 14.9881 189.852 15.6663C189.605 15.0257 195.392 14.6717 194.221 14.1938C196.762 14.522 196.382 14.2967 197.743 14.8873C198.051 13.856 200.024 14.5837 202.003 13.8491C205.649 14.1454 203.041 14.7423 206.94 14.2168C208.849 14.4287 205.395 14.9672 205.395 14.9672L205.413 15.0289ZM299.052 15.1231L299.046 15.1352C298.234 15.0778 297.542 15.0239 297.107 14.9928C297.511 15.0169 298.073 15.0547 299.052 15.1231ZM306.958 15.8622C305.994 15.7484 304.798 15.6308 303.534 15.5112C303.267 15.2861 303.582 15.1087 304.377 15.1962C303.937 15.2843 305.793 15.5773 306.958 15.8622ZM290.445 10.3613C291.708 10.389 292.125 10.5328 292.284 10.669C291.688 10.6302 290.997 10.5916 290.086 10.5558C290.049 10.5761 289.97 10.5922 289.933 10.6125C290.058 10.5121 290.203 10.4215 290.442 10.3673L290.445 10.3613Z" fill="black"/>
</svg>
