<svg width="130" height="154" viewBox="0 0 130 154" fill="none" xmlns="http://www.w3.org/2000/svg">
<circle cx="65" cy="71" r="65" fill="#075438"/>
<path d="M102.438 104H64.3438V102.781C65.6771 102.781 66.75 102.698 67.5625 102.531C68.375 102.365 69 102.073 69.4375 101.656C69.8958 101.219 70.1979 100.635 70.3438 99.9062C70.4896 99.1562 70.5625 98.2188 70.5625 97.0938V66.875C70.5625 65.75 70.4896 64.8229 70.3438 64.0938C70.1979 63.3438 69.8958 62.7604 69.4375 62.3438C69 61.9062 68.375 61.6042 67.5625 61.4375C66.75 61.2708 65.6771 61.1875 64.3438 61.1875V59.9688H101.219V72.9688H100C99.6042 70.8646 99.0521 69.1354 98.3438 67.7812C97.6354 66.4062 96.7292 65.3229 95.625 64.5312C94.5417 63.7396 93.2292 63.1875 91.6875 62.875C90.1458 62.5625 88.3438 62.4062 86.2812 62.4062H80.7812V80.375H82.1875C83.7292 80.375 84.9896 80.1146 85.9688 79.5938C86.9688 79.0521 87.7708 78.3229 88.375 77.4062C89 76.4688 89.4688 75.375 89.7812 74.125C90.0938 72.8542 90.3438 71.4896 90.5312 70.0312H91.75V93.0625H90.5312C90.3229 91.7292 90.0521 90.4479 89.7188 89.2188C89.4062 87.9896 88.9479 86.9062 88.3438 85.9688C87.7396 85.0312 86.9479 84.2812 85.9688 83.7188C84.9896 83.1562 83.7292 82.875 82.1875 82.875H80.7812V97.0938C80.7812 97.9479 80.8438 98.6667 80.9688 99.25C81.0938 99.8125 81.3438 100.271 81.7188 100.625C82.0938 100.958 82.625 101.198 83.3125 101.344C84 101.49 84.9062 101.562 86.0312 101.562C88.4062 101.562 90.4792 101.406 92.25 101.094C94.0417 100.76 95.6146 100.167 96.9688 99.3125C98.3438 98.4583 99.5208 97.2917 100.5 95.8125C101.5 94.3125 102.396 92.3958 103.188 90.0625H104.344L102.438 104Z" fill="#DFDCD5"/>
<path d="M63.4375 84H25.3438V82.7812C26.6771 82.7812 27.75 82.6979 28.5625 82.5312C29.375 82.3646 30 82.0729 30.4375 81.6562C30.8958 81.2188 31.1979 80.6354 31.3438 79.9062C31.4896 79.1562 31.5625 78.2188 31.5625 77.0938V46.875C31.5625 45.75 31.4896 44.8229 31.3438 44.0938C31.1979 43.3438 30.8958 42.7604 30.4375 42.3438C30 41.9062 29.375 41.6042 28.5625 41.4375C27.75 41.2708 26.6771 41.1875 25.3438 41.1875V39.9688H62.2188V52.9688H61C60.6042 50.8646 60.0521 49.1354 59.3438 47.7812C58.6354 46.4062 57.7292 45.3229 56.625 44.5312C55.5417 43.7396 54.2292 43.1875 52.6875 42.875C51.1458 42.5625 49.3438 42.4062 47.2812 42.4062H41.7812V60.375H43.1875C44.7292 60.375 45.9896 60.1146 46.9688 59.5938C47.9688 59.0521 48.7708 58.3229 49.375 57.4062C50 56.4688 50.4688 55.375 50.7812 54.125C51.0938 52.8542 51.3438 51.4896 51.5312 50.0312H52.75V73.0625H51.5312C51.3229 71.7292 51.0521 70.4479 50.7188 69.2188C50.4062 67.9896 49.9479 66.9062 49.3438 65.9688C48.7396 65.0312 47.9479 64.2812 46.9688 63.7188C45.9896 63.1562 44.7292 62.875 43.1875 62.875H41.7812V77.0938C41.7812 77.9479 41.8438 78.6667 41.9688 79.25C42.0938 79.8125 42.3438 80.2708 42.7188 80.625C43.0938 80.9583 43.625 81.1979 44.3125 81.3438C45 81.4896 45.9062 81.5625 47.0312 81.5625C49.4062 81.5625 51.4792 81.4062 53.25 81.0938C55.0417 80.7604 56.6146 80.1667 57.9688 79.3125C59.3438 78.4583 60.5208 77.2917 61.5 75.8125C62.5 74.3125 63.3958 72.3958 64.1875 70.0625H65.3438L63.4375 84Z" fill="#DFDCD5"/>
</svg>
