<svg width="1800" height="946" viewBox="0 0 1800 946" fill="none" xmlns="http://www.w3.org/2000/svg">
<path d="M1667.59 4.77152C1653.72 6.20011 1639.82 7.33585 1625.94 8.74302C1600.69 11.4502 1575.42 13.9931 1550.1 16.1003C1507.42 19.7432 1464.63 22.579 1421.79 23.2361C1400.24 23.629 1378.7 23.0576 1357.16 22.2576C1339.57 21.6433 1321.96 21.2647 1304.36 22.1004C1291.51 22.7933 1278.68 24.179 1265.99 26.4005C1250.73 29.0505 1235.7 33.1792 1221.35 39.0436C1209.05 44.1365 1197.34 50.5366 1186.05 57.5582C1172.32 66.1798 1159.18 75.7585 1146.77 86.1944C1135.17 95.9946 1124.22 106.538 1113.77 117.559C1097.55 134.474 1082.96 152.831 1068.37 171.139C1057.29 184.982 1046.09 198.739 1034.58 212.218C1022.61 226.14 1010.3 239.79 997.371 252.833C987.557 262.676 977.321 272.091 966.799 281.169C947.449 297.77 929.949 311.256 907.255 324.22C886.691 335.663 869.026 342.999 846.647 350.235C835.583 353.778 824.368 356.864 813.046 359.478C806.582 360.942 800.082 362.271 793.56 363.478C786.917 364.692 780.246 365.735 773.56 366.664C746.388 370.285 718.98 371.478 691.637 373.014C667.451 374.378 643.258 376.093 619.236 379.328C607.986 380.807 596.764 382.6 585.671 384.986C574.914 387.35 564.242 390.329 554.12 394.714C548.449 397.172 543.013 400.143 537.899 403.615C533.584 406.6 529.52 409.929 525.613 413.429C516.727 421.558 508.612 430.486 500.869 439.694C493.769 448.201 487.348 457.258 481.24 466.494C468.14 486.602 456.111 507.395 442.675 527.288C437.154 535.617 431.189 543.696 426.568 549.589C421.975 555.396 417.146 561.046 411.711 566.089C405.71 571.439 403.31 573.175 396.332 577.775C390.574 581.453 384.631 584.832 378.488 587.832C371.181 591.268 367.867 592.582 360.617 595.297C353.445 597.982 346.181 600.404 338.859 602.661C327.888 606.011 316.673 608.461 305.409 610.597C294.144 612.761 282.837 614.726 271.522 616.633C223.143 624.861 173.935 631.354 127.805 648.826C115.834 653.426 104.176 658.869 93.0904 665.312C83.5974 670.969 74.5901 677.42 66.1971 684.598C56.5255 693.063 47.911 702.684 40.2109 712.97C35.4393 719.342 31.0036 725.963 27.0392 732.863C23.482 739.149 20.3891 745.685 17.6176 752.349C11.4389 767.078 7.58169 782.65 4.51021 798.286C2.66017 808.243 0.960143 818.265 0.310131 828.387C-0.589885 845.058 0.395847 861.951 4.23163 878.238C3.92448 871.452 4.2102 864.652 4.59592 857.873C5.16022 848.244 6.11024 838.644 7.25312 829.072C7.97456 823.229 8.62457 818.051 10.296 808.201C12.5104 795.793 15.2318 783.457 18.8748 771.386C24.3106 753.657 31.8893 737.856 43.6466 721.385C50.5753 711.584 61.0398 699.391 72.3115 689.734C76.4401 686.348 75.8758 686.691 79.383 684.027C85.1474 679.591 91.2332 675.598 97.4619 671.841C108.484 665.498 118.555 660.826 128.055 657.033C171.992 640.012 218.886 633.069 265.144 625.44C277.958 623.347 290.751 621.161 303.523 618.804C316.737 616.347 329.938 613.647 342.766 609.597C357.924 604.832 373.01 599.54 387.153 592.239C398.553 586.132 409.625 579.082 418.954 570.068C424.525 564.71 429.425 558.71 434.154 552.61C439.211 546.131 444.004 539.446 448.618 532.638C456.433 521.045 463.89 509.216 471.247 497.331C478.069 486.352 484.783 475.302 492.069 464.616C499.612 453.43 505.512 445.987 515.062 435.329C522.42 427.172 530.127 419.251 538.791 412.465C539.799 411.743 540.777 410.993 541.799 410.293C543.784 408.943 545.82 407.665 547.884 406.443C552.456 403.822 557.313 401.543 559.706 400.629C571.721 395.814 584.364 392.764 597.057 390.35C616.7 386.728 631.5 385 651.308 383.121C684.901 380.043 718.673 379.393 752.267 376.278C768.96 374.714 785.575 372.385 802.011 369.071C819.047 365.678 835.854 361.178 852.326 355.692C873.726 348.521 894.584 339.528 914.063 328.085C933.134 316.87 950.778 303.398 967.664 289.141C977.935 280.412 987.935 271.362 997.586 261.955C1005.59 254.112 1013.29 245.962 1020.85 237.697C1038.26 218.833 1054.64 199.068 1070.78 179.118C1085.39 161.024 1099.82 142.745 1115.84 125.859C1138.47 101.738 1161.19 82.1158 1188.1 65.3941C1199.99 57.9439 1212.37 51.2509 1225.36 45.9508C1225.04 46.0866 1224.73 46.2223 1224.4 46.358C1227.42 45.2651 1230.4 44.0508 1233.45 43.0508C1240.53 40.6365 1247.75 38.6293 1255.05 36.9578C1279.85 31.4577 1302.88 30.022 1330.09 30.2863C1346.36 30.4291 1362.61 31.2791 1378.88 31.7577C1392.86 32.1506 1406.86 32.1649 1420.85 31.9292C1465.93 31.1363 1510.93 27.9291 1555.82 23.8862C1572.06 22.429 1588.29 20.9147 1604.49 19.0789C1617.98 17.5217 1631.49 16.1074 1644.98 14.486C1658.13 12.8645 1670.09 11.4288 1683.66 9.65732C1700.42 7.30013 1717.11 4.40722 1733.68 0.950017C1735.18 0.635726 1736.68 0.321434 1738.18 0C1714.58 0.614297 1691.02 2.22147 1667.55 4.7358L1667.59 4.77152Z" fill="#075438"/>
<path d="M1678.07 17.7149C1664.2 19.1435 1650.3 20.2792 1636.42 21.6864C1611.17 24.3936 1585.9 26.9365 1560.58 29.0437C1517.89 32.6866 1475.11 35.5223 1432.26 36.1795C1410.72 36.5724 1389.18 36.0009 1367.64 35.2009C1350.05 34.5866 1332.43 34.208 1314.84 35.0438C1301.98 35.7366 1289.15 37.1224 1276.47 39.3438C1261.2 41.9939 1246.18 46.1225 1231.82 51.9869C1219.52 57.0799 1207.82 63.48 1196.52 70.5016C1182.8 79.1231 1169.66 88.7019 1157.25 99.1378C1145.65 108.938 1134.69 119.481 1124.25 130.503C1108.03 147.417 1093.44 165.775 1078.84 184.082C1067.76 197.925 1056.57 211.683 1045.06 225.162C1033.09 239.083 1020.78 252.733 1007.85 265.777C998.035 275.62 987.799 285.034 977.277 294.113C957.927 310.713 940.427 324.199 917.734 337.164C897.169 348.607 879.504 355.942 857.125 363.178C846.061 366.721 834.846 369.807 823.525 372.421C817.06 373.886 810.56 375.214 804.039 376.421C797.396 377.636 790.724 378.679 784.038 379.607C756.866 383.229 729.459 384.422 702.115 385.957C677.929 387.322 653.736 389.036 629.714 392.272C618.464 393.75 607.242 395.543 596.149 397.929C585.392 400.293 574.72 403.272 564.599 407.658C558.927 410.115 553.491 413.086 548.377 416.558C544.062 419.544 539.998 422.872 536.091 426.372C527.205 434.501 519.091 443.43 511.348 452.637C504.247 461.144 497.826 470.202 491.719 479.438C478.618 499.545 466.59 520.338 453.154 540.232C447.632 548.56 441.668 556.639 437.046 562.532C432.453 568.339 427.625 573.989 422.189 579.032C416.189 584.382 413.789 586.118 406.81 590.718C401.053 594.397 395.11 597.775 388.967 600.776C381.659 604.211 378.345 605.526 371.095 608.24C363.923 610.926 356.659 613.347 349.337 615.604C338.366 618.954 327.151 621.404 315.887 623.54C304.622 625.705 293.315 627.669 282.001 629.576C233.621 637.805 184.413 644.298 138.284 661.769C126.312 666.37 114.655 671.813 103.569 678.256C94.0756 683.913 85.0683 690.363 76.6753 697.542C67.0037 706.006 58.3893 715.628 50.6891 725.914C45.9176 732.285 41.4818 738.907 37.5175 745.807C33.9603 752.093 30.8673 758.628 28.0959 765.293C21.9172 780.022 18.06 795.593 14.9885 811.229C13.1384 821.187 11.4384 831.208 10.7884 841.33C9.88839 858.002 10.8741 874.895 14.7099 891.181C14.4028 884.395 14.6885 877.595 15.0742 870.816C15.6385 861.187 16.5885 851.587 17.7314 842.016C18.4528 836.173 19.1028 830.994 20.7743 821.144C22.9886 808.737 25.7101 796.401 29.353 784.329C34.7888 766.6 42.3676 750.8 54.1249 734.328C61.0536 724.528 71.5181 712.335 82.7897 702.677C86.9184 699.292 86.3541 699.634 89.8613 696.97C95.6257 692.534 101.712 688.541 107.94 684.784C118.962 678.441 129.033 673.77 138.534 669.977C182.47 652.955 229.364 646.012 275.622 638.383C288.436 636.29 301.229 634.105 314.001 631.748C327.216 629.29 340.416 626.59 353.245 622.54C368.402 617.776 383.488 612.483 397.631 605.183C409.031 599.076 420.103 592.025 429.432 583.011C435.003 577.654 439.903 571.654 444.632 565.553C449.689 559.075 454.482 552.389 459.097 545.582C466.911 533.989 474.368 522.16 481.726 510.274C488.547 499.295 495.262 488.245 502.547 477.559C510.09 466.373 515.99 458.93 525.541 448.273C532.898 440.115 540.605 432.194 549.27 425.408C550.277 424.687 551.255 423.937 552.277 423.237C554.263 421.887 556.298 420.608 558.363 419.387C562.934 416.765 567.791 414.486 570.184 413.572C582.199 408.758 594.842 405.708 607.535 403.293C627.178 399.672 641.979 397.943 661.786 396.065C695.379 392.986 729.152 392.336 762.745 389.222C779.438 387.657 796.053 385.329 812.489 382.014C829.525 378.621 846.332 374.121 862.804 368.636C884.204 361.464 905.062 352.471 924.541 341.028C943.613 329.813 961.256 316.342 978.142 302.084C988.413 293.356 998.414 284.305 1008.06 274.898C1016.06 267.055 1023.76 258.905 1031.33 250.641C1048.74 231.776 1065.12 212.011 1081.26 192.061C1095.87 173.968 1110.29 155.689 1126.32 138.803C1148.95 114.681 1171.67 95.0591 1198.58 78.3374C1210.47 70.8873 1222.85 64.1943 1235.84 58.8942C1235.52 59.0299 1235.2 59.1656 1234.88 59.3014C1237.9 58.2085 1240.88 56.9942 1243.93 55.9941C1251.01 53.5798 1258.23 51.5726 1265.53 49.9012C1290.33 44.4011 1313.36 42.9653 1340.57 43.2296C1356.84 43.3725 1373.09 44.2225 1389.36 44.7011C1403.34 45.0939 1417.34 45.1082 1431.33 44.8725C1476.41 44.0796 1521.41 40.8724 1566.3 36.8295C1582.54 35.3723 1598.77 33.858 1614.97 32.0223C1628.46 30.4651 1641.97 29.0508 1655.45 27.4293C1668.6 25.8079 1680.57 24.3721 1694.14 22.6007C1710.9 20.2435 1727.58 17.3506 1744.16 13.8934C1745.66 13.5791 1747.16 13.2648 1748.66 12.9434C1725.06 13.5577 1701.5 15.1648 1678.03 17.6792L1678.07 17.7149Z" fill="#075438"/>
<path d="M1689.43 32.9722C1675.55 34.4008 1661.65 35.5365 1647.78 36.9437C1622.53 39.6509 1597.25 42.1938 1571.94 44.301C1529.25 47.9439 1486.47 50.7797 1443.62 51.4368C1422.08 51.8297 1400.54 51.2582 1379 50.4582C1361.41 49.8439 1343.79 49.4654 1326.2 50.3011C1313.34 50.994 1300.51 52.3797 1287.83 54.6012C1272.56 57.2512 1257.53 61.3799 1243.18 67.2443C1230.88 72.3372 1219.18 78.7373 1207.88 85.7589C1194.15 94.3805 1181.02 103.959 1168.61 114.395C1157.01 124.195 1146.05 134.738 1135.61 145.76C1119.39 162.675 1104.79 181.032 1090.2 199.34C1079.12 213.183 1067.93 226.94 1056.42 240.419C1044.44 254.341 1032.14 267.991 1019.21 281.034C1009.39 290.877 999.157 300.291 988.635 309.37C969.285 325.97 951.785 339.456 929.091 352.421C908.527 363.864 890.862 371.2 868.483 378.436C857.419 381.979 846.204 385.064 834.882 387.679C828.418 389.143 821.918 390.472 815.396 391.679C808.753 392.893 802.082 393.936 795.396 394.865C768.224 398.486 740.816 399.679 713.473 401.215C689.287 402.579 665.094 404.293 641.072 407.529C629.821 409.008 618.6 410.801 607.507 413.186C596.749 415.551 586.078 418.529 575.956 422.915C570.285 425.372 564.849 428.344 559.734 431.815C555.42 434.801 551.356 438.13 547.449 441.63C538.563 449.758 530.448 458.687 522.705 467.894C515.605 476.402 509.184 485.459 503.076 494.695C489.976 514.802 477.947 535.596 464.511 555.489C458.99 563.818 453.025 571.896 448.404 577.789C443.811 583.597 438.982 589.247 433.546 594.29C427.546 599.64 425.146 601.375 418.168 605.976C412.41 609.654 406.467 613.033 400.324 616.033C393.017 619.469 389.703 620.783 382.453 623.497C375.281 626.183 368.017 628.605 360.695 630.862C349.724 634.212 338.509 636.662 327.245 638.798C315.98 640.962 304.673 642.926 293.358 644.833C244.979 653.062 195.771 659.555 149.641 677.027C137.67 681.627 126.012 687.07 114.926 693.513C105.433 699.17 96.426 705.62 88.033 712.799C78.3614 721.263 69.7469 730.885 62.0468 741.171C57.2753 747.542 52.8395 754.164 48.8751 761.064C45.3179 767.35 42.225 773.886 39.4535 780.55C33.2748 795.279 29.4176 810.851 26.3461 826.487C24.4961 836.444 22.7961 846.466 22.1461 856.587C21.2461 873.259 22.2318 890.152 26.0676 906.438C25.7604 899.652 26.0461 892.852 26.4319 886.074C26.9962 876.445 27.9462 866.845 29.0891 857.273C29.8105 851.43 30.4605 846.251 32.132 836.401C34.3463 823.994 37.0678 811.658 40.7107 799.586C46.1465 781.857 53.7252 766.057 65.4826 749.585C72.4113 739.785 82.8758 727.592 94.1474 717.935C98.276 714.549 97.7117 714.892 101.219 712.227C106.983 707.792 113.069 703.799 119.298 700.042C130.319 693.699 140.391 689.027 149.891 685.234C193.828 668.212 240.722 661.269 286.98 653.641C299.794 651.548 312.587 649.362 325.359 647.005C338.573 644.548 351.774 641.848 364.602 637.798C379.76 633.033 394.846 627.74 408.989 620.44C420.389 614.333 431.461 607.283 440.789 598.268C446.361 592.911 451.261 586.911 455.99 580.811C461.047 574.332 465.84 567.646 470.454 560.839C478.269 549.246 485.726 537.417 493.083 525.531C499.905 514.552 506.619 503.502 513.905 492.816C521.448 481.63 527.348 474.187 536.898 463.53C544.256 455.373 551.963 447.451 560.627 440.665C561.635 439.944 562.613 439.194 563.635 438.494C565.62 437.144 567.656 435.865 569.72 434.644C574.292 432.022 579.149 429.744 581.542 428.829C593.557 424.015 606.2 420.965 618.893 418.551C638.536 414.929 653.336 413.201 673.144 411.322C706.737 408.243 740.509 407.593 774.103 404.479C790.796 402.915 807.411 400.586 823.847 397.272C840.883 393.879 857.69 389.379 874.162 383.893C895.562 376.721 916.42 367.728 935.899 356.285C954.97 345.071 972.614 331.599 989.5 317.342C999.771 308.613 1009.77 299.563 1019.42 290.155C1027.42 282.312 1035.12 274.162 1042.69 265.898C1060.09 247.033 1076.48 227.269 1092.62 207.318C1107.23 189.225 1121.65 170.946 1137.67 154.06C1160.31 129.938 1183.02 110.316 1209.94 93.5947C1221.83 86.1446 1234.2 79.4516 1247.2 74.1515C1246.88 74.2872 1246.56 74.423 1246.24 74.5587C1249.25 73.4658 1252.23 72.2515 1255.28 71.2515C1262.37 68.8371 1269.58 66.83 1276.88 65.1585C1301.68 59.6584 1324.72 58.2227 1351.93 58.487C1368.2 58.6298 1384.45 59.4798 1400.71 59.9584C1414.7 60.3513 1428.7 60.3656 1442.69 60.1298C1487.77 59.337 1532.77 56.1298 1577.66 52.0868C1593.9 50.6297 1610.13 49.1154 1626.33 47.2796C1639.82 45.7224 1653.33 44.3081 1666.81 42.6867C1679.96 41.0652 1691.93 39.6295 1705.5 37.858C1722.26 35.5008 1738.94 32.6079 1755.51 29.1507C1757.01 28.8364 1758.52 28.5221 1760.02 28.2007C1736.42 28.815 1712.86 30.4222 1689.38 32.9365L1689.43 32.9722Z" fill="#075438"/>
<path d="M1702.26 46.4512C1688.39 47.8798 1674.49 49.0155 1660.61 50.4227C1635.36 53.1299 1610.09 55.6728 1584.77 57.78C1542.09 61.4229 1499.3 64.2587 1456.46 64.9158C1434.91 65.3087 1413.37 64.7373 1391.84 63.9372C1374.24 63.3229 1356.63 62.9444 1339.03 63.7801C1326.18 64.473 1313.35 65.8587 1300.66 68.0802C1285.4 70.7302 1270.37 74.8589 1256.02 80.7233C1243.72 85.8162 1232.01 92.2163 1220.72 99.2379C1206.99 107.859 1193.85 117.438 1181.45 127.874C1169.85 137.674 1158.89 148.217 1148.45 159.239C1132.22 176.154 1117.63 194.511 1103.04 212.819C1091.96 226.662 1080.77 240.419 1069.25 253.898C1057.28 267.82 1044.97 281.47 1032.04 294.513C1022.23 304.356 1011.99 313.77 1001.47 322.849C982.121 339.449 964.621 352.935 941.927 365.9C921.363 377.343 903.698 384.679 881.319 391.915C870.255 395.458 859.04 398.543 847.718 401.158C841.254 402.622 834.754 403.951 828.232 405.158C821.589 406.372 814.918 407.415 808.232 408.344C781.06 411.965 753.652 413.158 726.309 414.694C702.123 416.058 677.93 417.772 653.908 421.008C642.658 422.487 631.436 424.28 620.343 426.665C609.586 429.03 598.914 432.008 588.792 436.394C583.121 438.851 577.685 441.823 572.571 445.294C568.256 448.28 564.192 451.609 560.285 455.109C551.399 463.237 543.284 472.166 535.541 481.373C528.441 489.881 522.02 498.938 515.912 508.174C502.812 528.281 490.783 549.075 477.347 568.968C471.826 577.297 465.861 585.375 461.24 591.268C456.647 597.076 451.818 602.726 446.383 607.769C440.382 613.119 437.982 614.854 431.004 619.455C425.246 623.133 419.304 626.512 413.161 629.512C405.853 632.948 402.539 634.262 395.289 636.976C388.117 639.662 380.853 642.084 373.531 644.341C362.56 647.691 351.345 650.141 340.081 652.277C328.816 654.441 317.509 656.405 306.194 658.312C257.815 666.541 208.607 673.034 162.477 690.506C150.506 695.106 138.848 700.549 127.762 706.992C118.269 712.649 109.262 719.099 100.869 726.278C91.1974 734.742 82.583 744.364 74.8829 754.65C70.1113 761.021 65.6755 767.643 61.7112 774.543C58.154 780.829 55.0611 787.365 52.2896 794.029C46.1109 808.758 42.2537 824.33 39.1822 839.966C37.3322 849.923 35.6321 859.945 34.9821 870.066C34.0821 886.738 35.0678 903.631 38.9036 919.917C38.5965 913.131 38.8822 906.331 39.2679 899.553C39.8322 889.924 40.7822 880.324 41.9251 870.752C42.6466 864.909 43.2966 859.73 44.968 849.88C47.1824 837.473 49.9038 825.137 53.5468 813.065C58.9826 795.336 66.5613 779.536 78.3186 763.064C85.2473 753.264 95.7118 741.071 106.983 731.414C111.112 728.028 110.548 728.371 114.055 725.706C119.819 721.271 125.905 717.278 132.134 713.521C143.156 707.178 153.227 702.506 162.727 698.713C206.664 681.691 253.558 674.748 299.816 667.12C312.63 665.027 325.423 662.841 338.195 660.484C351.409 658.027 364.61 655.327 377.438 651.277C392.596 646.512 407.682 641.219 421.825 633.919C433.225 627.812 444.297 620.762 453.626 611.747C459.197 606.39 464.097 600.39 468.826 594.29C473.883 587.811 478.676 581.125 483.29 574.318C491.105 562.725 498.562 550.896 505.919 539.01C512.741 528.031 519.455 516.981 526.741 506.295C534.284 495.109 540.184 487.666 549.734 477.009C557.092 468.852 564.799 460.93 573.463 454.144C574.471 453.423 575.449 452.673 576.471 451.973C578.456 450.623 580.492 449.344 582.556 448.123C587.128 445.501 591.985 443.223 594.378 442.308C606.393 437.494 619.036 434.444 631.729 432.03C651.372 428.408 666.172 426.68 685.98 424.801C719.573 421.722 753.345 421.072 786.939 417.958C803.632 416.394 820.246 414.065 836.683 410.751C853.719 407.358 870.526 402.858 886.998 397.372C908.398 390.2 929.256 381.207 948.735 369.764C967.806 358.55 985.45 345.078 1002.34 330.821C1012.61 322.092 1022.61 313.042 1032.26 303.634C1040.26 295.791 1047.96 287.641 1055.52 279.377C1072.93 260.512 1089.32 240.748 1105.45 220.797C1120.07 202.704 1134.49 184.425 1150.51 167.539C1173.15 143.417 1195.86 123.795 1222.78 107.074C1234.66 99.6236 1247.04 92.9306 1260.03 87.6305C1259.71 87.7662 1259.4 87.902 1259.08 88.0377C1262.09 86.9448 1265.07 85.7305 1268.12 84.7305C1275.2 82.3161 1282.42 80.309 1289.72 78.6375C1314.52 73.1374 1337.56 71.7017 1364.76 71.966C1381.04 72.1088 1397.29 72.9588 1413.55 73.4374C1427.54 73.8303 1441.54 73.8446 1455.52 73.6088C1500.6 72.816 1545.6 69.6088 1590.5 65.5658C1606.73 64.1087 1622.96 62.5944 1639.16 60.7586C1652.65 59.2014 1666.16 57.7871 1679.65 56.1657C1692.8 54.5442 1704.76 53.1085 1718.33 51.337C1735.09 48.9798 1751.78 46.0869 1768.35 42.6297C1769.85 42.3154 1771.36 42.0011 1772.86 41.6797C1749.26 42.294 1725.69 43.9012 1702.22 46.4155L1702.26 46.4512Z" fill="#075438"/>
<path d="M1717.98 57.8797C1704.11 59.3083 1690.21 60.444 1676.33 61.8512C1651.08 64.5584 1625.8 67.1013 1600.49 69.2084C1557.8 72.8514 1515.02 75.6871 1472.17 76.3443C1450.63 76.7372 1429.09 76.1657 1407.55 75.3657C1389.96 74.7514 1372.34 74.3728 1354.75 75.2086C1341.89 75.9014 1329.06 77.2872 1316.38 79.5086C1301.11 82.1587 1286.08 86.2873 1271.73 92.1517C1259.43 97.2447 1247.73 103.645 1236.43 110.666C1222.7 119.288 1209.57 128.867 1197.16 139.303C1185.56 149.103 1174.6 159.646 1164.16 170.667C1147.94 187.582 1133.35 205.94 1118.75 224.247C1107.67 238.09 1096.48 251.847 1084.97 265.326C1072.99 279.248 1060.69 292.898 1047.76 305.941C1037.94 315.784 1027.71 325.199 1017.19 334.278C997.836 350.878 980.335 364.364 957.642 377.328C937.078 388.771 919.413 396.107 897.034 403.343C885.969 406.886 874.755 409.972 863.433 412.586C856.969 414.05 850.469 415.379 843.947 416.586C837.304 417.801 830.633 418.843 823.947 419.772C796.775 423.394 769.367 424.586 742.024 426.122C717.838 427.486 693.645 429.201 669.623 432.437C658.372 433.915 647.151 435.708 636.058 438.094C625.3 440.458 614.629 443.437 604.507 447.823C598.836 450.28 593.4 453.251 588.285 456.723C583.971 459.708 579.907 463.037 575.999 466.537C567.114 474.666 558.999 483.595 551.256 492.802C544.156 501.309 537.735 510.367 531.627 519.602C518.527 539.71 506.498 560.503 493.062 580.396C487.541 588.725 481.576 596.804 476.955 602.697C472.362 608.504 467.533 614.154 462.097 619.197C456.097 624.547 453.697 626.283 446.719 630.883C440.961 634.562 435.018 637.94 428.875 640.94C421.568 644.376 418.254 645.69 411.004 648.405C403.832 651.091 396.568 653.512 389.246 655.769C378.274 659.119 367.06 661.569 355.795 663.705C344.531 665.869 333.224 667.834 321.909 669.741C273.53 677.97 224.322 684.463 178.192 701.934C166.221 706.534 154.563 711.977 143.477 718.42C133.984 724.078 124.977 730.528 116.584 737.706C106.912 746.171 98.2978 755.792 90.5977 766.078C85.8262 772.45 81.3904 779.071 77.426 785.972C73.8688 792.257 70.7759 798.793 68.0044 805.458C61.8258 820.186 57.9685 835.758 54.897 851.394C53.047 861.351 51.347 871.373 50.697 881.495C49.797 898.166 50.7827 915.06 54.6185 931.346C54.3113 924.56 54.597 917.76 54.9828 910.981C55.5471 901.352 56.4971 891.752 57.64 882.18C58.3614 876.337 59.0114 871.159 60.6829 861.309C62.8972 848.901 65.6187 836.565 69.2616 824.494C74.6974 806.765 82.2761 790.965 94.0335 774.493C100.962 764.693 111.427 752.5 122.698 742.842C126.827 739.456 126.263 739.799 129.77 737.135C135.534 732.699 141.62 728.706 147.849 724.949C158.87 718.606 168.942 713.935 178.442 710.142C222.379 693.12 269.272 686.177 315.53 678.548C328.345 676.455 341.138 674.27 353.91 671.912C367.124 669.455 380.324 666.755 393.153 662.705C408.311 657.941 423.397 652.648 437.54 645.348C448.94 639.24 460.012 632.19 469.34 623.176C474.912 617.818 479.812 611.818 484.541 605.718C489.598 599.24 494.391 592.554 499.005 585.746C506.82 574.153 514.277 562.325 521.634 550.439C528.456 539.46 535.17 528.41 542.456 517.724C549.999 506.538 555.899 499.095 565.449 488.438C572.807 480.28 580.514 472.359 589.178 465.573C590.185 464.851 591.164 464.101 592.186 463.401C594.171 462.051 596.207 460.773 598.271 459.551C602.843 456.93 607.7 454.651 610.093 453.737C622.107 448.923 634.751 445.873 647.444 443.458C667.087 439.837 681.887 438.108 701.695 436.229C735.288 433.151 769.06 432.501 802.654 429.386C819.347 427.822 835.961 425.494 852.397 422.179C869.433 418.786 886.241 414.286 902.713 408.8C924.113 401.629 944.97 392.636 964.449 381.193C983.521 369.978 1001.16 356.507 1018.05 342.249C1028.32 333.52 1038.32 324.47 1047.97 315.063C1055.97 307.22 1063.67 299.07 1071.24 290.805C1088.64 271.941 1105.03 252.176 1121.17 232.226C1135.78 214.133 1150.2 195.854 1166.22 178.968C1188.86 154.846 1211.58 135.224 1238.49 118.502C1250.38 111.052 1262.75 104.359 1275.75 99.059C1275.43 99.1947 1275.11 99.3304 1274.79 99.4661C1277.81 98.3733 1280.78 97.159 1283.83 96.1589C1290.92 93.7446 1298.13 91.7374 1305.43 90.066C1330.23 84.5659 1353.27 83.1301 1380.48 83.3944C1396.75 83.5373 1413 84.3873 1429.27 84.8659C1443.25 85.2587 1457.25 85.273 1471.24 85.0373C1516.32 84.2444 1561.32 81.0372 1606.21 76.9943C1622.45 75.5371 1638.68 74.0228 1654.88 72.1871C1668.37 70.6299 1681.88 69.2156 1695.36 67.5941C1708.51 65.9727 1720.48 64.5369 1734.05 62.7655C1750.81 60.4083 1767.49 57.5154 1784.06 54.0582C1785.56 53.7439 1787.07 53.4296 1788.57 53.1082C1764.97 53.7225 1741.41 55.3296 1717.93 57.844L1717.98 57.8797Z" fill="#075438"/>
<path d="M1729.41 72.1658C1715.53 73.5944 1701.63 74.7301 1687.76 76.1373C1662.5 78.8445 1637.23 81.3874 1611.92 83.4946C1569.23 87.1375 1526.45 89.9733 1483.6 90.6304C1462.06 91.0233 1440.51 90.4518 1418.98 89.6518C1401.39 89.0375 1383.77 88.659 1366.18 89.4947C1353.32 90.1876 1340.49 91.5733 1327.81 93.7948C1312.54 96.4448 1297.51 100.573 1283.16 106.438C1270.86 111.531 1259.15 117.931 1247.86 124.952C1234.13 133.574 1221 143.153 1208.59 153.589C1196.99 163.389 1186.03 173.932 1175.59 184.954C1159.37 201.868 1144.77 220.226 1130.18 238.533C1119.1 252.376 1107.91 266.134 1096.39 279.612C1084.42 293.534 1072.12 307.184 1059.19 320.228C1049.37 330.071 1039.14 339.485 1028.61 348.564C1009.26 365.164 991.764 378.65 969.071 391.615C948.506 403.058 930.841 410.393 908.462 417.629C897.398 421.172 886.183 424.258 874.862 426.872C868.397 428.337 861.897 429.665 855.376 430.872C848.733 432.087 842.061 433.13 835.375 434.058C808.203 437.68 780.796 438.873 753.452 440.408C729.266 441.773 705.073 443.487 681.051 446.723C669.801 448.201 658.579 449.994 647.486 452.38C636.729 454.744 626.057 457.723 615.936 462.109C610.264 464.566 604.828 467.537 599.714 471.009C595.399 473.995 591.335 477.323 587.428 480.823C578.542 488.952 570.428 497.881 562.685 507.088C555.584 515.595 549.163 524.653 543.056 533.889C529.955 553.996 517.927 574.789 504.491 594.683C498.969 603.011 493.005 611.09 488.383 616.983C483.79 622.79 478.962 628.44 473.526 633.483C467.526 638.833 465.126 640.569 458.147 645.169C452.39 648.848 446.447 652.226 440.304 655.226C432.996 658.662 429.682 659.977 422.432 662.691C415.26 665.377 407.996 667.798 400.674 670.055C389.703 673.405 378.488 675.855 367.224 677.991C355.959 680.156 344.652 682.12 333.337 684.027C284.958 692.256 235.75 698.749 189.621 716.22C177.649 720.821 165.992 726.263 154.906 732.706C145.413 738.364 136.405 744.814 128.012 751.993C118.341 760.457 109.726 770.079 102.026 780.364C97.2545 786.736 92.8187 793.358 88.8544 800.258C85.2972 806.544 82.2043 813.079 79.4328 819.744C73.2541 834.473 69.3969 850.044 66.3254 865.68C64.4754 875.638 62.7753 885.659 62.1253 895.781C61.2253 912.453 62.211 929.346 66.0468 945.632C65.7397 938.846 66.0254 932.046 66.4111 925.267C66.9754 915.638 67.9254 906.038 69.0683 896.467C69.7897 890.624 70.4398 885.445 72.1112 875.595C74.3255 863.187 77.047 850.851 80.6899 838.78C86.1258 821.051 93.7045 805.251 105.462 788.779C112.391 778.979 122.855 766.786 134.127 757.128C138.255 753.743 137.691 754.085 141.198 751.421C146.963 746.985 153.048 742.992 159.277 739.235C170.299 732.892 180.37 728.221 189.871 724.428C233.807 707.406 280.701 700.463 326.959 692.834C339.773 690.741 352.566 688.556 365.338 686.198C378.553 683.741 391.753 681.041 404.582 676.991C419.739 672.227 434.825 666.934 448.968 659.634C460.368 653.526 471.44 646.476 480.769 637.462C486.34 632.105 491.24 626.105 495.969 620.004C501.026 613.526 505.819 606.84 510.434 600.033C518.248 588.44 525.705 576.611 533.063 564.725C539.884 553.746 546.598 542.696 553.884 532.01C561.427 520.824 567.327 513.381 576.878 502.724C584.235 494.566 591.942 486.645 600.607 479.859C601.614 479.138 602.592 478.388 603.614 477.688C605.6 476.338 607.635 475.059 609.7 473.837C614.271 471.216 619.128 468.937 621.521 468.023C633.536 463.209 646.179 460.159 658.872 457.744C678.515 454.123 693.316 452.394 713.123 450.516C746.716 447.437 780.489 446.787 814.082 443.673C830.775 442.108 847.39 439.78 863.826 436.465C880.862 433.072 897.669 428.572 914.141 423.087C935.541 415.915 956.399 406.922 975.878 395.479C994.95 384.264 1012.59 370.793 1029.48 356.535C1039.75 347.807 1049.75 338.756 1059.4 329.349C1067.4 321.506 1075.1 313.356 1082.67 305.092C1100.07 286.227 1116.46 266.462 1132.59 246.512C1147.21 228.419 1161.63 210.14 1177.65 193.254C1200.29 169.132 1223 149.51 1249.92 132.788C1261.8 125.338 1274.18 118.645 1287.18 113.345C1286.85 113.481 1286.54 113.617 1286.22 113.752C1289.23 112.659 1292.21 111.445 1295.26 110.445C1302.35 108.031 1309.56 106.024 1316.86 104.352C1341.66 98.852 1364.7 97.4163 1391.91 97.6806C1408.18 97.8234 1424.43 98.6734 1440.69 99.152C1454.68 99.5449 1468.68 99.5592 1482.67 99.3234C1527.75 98.5306 1572.75 95.3234 1617.64 91.2804C1633.88 89.8233 1650.1 88.309 1666.3 86.4732C1679.8 84.916 1693.31 83.5017 1706.79 81.8803C1719.94 80.2588 1731.91 78.8231 1745.48 77.0516C1762.24 74.6944 1778.92 71.8015 1795.49 68.3443C1796.99 68.03 1798.5 67.7157 1800 67.3943C1776.4 68.0086 1752.83 69.6158 1729.36 72.1301L1729.41 72.1658Z" fill="#075438"/>
<path d="M280.421 608.249L275.738 582.268L294.555 578.877L295.208 582.498L280.603 585.131L281.951 592.61L293.367 590.552L294.006 594.095L282.59 596.153L283.98 603.869L299.136 601.137L299.789 604.759L280.421 608.249Z" fill="#075438"/>
<path d="M423.188 541.808L402.419 525.51L414.223 510.469L417.118 512.741L407.956 524.415L413.935 529.107L421.096 519.981L423.929 522.204L416.767 531.329L422.935 536.169L432.442 524.054L435.337 526.326L423.188 541.808Z" fill="#075438"/>
<path d="M473.216 468.423L452.01 452.699L463.398 437.34L466.354 439.532L457.515 451.453L463.62 455.979L470.529 446.661L473.421 448.806L466.511 458.124L472.809 462.793L481.982 450.423L484.938 452.615L473.216 468.423Z" fill="#075438"/>
<path d="M333.225 569.068L340.233 594.52L336.415 595.572L332.359 580.84L330.735 573.736L330.696 573.747L328.933 597.632L325.501 598.577L311.761 578.96L311.722 578.971L313.963 585.905L318.02 600.637L314.202 601.688L307.193 576.235L313.325 574.547L322.511 587.866L325.952 593.432L326.029 593.411L326.174 586.857L327.208 570.724L333.225 569.068Z" fill="#075438"/>
<path d="M355.972 562.605L365.081 587.384L361.064 588.861L351.955 564.082L355.972 562.605Z" fill="#075438"/>
<path d="M384.247 572.98L396.71 565.452L398.613 568.601L382.487 578.343L368.836 555.746L372.5 553.533L384.247 572.98Z" fill="#075438"/>
<path d="M393.227 538.108L411.898 556.773L408.872 559.799L390.201 541.135L393.227 538.108Z" fill="#075438"/>
<path d="M499.663 393.181L517.455 412.685L514.293 415.569L496.501 396.065L499.663 393.181Z" fill="#075438"/>
<path d="M477.593 416.62C479.399 414.445 481.374 413.173 483.517 412.804C485.678 412.414 487.681 412.986 489.528 414.519C491.436 416.104 492.376 417.976 492.349 420.138C492.319 422.262 491.401 424.411 489.595 426.585L489.524 427.046L485.614 431.755L493.739 438.501L491.03 441.763L470.719 424.898L477.593 416.62ZM486.836 424.711C487.944 423.377 488.495 422.171 488.489 421.092C488.481 419.976 487.912 418.949 486.784 418.012C485.676 417.092 484.572 416.73 483.473 416.927C482.391 417.103 481.297 417.858 480.189 419.191L476.229 423.961L482.876 429.481L486.836 424.711ZM489.123 423.334L504.803 425.176L501.66 428.961L488.065 427.239L489.123 423.334Z" fill="#075438"/>
<path d="M532.249 368.78L529.528 385.888L529.151 386.188L527.547 396.107L524.617 392.436L527.89 371.689L532.249 368.78ZM517.809 378.417L532.464 400.376L528.904 402.752L514.249 380.792L517.809 378.417ZM528.439 382.672L547.103 390.606L542.911 393.404L526.943 386.555L528.439 382.672Z" fill="#075438"/>
<path d="M559.742 358.115C562.028 357.479 564.128 357.364 566.041 357.773C567.947 358.155 569.71 359.021 571.331 360.368L569.298 363.8C567.906 362.582 566.505 361.824 565.093 361.525C563.699 361.193 562.168 361.26 560.498 361.725C559.265 362.068 558.297 362.518 557.593 363.074C556.89 363.629 556.425 364.244 556.197 364.916C555.987 365.556 555.979 366.222 556.172 366.916C556.394 367.712 556.857 368.331 557.561 368.771C558.291 369.205 559.46 369.377 561.069 369.289L566.554 369.007C569.17 368.86 571.146 369.195 572.481 370.014C573.817 370.832 574.72 372.089 575.193 373.784C575.629 375.351 575.584 376.831 575.059 378.223C574.533 379.615 573.598 380.831 572.254 381.869C570.936 382.901 569.262 383.699 567.233 384.264C565.434 384.765 563.752 384.985 562.184 384.923C560.617 384.861 559.183 384.583 557.882 384.087C556.581 383.591 555.441 382.926 554.461 382.091L556.519 378.446C557.308 379.195 558.215 379.814 559.237 380.305C560.252 380.769 561.353 381.044 562.539 381.129C563.751 381.206 565.025 381.059 566.361 380.687C567.543 380.358 568.518 379.934 569.287 379.415C570.082 378.89 570.622 378.296 570.909 377.635C571.214 376.941 571.259 376.209 571.044 375.438C570.837 374.693 570.397 374.11 569.726 373.688C569.081 373.258 568.034 373.079 566.587 373.15L560.645 373.435C559.011 373.53 557.607 373.409 556.433 373.072C555.26 372.734 554.307 372.197 553.576 371.459C552.838 370.696 552.314 369.762 552.007 368.657C551.606 367.219 551.63 365.814 552.079 364.444C552.546 363.04 553.428 361.784 554.725 360.675C556.014 359.541 557.687 358.688 559.742 358.115Z" fill="#075438"/>
<path d="M594.155 348.577C596.688 348.208 598.957 348.43 600.962 349.243C602.966 350.056 604.616 351.392 605.911 353.252C607.206 355.111 608.057 357.44 608.464 360.237C608.871 363.034 608.719 365.508 608.009 367.66C607.298 369.812 606.098 371.563 604.408 372.914C602.718 374.264 600.607 375.124 598.074 375.493C595.567 375.858 593.311 375.634 591.306 374.821C589.302 374.008 587.652 372.672 586.357 370.813C585.062 368.953 584.211 366.625 583.804 363.828C583.397 361.03 583.548 358.556 584.259 356.404C584.97 354.253 586.17 352.502 587.86 351.151C589.549 349.8 591.648 348.942 594.155 348.577ZM594.691 352.258C593.055 352.496 591.698 353.085 590.622 354.023C589.573 354.957 588.837 356.196 588.415 357.74C587.993 359.283 587.934 361.097 588.237 363.182C588.537 365.24 589.111 366.962 589.959 368.348C590.804 369.707 591.863 370.685 593.135 371.281C594.434 371.873 595.902 372.05 597.538 371.812C599.2 371.57 600.556 370.982 601.606 370.047C602.682 369.109 603.431 367.868 603.853 366.325C604.271 364.755 604.33 362.941 604.031 360.882C603.727 358.798 603.153 357.076 602.308 355.717C601.464 354.358 600.392 353.382 599.093 352.789C597.821 352.193 596.353 352.016 594.691 352.258Z" fill="#075438"/>
<path d="M640.771 342.403L644.538 368.533L639.51 369.258L627.04 354.243L623.839 349.976L623.799 349.982L624.568 354.195L626.999 371.061L623.119 371.62L619.353 345.491L624.341 344.771L636.766 359.752L640.018 364.092L640.058 364.087L639.283 359.834L636.852 342.968L640.771 342.403Z" fill="#075438"/>
<path d="M701.064 359.844L683.748 351.816V347.892L701.064 339.864V343.68L686.808 349.8L701.064 355.992V359.844ZM713.575 360.96C711.343 360.96 709.399 360.468 707.743 359.484C706.111 358.476 704.995 357.072 704.395 355.272L708.139 353.508C708.355 354.372 708.691 355.116 709.147 355.74C709.603 356.364 710.203 356.844 710.947 357.18C711.691 357.492 712.615 357.648 713.719 357.648C714.655 357.648 715.447 357.48 716.095 357.144C716.743 356.808 717.235 356.34 717.571 355.74C717.931 355.14 718.111 354.456 718.111 353.688C718.111 352.896 717.955 352.236 717.643 351.708C717.355 351.18 716.887 350.796 716.239 350.556C715.615 350.316 714.811 350.196 713.827 350.196C713.539 350.196 713.239 350.208 712.927 350.232C712.639 350.232 712.327 350.256 711.991 350.304V347.064C712.207 347.088 712.411 347.112 712.603 347.136C712.819 347.136 713.023 347.136 713.215 347.136C714.775 347.136 715.891 346.824 716.563 346.2C717.235 345.576 717.571 344.604 717.571 343.284C717.571 342.156 717.223 341.292 716.527 340.692C715.855 340.092 714.883 339.792 713.611 339.792C712.291 339.792 711.259 340.104 710.515 340.728C709.795 341.328 709.243 342.204 708.859 343.356L705.331 341.88C705.667 340.776 706.231 339.816 707.023 339C707.815 338.184 708.787 337.56 709.939 337.128C711.115 336.672 712.399 336.444 713.791 336.444C715.495 336.444 716.911 336.72 718.039 337.272C719.191 337.824 720.043 338.58 720.595 339.54C721.171 340.5 721.459 341.568 721.459 342.744C721.459 343.656 721.327 344.46 721.063 345.156C720.799 345.828 720.439 346.416 719.983 346.92C719.551 347.4 719.071 347.772 718.543 348.036C718.039 348.3 717.523 348.48 716.995 348.576V348.648C717.691 348.672 718.327 348.816 718.903 349.08C719.503 349.32 720.031 349.668 720.487 350.124C720.967 350.556 721.339 351.084 721.603 351.708C721.867 352.332 721.999 353.016 721.999 353.76C721.999 355.2 721.639 356.46 720.919 357.54C720.199 358.62 719.203 359.46 717.931 360.06C716.683 360.66 715.231 360.96 713.575 360.96Z" fill="#075438"/>
</svg>
