<svg width="1728" height="1012" viewBox="0 0 1728 1012" fill="none" xmlns="http://www.w3.org/2000/svg">
<path d="M2307.58 6.68C2288.16 8.68 2268.7 10.27 2249.27 12.24C2213.92 16.03 2178.54 19.59 2143.1 22.54C2083.34 27.64 2023.44 31.61 1963.46 32.53C1933.3 33.08 1903.14 32.28 1872.99 31.16C1848.36 30.3 1823.7 29.77 1799.07 30.94C1781.07 31.91 1763.11 33.85 1745.35 36.96C1723.98 40.67 1702.94 46.45 1682.85 54.66C1665.63 61.79 1649.24 70.75 1633.43 80.58C1614.21 92.65 1595.82 106.06 1578.45 120.67C1562.21 134.39 1546.87 149.15 1532.25 164.58C1509.54 188.26 1489.11 213.96 1468.68 239.59C1453.17 258.97 1437.5 278.23 1421.38 297.1C1404.62 316.59 1387.39 335.7 1369.29 353.96C1355.55 367.74 1341.22 380.92 1326.49 393.63C1299.4 416.87 1274.9 435.75 1243.13 453.9C1214.34 469.92 1189.61 480.19 1158.28 490.32C1142.79 495.28 1127.09 499.6 1111.24 503.26C1102.19 505.31 1093.09 507.17 1083.96 508.86C1074.66 510.56 1065.32 512.02 1055.96 513.32C1017.92 518.39 979.554 520.06 941.274 522.21C907.414 524.12 873.544 526.52 839.914 531.05C824.164 533.12 808.454 535.63 792.924 538.97C777.864 542.28 762.924 546.45 748.754 552.59C740.814 556.03 733.204 560.19 726.044 565.05C720.004 569.23 714.314 573.89 708.844 578.79C696.404 590.17 685.044 602.67 674.204 615.56C664.264 627.47 655.274 640.15 646.724 653.08C628.384 681.23 611.544 710.34 592.734 738.19C585.004 749.85 576.654 761.16 570.184 769.41C563.754 777.54 556.994 785.45 549.384 792.51C540.984 800 537.624 802.43 527.854 808.87C519.794 814.02 511.474 818.75 502.874 822.95C492.644 827.76 488.004 829.6 477.854 833.4C467.814 837.16 457.644 840.55 447.394 843.71C432.034 848.4 416.334 851.83 400.564 854.82C384.794 857.85 368.964 860.6 353.124 863.27C285.394 874.79 216.504 883.88 151.924 908.34C135.164 914.78 118.844 922.4 103.324 931.42C90.0342 939.34 77.4242 948.37 65.6742 958.42C52.1342 970.27 40.0742 983.74 29.2942 998.14C22.6142 1007.06 16.4042 1016.33 10.8542 1025.99C5.87418 1034.79 1.54418 1043.94 -2.33582 1053.27C-10.9858 1073.89 -16.3858 1095.69 -20.6858 1117.58C-23.2758 1131.52 -25.6558 1145.55 -26.5658 1159.72C-27.8258 1183.06 -26.4458 1206.71 -21.0758 1229.51C-21.5058 1220.01 -21.1058 1210.49 -20.5658 1201C-19.7758 1187.52 -18.4458 1174.08 -16.8458 1160.68C-15.8358 1152.5 -14.9258 1145.25 -12.5858 1131.46C-9.48582 1114.09 -5.67582 1096.82 -0.575825 1079.92C7.03418 1055.1 17.6442 1032.98 34.1042 1009.92C43.8042 996.2 58.4542 979.13 74.2342 965.61C80.0142 960.87 79.2242 961.35 84.1342 957.62C92.2042 951.41 100.724 945.82 109.444 940.56C124.874 931.68 138.974 925.14 152.274 919.83C213.784 896 279.434 886.28 344.194 875.6C362.134 872.67 380.044 869.61 397.924 866.31C416.424 862.87 434.904 859.09 452.864 853.42C474.084 846.75 495.204 839.34 515.004 829.12C530.964 820.57 546.464 810.7 559.524 798.08C567.324 790.58 574.184 782.18 580.804 773.64C587.884 764.57 594.594 755.21 601.054 745.68C611.994 729.45 622.434 712.89 632.734 696.25C642.284 680.88 651.684 665.41 661.884 650.45C672.444 634.79 680.704 624.37 694.074 609.45C704.374 598.03 715.164 586.94 727.294 577.44C728.704 576.43 730.074 575.38 731.504 574.4C734.284 572.51 737.134 570.72 740.024 569.01C746.424 565.34 753.224 562.15 756.574 560.87C773.394 554.13 791.094 549.86 808.864 546.48C836.364 541.41 857.084 538.99 884.814 536.36C931.844 532.05 979.124 531.14 1026.15 526.78C1049.52 524.59 1072.78 521.33 1095.79 516.69C1119.64 511.94 1143.17 505.64 1166.23 497.96C1196.19 487.92 1225.39 475.33 1252.66 459.31C1279.36 443.61 1304.06 424.75 1327.7 404.79C1342.08 392.57 1356.08 379.9 1369.59 366.73C1380.79 355.75 1391.57 344.34 1402.16 332.77C1426.53 306.36 1449.47 278.69 1472.06 250.76C1492.52 225.43 1512.71 199.84 1535.14 176.2C1566.83 142.43 1598.63 114.96 1636.31 91.55C1652.95 81.12 1670.28 71.75 1688.47 64.33C1688.02 64.52 1687.58 64.71 1687.13 64.9C1691.35 63.37 1695.52 61.67 1699.79 60.27C1709.71 56.89 1719.81 54.08 1730.03 51.74C1764.75 44.04 1797 42.03 1835.09 42.4C1857.87 42.6 1880.62 43.79 1903.39 44.46C1922.97 45.01 1942.57 45.03 1962.15 44.7C2025.26 43.59 2088.26 39.1 2151.11 33.44C2173.84 31.4 2196.56 29.28 2219.24 26.71C2238.13 24.53 2257.04 22.55 2275.92 20.28C2294.33 18.01 2311.08 16 2330.08 13.52C2353.54 10.22 2376.9 6.17 2400.1 1.33C2402.2 0.89 2404.31 0.45 2406.41 0C2373.37 0.86 2340.38 3.11 2307.52 6.63L2307.58 6.68Z" fill="#075438"/>
<path d="M2322.25 24.8C2302.83 26.8 2283.37 28.39 2263.94 30.36C2228.59 34.15 2193.21 37.71 2157.77 40.66C2098.01 45.76 2038.11 49.73 1978.13 50.65C1947.97 51.2 1917.81 50.4 1887.66 49.28C1863.03 48.42 1838.37 47.89 1813.74 49.06C1795.74 50.03 1777.78 51.97 1760.02 55.08C1738.65 58.79 1717.61 64.57 1697.52 72.78C1680.3 79.91 1663.91 88.87 1648.1 98.7C1628.88 110.77 1610.49 124.18 1593.12 138.79C1576.88 152.51 1561.54 167.27 1546.92 182.7C1524.21 206.38 1503.78 232.08 1483.35 257.71C1467.84 277.09 1452.17 296.35 1436.05 315.22C1419.29 334.71 1402.06 353.82 1383.96 372.08C1370.22 385.86 1355.89 399.04 1341.16 411.75C1314.07 434.99 1289.57 453.87 1257.8 472.02C1229.01 488.04 1204.28 498.31 1172.95 508.44C1157.46 513.4 1141.76 517.72 1125.91 521.38C1116.86 523.43 1107.76 525.29 1098.63 526.98C1089.33 528.68 1079.99 530.14 1070.63 531.44C1032.59 536.51 994.224 538.18 955.944 540.33C922.084 542.24 888.214 544.64 854.584 549.17C838.834 551.24 823.124 553.75 807.594 557.09C792.534 560.4 777.594 564.57 763.424 570.71C755.484 574.15 747.874 578.31 740.714 583.17C734.674 587.35 728.984 592.01 723.514 596.91C711.074 608.29 699.714 620.79 688.874 633.68C678.934 645.59 669.944 658.27 661.394 671.2C643.054 699.35 626.214 728.46 607.404 756.31C599.674 767.97 591.324 779.28 584.854 787.53C578.424 795.66 571.664 803.57 564.054 810.63C555.654 818.12 552.294 820.55 542.524 826.99C534.464 832.14 526.144 836.87 517.544 841.07C507.314 845.88 502.674 847.72 492.524 851.52C482.484 855.28 472.314 858.67 462.064 861.83C446.704 866.52 431.004 869.95 415.234 872.94C399.464 875.97 383.634 878.72 367.794 881.39C300.064 892.91 231.174 902 166.594 926.46C149.834 932.9 133.514 940.52 117.994 949.54C104.704 957.46 92.0941 966.49 80.3441 976.54C66.8041 988.39 54.7441 1001.86 43.9641 1016.26C37.2841 1025.18 31.0741 1034.45 25.5241 1044.11C20.5441 1052.91 16.2141 1062.06 12.3341 1071.39C3.6841 1092.01 -1.7159 1113.81 -6.0159 1135.7C-8.6059 1149.64 -10.9859 1163.67 -11.8959 1177.84C-13.1559 1201.18 -11.7759 1224.83 -6.4059 1247.63C-6.8359 1238.13 -6.4359 1228.61 -5.8959 1219.12C-5.1059 1205.64 -3.7759 1192.2 -2.1759 1178.8C-1.1659 1170.62 -0.255902 1163.37 2.0841 1149.58C5.1841 1132.21 8.9941 1114.94 14.0941 1098.04C21.7041 1073.22 32.3141 1051.1 48.7741 1028.04C58.4741 1014.32 73.1241 997.25 88.9041 983.73C94.6841 978.99 93.8941 979.47 98.8041 975.74C106.874 969.53 115.394 963.94 124.114 958.68C139.544 949.8 153.644 943.26 166.944 937.95C228.454 914.12 294.104 904.4 358.864 893.72C376.804 890.79 394.714 887.73 412.594 884.43C431.094 880.99 449.574 877.21 467.534 871.54C488.754 864.87 509.874 857.46 529.674 847.24C545.634 838.69 561.134 828.82 574.194 816.2C581.994 808.7 588.854 800.3 595.474 791.76C602.554 782.69 609.264 773.33 615.724 763.8C626.664 747.57 637.104 731.01 647.404 714.37C656.954 699 666.354 683.53 676.554 668.57C687.114 652.91 695.374 642.49 708.744 627.57C719.044 616.15 729.834 605.06 741.964 595.56C743.374 594.55 744.744 593.5 746.174 592.52C748.954 590.63 751.804 588.84 754.694 587.13C761.094 583.46 767.894 580.27 771.244 578.99C788.064 572.25 805.764 567.98 823.534 564.6C851.034 559.53 871.754 557.11 899.484 554.48C946.514 550.17 993.794 549.26 1040.82 544.9C1064.19 542.71 1087.45 539.45 1110.46 534.81C1134.31 530.06 1157.84 523.76 1180.9 516.08C1210.86 506.04 1240.06 493.45 1267.33 477.43C1294.03 461.73 1318.73 442.87 1342.37 422.91C1356.75 410.69 1370.75 398.02 1384.26 384.85C1395.46 373.87 1406.24 362.46 1416.83 350.89C1441.2 324.48 1464.14 296.81 1486.73 268.88C1507.19 243.55 1527.38 217.96 1549.81 194.32C1581.5 160.55 1613.3 133.08 1650.98 109.67C1667.62 99.24 1684.95 89.87 1703.14 82.45C1702.69 82.64 1702.25 82.83 1701.8 83.02C1706.02 81.49 1710.19 79.79 1714.46 78.39C1724.38 75.01 1734.48 72.2 1744.7 69.86C1779.42 62.16 1811.67 60.15 1849.76 60.52C1872.54 60.72 1895.29 61.91 1918.06 62.58C1937.64 63.13 1957.24 63.15 1976.82 62.82C2039.93 61.71 2102.93 57.22 2165.78 51.56C2188.51 49.52 2211.23 47.4 2233.91 44.83C2252.8 42.65 2271.71 40.67 2290.59 38.4C2309 36.13 2325.75 34.12 2344.75 31.64C2368.21 28.34 2391.57 24.29 2414.77 19.45C2416.87 19.01 2418.98 18.57 2421.08 18.12C2388.04 18.98 2355.05 21.23 2322.19 24.75L2322.25 24.8Z" fill="#075438"/>
<path d="M2338.15 46.16C2318.73 48.16 2299.27 49.75 2279.84 51.72C2244.49 55.51 2209.11 59.07 2173.67 62.02C2113.91 67.12 2054.01 71.09 1994.03 72.01C1963.87 72.56 1933.71 71.76 1903.56 70.64C1878.93 69.78 1854.27 69.25 1829.64 70.42C1811.64 71.39 1793.68 73.33 1775.92 76.44C1754.55 80.15 1733.51 85.93 1713.42 94.14C1696.2 101.27 1679.81 110.23 1664 120.06C1644.78 132.13 1626.39 145.54 1609.02 160.15C1592.78 173.87 1577.44 188.63 1562.82 204.06C1540.11 227.74 1519.68 253.44 1499.25 279.07C1483.74 298.45 1468.07 317.71 1451.95 336.58C1435.19 356.07 1417.96 375.18 1399.86 393.44C1386.12 407.22 1371.79 420.4 1357.06 433.11C1329.97 456.35 1305.47 475.23 1273.7 493.38C1244.91 509.4 1220.18 519.67 1188.85 529.8C1173.36 534.76 1157.66 539.08 1141.81 542.74C1132.76 544.79 1123.66 546.65 1114.53 548.34C1105.23 550.04 1095.89 551.5 1086.53 552.8C1048.49 557.87 1010.12 559.54 971.844 561.69C937.984 563.6 904.114 566 870.484 570.53C854.734 572.6 839.024 575.11 823.494 578.45C808.434 581.76 793.494 585.93 779.324 592.07C771.384 595.51 763.774 599.67 756.614 604.53C750.574 608.71 744.884 613.37 739.414 618.27C726.974 629.65 715.614 642.15 704.774 655.04C694.834 666.95 685.844 679.63 677.294 692.56C658.954 720.71 642.114 749.82 623.304 777.67C615.574 789.33 607.224 800.64 600.754 808.89C594.324 817.02 587.564 824.93 579.954 831.99C571.554 839.48 568.194 841.91 558.424 848.35C550.364 853.5 542.044 858.23 533.444 862.43C523.214 867.24 518.574 869.08 508.424 872.88C498.384 876.64 488.214 880.03 477.964 883.19C462.604 887.88 446.904 891.31 431.134 894.3C415.364 897.33 399.534 900.08 383.694 902.75C315.964 914.27 247.074 923.36 182.494 947.82C165.734 954.26 149.414 961.88 133.894 970.9C120.604 978.82 107.994 987.85 96.2442 997.9C82.7042 1009.75 70.6442 1023.22 59.8642 1037.62C53.1842 1046.54 46.9742 1055.81 41.4242 1065.47C36.4442 1074.27 32.1142 1083.42 28.2342 1092.75C19.5842 1113.37 14.1842 1135.17 9.88424 1157.06C7.29424 1171 4.91424 1185.03 4.00424 1199.2C2.74424 1222.54 4.12424 1246.19 9.49424 1268.99C9.06424 1259.49 9.46425 1249.97 10.0042 1240.48C10.7942 1227 12.1242 1213.56 13.7242 1200.16C14.7342 1191.98 15.6442 1184.73 17.9842 1170.94C21.0842 1153.57 24.8942 1136.3 29.9942 1119.4C37.6042 1094.58 48.2142 1072.46 64.6742 1049.4C74.3742 1035.68 89.0242 1018.61 104.804 1005.09C110.584 1000.35 109.794 1000.83 114.704 997.1C122.774 990.89 131.294 985.3 140.014 980.04C155.444 971.16 169.544 964.62 182.844 959.31C244.354 935.48 310.004 925.76 374.764 915.08C392.704 912.15 410.614 909.09 428.494 905.79C446.994 902.35 465.474 898.57 483.434 892.9C504.654 886.23 525.774 878.82 545.574 868.6C561.534 860.05 577.034 850.18 590.094 837.56C597.894 830.06 604.754 821.66 611.374 813.12C618.454 804.05 625.164 794.69 631.624 785.16C642.564 768.93 653.004 752.37 663.304 735.73C672.854 720.36 682.254 704.89 692.454 689.93C703.014 674.27 711.274 663.85 724.644 648.93C734.944 637.51 745.734 626.42 757.864 616.92C759.274 615.91 760.644 614.86 762.074 613.88C764.854 611.99 767.704 610.2 770.594 608.49C776.994 604.82 783.794 601.63 787.144 600.35C803.964 593.61 821.664 589.34 839.434 585.96C866.934 580.89 887.654 578.47 915.384 575.84C962.414 571.53 1009.69 570.62 1056.72 566.26C1080.09 564.07 1103.35 560.81 1126.36 556.17C1150.21 551.42 1173.74 545.12 1196.8 537.44C1226.76 527.4 1255.96 514.81 1283.23 498.79C1309.93 483.09 1334.63 464.23 1358.27 444.27C1372.65 432.05 1386.65 419.38 1400.16 406.21C1411.36 395.23 1422.14 383.82 1432.73 372.25C1457.1 345.84 1480.04 318.17 1502.63 290.24C1523.09 264.91 1543.28 239.32 1565.71 215.68C1597.4 181.91 1629.2 154.44 1666.88 131.03C1683.52 120.6 1700.85 111.23 1719.04 103.81C1718.59 104 1718.15 104.19 1717.7 104.38C1721.92 102.85 1726.09 101.15 1730.36 99.75C1740.28 96.37 1750.38 93.56 1760.6 91.22C1795.32 83.52 1827.57 81.51 1865.66 81.88C1888.44 82.08 1911.19 83.27 1933.96 83.94C1953.54 84.49 1973.14 84.51 1992.72 84.18C2055.83 83.07 2118.83 78.58 2181.68 72.92C2204.41 70.88 2227.13 68.76 2249.81 66.19C2268.7 64.01 2287.61 62.03 2306.49 59.76C2324.9 57.49 2341.65 55.48 2360.65 53C2384.11 49.7 2407.47 45.65 2430.67 40.81C2432.77 40.37 2434.88 39.93 2436.98 39.48C2403.94 40.34 2370.95 42.59 2338.09 46.11L2338.15 46.16Z" fill="#075438"/>
<path d="M2356.12 65.03C2336.7 67.03 2317.24 68.62 2297.81 70.59C2262.46 74.38 2227.08 77.94 2191.64 80.89C2131.88 85.99 2071.98 89.96 2012 90.88C1981.84 91.43 1951.68 90.63 1921.53 89.51C1896.9 88.65 1872.24 88.12 1847.61 89.29C1829.61 90.26 1811.65 92.2 1793.89 95.31C1772.52 99.02 1751.48 104.8 1731.39 113.01C1714.17 120.14 1697.78 129.1 1681.97 138.93C1662.75 151 1644.36 164.41 1626.99 179.02C1610.75 192.74 1595.41 207.5 1580.79 222.93C1558.08 246.61 1537.65 272.31 1517.22 297.94C1501.71 317.32 1486.04 336.58 1469.92 355.45C1453.16 374.94 1435.93 394.05 1417.83 412.31C1404.09 426.09 1389.76 439.27 1375.03 451.98C1347.94 475.22 1323.44 494.1 1291.67 512.25C1262.88 528.27 1238.15 538.54 1206.82 548.67C1191.33 553.63 1175.63 557.95 1159.78 561.61C1150.73 563.66 1141.63 565.52 1132.5 567.21C1123.2 568.91 1113.86 570.37 1104.5 571.67C1066.46 576.74 1028.09 578.41 989.814 580.56C955.954 582.47 922.084 584.87 888.454 589.4C872.704 591.47 856.994 593.98 841.464 597.32C826.404 600.63 811.464 604.8 797.294 610.94C789.354 614.38 781.744 618.54 774.584 623.4C768.544 627.58 762.854 632.24 757.384 637.14C744.944 648.52 733.584 661.02 722.744 673.91C712.804 685.82 703.814 698.5 695.264 711.43C676.924 739.58 660.084 768.69 641.274 796.54C633.544 808.2 625.194 819.51 618.724 827.76C612.294 835.89 605.534 843.8 597.924 850.86C589.524 858.35 586.164 860.78 576.394 867.22C568.334 872.37 560.014 877.1 551.414 881.3C541.184 886.11 536.544 887.95 526.394 891.75C516.354 895.51 506.184 898.9 495.934 902.06C480.574 906.75 464.874 910.18 449.104 913.17C433.334 916.2 417.504 918.95 401.664 921.62C333.934 933.14 265.044 942.23 200.464 966.69C183.704 973.13 167.384 980.75 151.864 989.77C138.574 997.69 125.964 1006.72 114.214 1016.77C100.674 1028.62 88.6142 1042.09 77.8342 1056.49C71.1542 1065.41 64.9442 1074.68 59.3942 1084.34C54.4142 1093.14 50.0842 1102.29 46.2042 1111.62C37.5542 1132.24 32.1542 1154.04 27.8542 1175.93C25.2642 1189.87 22.8842 1203.9 21.9742 1218.07C20.7142 1241.41 22.0942 1265.06 27.4642 1287.86C27.0342 1278.36 27.4342 1268.84 27.9742 1259.35C28.7642 1245.87 30.0942 1232.43 31.6942 1219.03C32.7042 1210.85 33.6142 1203.6 35.9542 1189.81C39.0542 1172.44 42.8642 1155.17 47.9642 1138.27C55.5742 1113.45 66.1842 1091.33 82.6442 1068.27C92.3442 1054.55 106.994 1037.48 122.774 1023.96C128.554 1019.22 127.764 1019.7 132.674 1015.97C140.744 1009.76 149.264 1004.17 157.984 998.91C173.414 990.03 187.514 983.49 200.814 978.18C262.324 954.35 327.974 944.63 392.734 933.95C410.674 931.02 428.584 927.96 446.464 924.66C464.964 921.22 483.444 917.44 501.404 911.77C522.624 905.1 543.744 897.69 563.544 887.47C579.504 878.92 595.004 869.05 608.064 856.43C615.864 848.93 622.724 840.53 629.344 831.99C636.424 822.92 643.134 813.56 649.594 804.03C660.534 787.8 670.974 771.24 681.274 754.6C690.824 739.23 700.224 723.76 710.424 708.8C720.984 693.14 729.244 682.72 742.614 667.8C752.914 656.38 763.704 645.29 775.834 635.79C777.244 634.78 778.614 633.73 780.044 632.75C782.824 630.86 785.674 629.07 788.564 627.36C794.964 623.69 801.764 620.5 805.114 619.22C821.934 612.48 839.634 608.21 857.404 604.83C884.904 599.76 905.624 597.34 933.354 594.71C980.384 590.4 1027.66 589.49 1074.69 585.13C1098.06 582.94 1121.32 579.68 1144.33 575.04C1168.18 570.29 1191.71 563.99 1214.77 556.31C1244.73 546.27 1273.93 533.68 1301.2 517.66C1327.9 501.96 1352.6 483.1 1376.24 463.14C1390.62 450.92 1404.62 438.25 1418.13 425.08C1429.33 414.1 1440.11 402.69 1450.7 391.12C1475.07 364.71 1498.01 337.04 1520.6 309.11C1541.06 283.78 1561.25 258.19 1583.68 234.55C1615.37 200.78 1647.17 173.31 1684.85 149.9C1701.49 139.47 1718.82 130.1 1737.01 122.68C1736.56 122.87 1736.12 123.06 1735.67 123.25C1739.89 121.72 1744.06 120.02 1748.33 118.62C1758.25 115.24 1768.35 112.43 1778.57 110.09C1813.29 102.39 1845.54 100.38 1883.63 100.75C1906.41 100.95 1929.16 102.14 1951.93 102.81C1971.51 103.36 1991.11 103.38 2010.69 103.05C2073.8 101.94 2136.8 97.45 2199.65 91.79C2222.38 89.75 2245.1 87.63 2267.78 85.06C2286.67 82.88 2305.58 80.9 2324.46 78.63C2342.87 76.36 2359.62 74.35 2378.62 71.87C2402.08 68.57 2425.44 64.52 2448.64 59.68C2450.74 59.24 2452.85 58.8 2454.95 58.35C2421.91 59.21 2388.92 61.46 2356.06 64.98L2356.12 65.03Z" fill="#075438"/>
<path d="M2470.64 75.6797C2447.44 80.5197 2424.08 84.5701 2400.62 87.8701C2381.62 90.3501 2364.87 92.3599 2346.46 94.6299C2327.58 96.8999 2308.67 98.8796 2289.78 101.06C2267.1 103.63 2244.38 105.75 2221.65 107.79C2158.8 113.45 2095.8 117.94 2032.69 119.05C2013.11 119.38 1993.51 119.36 1973.93 118.81C1951.16 118.14 1928.41 116.95 1905.63 116.75C1867.54 116.38 1835.29 118.39 1800.57 126.09C1790.35 128.43 1780.25 131.24 1770.33 134.62C1766.06 136.02 1761.89 137.72 1757.67 139.25C1758.12 139.06 1758.56 138.87 1759.01 138.68C1740.82 146.1 1723.49 155.47 1706.85 165.9C1669.17 189.31 1637.37 216.78 1605.68 250.55C1583.25 274.19 1563.06 299.78 1542.6 325.11C1520.01 353.04 1497.07 380.71 1472.7 407.12C1462.11 418.69 1451.33 430.1 1440.13 441.08C1426.62 454.25 1412.62 466.92 1398.24 479.14C1374.6 499.1 1349.9 517.96 1323.2 533.66C1295.93 549.68 1266.73 562.27 1236.77 572.31C1213.71 579.99 1190.18 586.29 1166.33 591.04C1143.32 595.68 1120.06 598.94 1096.69 601.13C1049.66 605.49 1002.38 606.4 955.354 610.71C927.624 613.34 906.904 615.76 879.404 620.83C861.634 624.21 843.934 628.48 827.114 635.22C823.764 636.5 816.964 639.69 810.564 643.36C807.674 645.07 804.825 646.86 802.045 648.75C800.615 649.73 799.244 650.78 797.834 651.79C785.704 661.29 774.914 672.38 764.614 683.8C751.244 698.72 742.985 709.14 732.425 724.8C722.225 739.76 712.824 755.23 703.274 770.6C692.974 787.24 682.535 803.8 671.595 820.03C665.135 829.56 658.425 838.92 651.345 847.99C644.725 856.53 637.864 864.93 630.064 872.43C617.004 885.05 601.505 894.92 585.545 903.47C565.745 913.69 544.624 921.1 523.404 927.77C505.444 933.439 486.965 937.22 468.465 940.66C450.585 943.96 432.674 947.02 414.734 949.95C349.974 960.63 284.324 970.35 222.814 994.18C209.514 999.49 195.414 1006.03 179.984 1014.91C171.264 1020.17 162.744 1025.76 154.675 1031.97C149.765 1035.7 150.554 1035.22 144.774 1039.96C128.994 1053.48 114.344 1070.55 104.644 1084.27C88.1844 1107.33 77.5746 1129.45 69.9646 1154.27C64.8647 1171.17 61.0539 1188.44 57.9539 1205.81C55.6139 1219.6 54.7041 1226.85 53.6941 1235.03C52.0942 1248.43 50.7644 1261.87 49.9744 1275.35C49.4344 1284.84 49.0346 1294.36 49.4646 1303.86C44.0947 1281.06 42.7144 1257.41 43.9744 1234.07C44.8844 1219.9 47.2643 1205.87 49.8543 1191.93C54.1543 1170.04 59.554 1148.24 68.2039 1127.62C72.0839 1118.29 76.4143 1109.14 81.3943 1100.34C86.9442 1090.68 93.1539 1081.41 99.8338 1072.49C110.614 1058.09 122.675 1044.62 136.215 1032.77C147.965 1022.72 160.574 1013.69 173.864 1005.77C189.384 996.75 205.705 989.13 222.465 982.69C287.044 958.231 355.934 949.14 423.664 937.62C439.504 934.95 455.334 932.2 471.104 929.17C486.874 926.18 502.574 922.75 517.934 918.06C528.184 914.9 538.354 911.51 548.394 907.75C558.544 903.95 563.184 902.11 573.414 897.3C582.014 893.1 590.334 888.37 598.394 883.22C608.164 876.78 611.525 874.35 619.925 866.86C627.535 859.8 634.294 851.89 640.724 843.76C647.194 835.51 655.544 824.2 663.274 812.54C682.084 784.69 698.924 755.58 717.264 727.43C725.814 714.5 734.804 701.82 744.744 689.91C755.584 677.02 766.945 664.52 779.385 653.14C784.854 648.24 790.544 643.58 796.584 639.4C803.744 634.54 811.355 630.38 819.295 626.94C833.465 620.8 848.405 616.63 863.465 613.32C878.994 609.98 894.704 607.47 910.454 605.4C944.084 600.87 977.954 598.47 1011.81 596.56C1050.09 594.41 1088.46 592.74 1126.5 587.67C1135.86 586.37 1145.2 584.91 1154.5 583.21C1163.63 581.52 1172.73 579.66 1181.78 577.61C1197.63 573.95 1213.33 569.63 1228.82 564.67C1260.15 554.54 1284.88 544.27 1313.67 528.25C1345.44 510.1 1369.94 491.22 1397.03 467.98C1411.76 455.27 1426.09 442.09 1439.83 428.31C1457.93 410.05 1475.16 390.94 1491.92 371.45C1508.04 352.58 1523.71 333.32 1539.22 313.94C1559.65 288.31 1580.08 262.61 1602.79 238.93C1617.41 223.5 1632.75 208.74 1648.99 195.02C1666.36 180.41 1684.75 167 1703.97 154.93C1719.78 145.1 1736.17 136.14 1753.39 129.01C1773.48 120.8 1794.52 115.02 1815.89 111.31C1833.65 108.2 1851.61 106.26 1869.61 105.29C1894.24 104.12 1918.9 104.65 1943.53 105.51C1973.68 106.63 2003.84 107.43 2034 106.88C2093.98 105.96 2153.88 101.99 2213.64 96.8896C2249.08 93.9397 2284.46 90.3798 2319.81 86.5898C2339.24 84.6199 2358.7 83.0302 2378.12 81.0303L2378.06 80.9805C2410.92 77.4605 2443.91 75.2096 2476.95 74.3496C2474.85 74.7996 2472.74 75.2397 2470.64 75.6797Z" fill="#075438"/>
</svg>
