<svg width="56" height="454" viewBox="0 0 56 454" fill="none" xmlns="http://www.w3.org/2000/svg">
<path d="M11.8744 5.45682L38.1876 7.59655L36.6379 26.6536L32.97 26.3554L34.1728 11.5642L26.5978 10.9482L25.6576 22.5101L22.0695 22.2183L23.0096 10.6564L15.1954 10.021L13.9473 25.3703L10.2794 25.0721L11.8744 5.45682Z" fill="#075438"/>
<path d="M11.1962 141.902L37.5581 140.484L38.5854 159.576L34.9107 159.774L34.1133 144.955L26.5243 145.364L27.1476 156.947L23.5528 157.14L22.9295 145.557L15.1008 145.978L15.9283 161.356L12.2536 161.554L11.1962 141.902Z" fill="#075438"/>
<path d="M12.1977 190.919L38.5589 189.489L39.5951 208.581L35.9205 208.78L35.1163 193.962L27.5274 194.374L28.156 205.957L24.5613 206.152L23.9327 194.569L16.1042 194.994L16.9388 210.371L13.2642 210.57L12.1977 190.919Z" fill="#075438"/>
<path d="M36.5806 68.0746L10.2294 66.4705L10.47 62.5178L25.7218 63.4462L32.9689 64.208L32.9713 64.168L10.9415 54.7722L11.1578 51.2188L34.1646 44.5643L34.167 44.5244L26.881 44.4015L11.6293 43.4731L11.8699 39.5204L38.2211 41.1244L37.8347 47.4727L22.2597 51.8545L15.8795 53.3095L15.8746 53.3894L22.0288 55.6474L36.9597 61.8461L36.5806 68.0746Z" fill="#075438"/>
<path d="M36.4442 83.5469L10.0454 83.295L10.0862 79.0152L36.485 79.2671L36.4442 83.5469Z" fill="#075438"/>
<path d="M15.2915 102.732L14.7182 117.281L11.0411 117.136L11.7828 98.3106L38.1623 99.35L37.9938 103.627L15.2915 102.732Z" fill="#075438"/>
<path d="M37.3002 130.581L10.9041 131.032L10.8309 126.753L37.2271 126.301L37.3002 130.581Z" fill="#075438"/>
<path d="M39.7891 255.76L13.4275 257.183L13.1968 252.909L39.5584 251.486L39.7891 255.76Z" fill="#075438"/>
<path d="M40.0703 231.178C40.2077 234.001 39.6107 236.273 38.2793 237.993C36.9493 239.739 35.0857 240.671 32.6886 240.788C30.2115 240.908 28.2529 240.163 26.8129 238.551C25.4008 236.964 24.6261 234.759 24.4887 231.936L24.2296 231.548L23.9322 225.435L13.3847 225.948L13.1786 221.713L39.5475 220.43L40.0703 231.178ZM27.7893 231.455C27.8735 233.186 28.2819 234.448 29.0146 235.24C29.7752 236.057 30.888 236.43 32.3529 236.359C33.7912 236.289 34.8492 235.81 35.5269 234.923C36.2059 234.062 36.5033 232.766 36.4191 231.035L36.1178 224.842L27.488 225.262L27.7893 231.455ZM27.0328 234.015L14.2263 243.248L13.9872 238.334L25.1759 230.421L27.0328 234.015Z" fill="#075438"/>
<path d="M42.7778 289.493L28.9435 279.067L28.8556 278.594L20.8473 272.525L25.4637 271.659L42.2528 284.28L42.7778 289.493ZM41.0384 272.221L14.7713 274.866L14.3424 270.608L40.6096 267.962L41.0384 272.221ZM32.2952 279.614L16.5348 292.378L16.0298 287.363L29.5666 276.472L32.2952 279.614Z" fill="#075438"/>
<path d="M44.0024 309.693C44.1756 312.06 43.8734 314.141 43.0957 315.936C42.3446 317.729 41.1485 319.287 39.5074 320.611L36.5445 317.94C38.0131 316.816 39.0331 315.592 39.6045 314.267C40.2045 312.966 40.4412 311.451 40.3147 309.723C40.2212 308.446 39.9715 307.408 39.5654 306.609C39.1593 305.81 38.6491 305.232 38.0348 304.876C37.449 304.545 36.7971 304.405 36.079 304.458C35.2546 304.518 34.5569 304.85 33.9861 305.453C33.4172 306.083 33.0174 307.195 32.7865 308.79L31.981 314.223C31.6094 316.817 30.8907 318.688 29.825 319.836C28.7592 320.983 27.3487 321.621 25.5934 321.75C23.9711 321.868 22.5294 321.533 21.2684 320.743C20.0073 319.953 19.0002 318.796 18.2471 317.274C17.4959 315.778 17.0434 313.98 16.8896 311.879C16.7533 310.017 16.87 308.324 17.2397 306.8C17.6094 305.275 18.1656 303.924 18.9083 302.747C19.651 301.57 20.528 300.583 21.5392 299.787L24.7074 302.523C23.8174 303.15 23.0313 303.916 22.3489 304.821C21.6931 305.725 21.2066 306.75 20.8895 307.896C20.5743 309.069 20.4673 310.347 20.5685 311.73C20.6581 312.953 20.8812 313.993 21.238 314.849C21.5968 315.732 22.0719 316.379 22.6635 316.79C23.2837 317.226 23.9927 317.415 24.7906 317.356C25.5618 317.3 26.2205 316.984 26.7667 316.41C27.3148 315.861 27.6969 314.871 27.9128 313.438L28.8059 307.557C29.0348 305.936 29.4305 304.584 29.9928 303.5C30.5552 302.416 31.27 301.588 32.1373 301.016C33.0311 300.443 34.0498 300.114 35.1934 300.031C36.6828 299.922 38.0551 300.222 39.3103 300.933C40.594 301.667 41.6514 302.78 42.4824 304.27C43.34 305.758 43.8466 307.566 44.0024 309.693Z" fill="#075438"/>
<path d="M42.2024 339.897C42.3689 342.452 41.9673 344.696 40.9976 346.63C40.028 348.563 38.5649 350.102 36.6084 351.245C34.6519 352.388 32.2633 353.051 29.4426 353.235C26.6219 353.419 24.1675 353.071 22.0792 352.191C19.9909 351.312 18.3406 349.976 17.1282 348.185C15.9158 346.393 15.2264 344.22 15.06 341.666C14.8952 339.138 15.2977 336.907 16.2674 334.973C17.237 333.039 18.7001 331.501 20.6566 330.358C22.6131 329.215 25.0017 328.551 27.8223 328.368C30.643 328.184 33.0975 328.532 35.1858 329.411C37.274 330.29 38.9244 331.626 40.1367 333.418C41.3491 335.209 42.0377 337.369 42.2024 339.897ZM38.4903 340.139C38.3828 338.489 37.9042 337.09 37.0544 335.943C36.2065 334.823 35.0299 333.991 33.5247 333.448C32.0195 332.904 30.2158 332.701 28.1136 332.838C26.038 332.973 24.2759 333.409 22.8274 334.145C21.4054 334.879 20.3468 335.856 19.6513 337.077C18.9577 338.325 18.6646 339.774 18.7721 341.424C18.8813 343.1 19.3599 344.499 20.2079 345.619C21.0576 346.766 22.2351 347.612 23.7403 348.155C25.272 348.696 27.0757 348.9 29.1513 348.764C31.2535 348.627 33.0156 348.192 34.4376 347.458C35.8595 346.724 36.9173 345.733 37.611 344.485C38.3064 343.264 38.5995 341.815 38.4903 340.139Z" fill="#075438"/>
<path d="M41.4298 384.548L15.0298 384.583L15.0231 379.503L31.6496 369.281L36.3262 366.715L36.3262 366.675L32.0464 366.841L15.0064 366.863L15.0012 362.943L41.4012 362.908L41.4078 367.948L24.8213 378.13L20.0647 380.737L20.0648 380.777L24.3846 380.611L41.4246 380.588L41.4298 384.548Z" fill="#075438"/>
<path d="M18.6426 429.125L27.3308 412.13L31.2519 412.281L38.6079 429.893L34.7947 429.747L29.2276 415.266L22.4918 429.273L18.6426 429.125ZM17.0462 441.583C17.1321 439.353 17.6985 437.429 18.7455 435.812C19.8155 434.22 21.2614 433.159 23.0831 432.629L24.7018 436.438C23.8301 436.62 23.0738 436.928 22.4327 437.359C21.7916 437.791 21.2889 438.372 20.9245 439.102C20.5841 439.834 20.3927 440.751 20.3502 441.854C20.3142 442.79 20.4516 443.588 20.7625 444.248C21.0733 444.908 21.522 445.418 22.1086 445.777C22.6943 446.16 23.3709 446.366 24.1383 446.396C24.9298 446.426 25.5953 446.295 26.1349 446.004C26.6736 445.737 27.0753 445.284 27.34 444.645C27.6039 444.031 27.7547 443.232 27.7926 442.249C27.8036 441.961 27.8032 441.661 27.7912 441.348C27.8023 441.06 27.7903 440.748 27.7553 440.41L30.9929 440.535C30.9606 440.75 30.9287 440.953 30.8974 441.144C30.8891 441.359 30.8812 441.563 30.8738 441.755C30.8138 443.314 31.0827 444.441 31.6803 445.137C32.278 445.832 33.2364 446.205 34.5554 446.256C35.6826 446.3 36.5593 445.985 37.1857 445.313C37.8111 444.664 38.1482 443.704 38.1972 442.433C38.2479 441.114 37.9759 440.071 37.381 439.304C36.8091 438.561 35.955 437.976 34.8186 437.548L36.4292 434.079C37.5195 434.457 38.4571 435.058 39.242 435.881C40.0269 436.704 40.6131 437.699 41.0004 438.867C41.4109 440.059 41.5893 441.351 41.5358 442.742C41.4702 444.445 41.1399 445.849 40.545 446.955C39.9491 448.085 39.1608 448.907 38.1803 449.422C37.1989 449.961 36.1206 450.207 34.9455 450.162C34.0341 450.127 33.2358 449.964 32.5505 449.674C31.8891 449.384 31.3154 449.002 30.8293 448.526C30.3663 448.076 30.013 447.582 29.7695 447.045C29.5251 446.531 29.3651 446.008 29.2895 445.477L29.2175 445.474C29.1668 446.169 28.9984 446.799 28.7125 447.364C28.4496 447.954 28.0815 448.469 27.6083 448.907C27.1582 449.37 26.6162 449.721 25.9825 449.961C25.3489 450.201 24.6603 450.306 23.9168 450.278C22.4779 450.222 21.2327 449.814 20.1812 449.053C19.1297 448.292 18.3286 447.265 17.778 445.971C17.2264 444.7 16.9825 443.238 17.0462 441.583Z" fill="#075438"/>
</svg>
