<svg width="441" height="348" viewBox="0 0 441 348" fill="none" xmlns="http://www.w3.org/2000/svg">
<g clip-path="url(#clip0_417_11634)">
<path d="M122.401 144.975C134.914 137.316 150.993 136.948 165.519 135.955C189.801 134.283 214.063 132.063 238.437 131.33C263.464 130.577 288.779 132.596 313.77 135.081C326.098 136.306 340.085 136.417 352.36 138.59C360.481 140.029 368.59 142.472 376.467 144.956C394.055 150.5 450.218 171.256 427.422 196.564C421.651 202.972 409.254 207.804 401.105 210.053C393.42 212.168 385.501 213.398 377.622 214.741C348.272 219.739 319.843 222.54 289.803 222.246C254.719 221.908 219.745 222.888 184.683 223.025C152.662 223.149 119.817 224.35 87.8953 219.94C67.3267 217.098 46.3229 213.747 26.5737 206.839C18.4401 203.996 3.55845 199.902 4.81104 189.411C6.31831 176.82 20.2694 167.414 30.4689 162.132C53.4618 150.227 78.4901 142.601 103.816 136.389C132.549 129.343 161.544 124.627 191.256 122.448C215.859 120.646 239.497 120.975 264.194 122.191" stroke="black" stroke-miterlimit="10"/>
</g>
<defs>
<clipPath id="clip0_417_11634">
<rect width="382.5" height="219.25" fill="white" transform="translate(99.7417) rotate(27.06)"/>
</clipPath>
</defs>
</svg>
